<?xml version="1.0" encoding="utf-8"?>
<!-- Generator: Adobe Illustrator 21.1.0, SVG Export Plug-In . SVG Version: 6.00 Build 0)  -->
<svg version="1.1" id="Layer_1" xmlns="http://www.w3.org/2000/svg" xmlns:xlink="http://www.w3.org/1999/xlink" x="0px" y="0px"
	 viewBox="0 0 360 360" style="enable-background:new 0 0 360 360;" xml:space="preserve">
<style type="text/css">
	.st0{fill:#464646;}
	.st1{fill:#46464A;}
</style>
<path class="st0" d="M175,149.9"/>
<g>
	<g>
		<g id="qSxGTY.tif_3_">
			<g>
				<path class="st1" d="M288.7,176.9c-2.2-0.7-4.5-1-6.8-1.4c-1.2-0.2-2.5-0.4-3.8-0.2c-4.7,0.5-9.4,1.3-14.1,1.7
					c-5.3,0.5-10.6,0.5-15.9,1.3c-3.6,0.6-7,1.9-10.4,3.1c-1.9,0.7-3.6,1.8-5.3,2.9c-2,1.3-4,2.7-5.9,4.3c-1.7,1.4-3.2,3.1-4.8,4.7
					c-2.1,2.2-4.4,4.2-6.2,6.6c-2.1,2.6-4.6,4.7-7.2,6.7c-1.7,1.3-3.4,2.8-5,4.4c-1.1,1.1-2.1,2.4-3.1,3.6c-1.4,1.7-3.1,3.2-4.3,5
					c-2,3.1-3.7,6.4-5.6,9.6c-0.4,0.7-0.9,1.4-1.3,2.1l-0.4-0.2c0.1-1.2,0.4-2.4,0.4-3.5c-0.1-1.6,0.6-2.8,1.4-4
					c1.8-2.8,3.8-5.4,5.7-8.2c0.4-0.6,0.6-1.2,0.8-1.9c0.6-1.4,1-2.9,1.7-4.3c0.9-1.9,1.9-3.6,2.8-5.5c0.8-1.8,1.5-3.6,2.2-5.4
					c0.9-2,2.2-3.9,2.6-5.9c0.6-2.9,1.9-5.4,3-8.1c0.9-2.2,2.1-4.2,3.4-6.2c1-1.7,2.2-3.4,3.4-4.9c1.5-1.7,3.3-3.2,4.8-4.9
					c2.2-2.5,4.3-5,6.4-7.6c1.8-2.2,3.4-4.5,5.1-6.8c0.3-0.4,0.5-0.9,0.4-1.3c-0.3-1.9-3.2-3.2-4.8-2.1c-3.2,2.2-6.9,3.2-10.7,3.9
					c-1.5,0.3-3.1,0.6-4.4,1.4c-2.6,1.5-5.1,3.3-7.4,5.2c-2.4,2-4.7,4.2-6.9,6.4c-0.9,0.9-1.7,1.9-2.5,2.8c-1.2,1.3-2.5,2.5-3.8,3.9
					c0-0.1,0-0.2,0-0.3c-0.9,0.8-1.7,1.7-2.5,2.6c0.1,0.1,0.1,0.3,0.1,0.3c-0.9,1.1-1.9,2.2-2.8,3.1c0-0.1,0-0.2,0-0.2
					c-0.7,0.8-1.3,1.6-2,2.4c-0.4,0.4-0.8,0.9-1.2,1.3c-0.2,0.4-0.4,0.8-0.7,1.2c-1.7,2.2-3.6,4.3-5.2,6.5c-1.6,2.3-2.9,4.9-4.3,7.4
					c-1.6,2.7-3.3,5.4-4.7,8.2c-1.3,2.4-2.3,4.9-3.4,7.4c-1.3,3-2.6,6-3.8,9.1c-0.9,2.2-1.7,3-4,2.8c-2-0.2-4,0.3-5.9,1.1
					c-1.8,0.8-3.6,1.6-5.4,2.4c-0.6,0.3-1.2,0.8-1.6,1.3c-0.5,0.6-0.7,1.4-1.1,2c0-2.1,0.4-4.1,0.4-6.2c0-2.6,2.4-4.5,1.7-7.2
					c0,0,0-0.1,0-0.1c0.8-2.1,1.7-4.2,2.3-6.4c0.5-1.7,0.6-3.4,0.7-5.1c0-1.2-0.3-2.5-0.5-3.7c0-0.3,0-0.7,0-1.1
					c-0.7-2.8-1.4-5.7-2.3-8.5c-1-3.3-1.4-6.7-1.8-10.2c-0.1-1.4-0.3-2.8-0.4-4.3c-0.2-1.9-0.7-3.8-0.5-5.6c0.3-2.2-0.3-4.1-1.1-6
					c-0.2-0.4-0.6-0.8-1.1-1.1c-1.8-0.9-4.2,0.3-4.9,2.3c-0.4,1.3-1.1,2.5-1.7,3.8c-0.4-0.6-0.6-0.9-0.8-1.3
					c-1.3-2.6-2.8-5.1-3.7-7.8c-0.7-2-1.4-3.7-3-5.1c-1.7-1.4-3.8-1.1-4.8,0.9c-0.9,1.7-1.3,3.5-1.3,5.5c0.1,3.5,0.2,7,0.3,10.6
					c0,1,0.3,2,0.4,3c0.4,2.5,0.7,5.1,1.2,7.6c0.4,2.1,0.9,4.1,1.5,6.1c0.5,1.6,1.3,3,2.1,4.5c0.7,1.4,1.4,2.7,2.1,4.1
					c0.2,0.5,0.4,1,0.6,1.4c0.4,0.9,0.9,1.8,1.3,2.8c0.2,0.3,0.4,0.6,0.5,0.9c0.6,1.3,1.3,2.5,1.7,3.9c0.5,1.4,0.8,2.9,1.2,4.3
					c-0.1,0.1-0.3,0.3-0.4,0.4c-0.3-0.5-0.6-1-1-1.5c-2-2.2-3.9-4.4-6-6.5c-1.4-1.4-2.9-2.6-4.5-3.7c-2.5-1.8-5-3.5-7.6-5.3
					c-3.1-2.1-6.2-4.2-9.3-6.4c-1.9-1.3-3.8-2.9-5.8-4.1c-2.5-1.6-5.3-2.5-8.1-3.4c-1.1-0.4-2.3-0.8-3.5-1c-1.5-0.2-3.1-0.2-4.6-0.3
					c-1.3-0.1-2.5-0.2-3.8-0.3c-2.3-0.2-4.6-0.7-6.9-0.7c-2,0-4,0.3-6,0.5c-1.6,0.2-3.3,0.4-4.8,0.9c-2.1,0.7-4.2,1.7-6.2,2.5
					c-1,0.4-2.1,1.1-3,0.9c-2.3-0.3-4.5-0.3-6.7,0.4c-2.8,0.8-4.3,2.8-3.6,5.4c0.6,2.4,2.2,4.4,4.6,5.1c5.1,1.4,8.7,5.2,13,7.8
					c1.6,0.9,3,2.2,4.7,2.8c2.1,0.8,4.5,1,6.7,1.6c1,0.3,1.9,0.8,2.9,1.1c2.2,0.7,4.4,1.4,6.6,2.2c3.6,1.3,7.2,2.6,10.8,3.9
					c1.8,0.7,3.7,1.5,5.5,2.2c1.2,0.4,2.3,1,3.5,1.3c2.4,0.5,4.8,0.9,7.3,1.3c1.1,0.2,2.2,0.4,3.3,0.5c0.9,0.1,1.8,0,2.7,0.1
					c1.2,0.2,2.3,0.6,3.5,0.7c3.1,0.3,6.2,0.7,9.2,2.1c2.8,1.3,5.6,2.6,8,4.6c2.2,1.9,4.3,3.8,6.6,5.8c-0.3,0.6-0.6,1.2-1,1.8
					c-0.7,1.1-1.4,2.1-2.1,3.2c-1.6,2.6-2.6,5.3-2.6,8.4c0,1.2-0.4,2.4-0.3,3.5c0.3,2.4,0.6,4.7,1.2,7c0.5,1.9,1.4,3.6,2,5.4
					c0.8,2.8,3.1,4.5,4.7,6.7c0.9,1.2,2.4,1.9,3.3,3c2.3,2.7,4.8,5,7.9,6.7c0.2,0.1,0.3,0.7,0.4,1c0.1,0.3-0.1,0.6,0,0.8
					c0.4,1.2,0.9,2.4,1.4,3.6c0.9,2.4,1.8,4.7,2.6,7.1c0.1,0.3,0.1,0.5,0.1,0.8l-0.3,0.2c-0.7-0.8-1.4-1.6-2-2.4
					c-1.1-1.5-2.1-3.1-3.1-4.7c-0.9-1.3-1.8-2.7-2.8-3.9c-0.9-1-1.5-2-2-3.1c-0.5-1.1-1.5-2.1-2.3-3.1c-1.2-1.4-2.5-2.7-3.7-4.1
					c-0.7-0.9-1.1-2-1.9-2.7c-1.8-1.5-3.1-3.3-4.4-5.2c-1-1.5-2.4-2.7-3.6-4.1c-2.1-2.3-4.1-4.7-6.4-6.9c-1.5-1.4-3.4-2.4-5-3.8
					c-2.3-2-5.1-2.9-7.8-4.1c-0.9-0.4-2-0.5-2.9-0.9c-2-0.9-3.9-1.8-5.8-2.9c-2.1-1.2-4.1-2.6-6.1-4c-1.4-1-2.6-2.3-4.1-3.1
					c-3.3-1.8-6.8-3.4-10.2-5.2c-2.8-1.6-5.7-3.2-8.3-5.2c-1.7-1.3-3.6-2.1-5.4-2.8c-2.5-1-5.2-1.1-7.8-1c-3.4,0.1-5.6,2.8-8.1,4.8
					c-0.8,0.6-1.6,1.2-2.5,1.7c-0.6,0.4-1.6,0.6-1.7,1.1c-0.2,0.9-0.4,2,0.6,2.9c1.2,1.1,2.6,1.2,3.9,1.1c2.7-0.3,5.4-0.8,8.1-1.1
					c0.8-0.1,1.7,0.4,2.5,0.2c2.9-0.8,5.5,0.6,8.1,1.2c2.2,0.5,4.7,1.2,6.6,2.9c1.6,1.4,3.9,2,4.3,4.6c0,0.1,0.1,0.3,0.1,0.4
					c1.2,2.3,2.4,4.7,3.6,7c1.3,2.6,2.4,5.3,3.8,7.8c1.1,2.1,2.3,4.2,3.6,6.2c1.2,1.8,2.5,3.6,3.8,5.4c1.6,2.1,3.4,4.1,5.1,6.2
					c1.7,2.1,3.1,4.5,4.9,6.4c3.3,3.6,6.2,7.8,10.2,10.8c1.3,1,2.4,2.4,3.7,3.4c2.7,2.1,5.4,4.1,8.1,6c1.4,1,2.9,1.9,4.4,2.8
					c2.3,1.3,4.6,2.5,6.9,3.8c1.9,1.1,3.8,2.3,5.8,3.5c1.5,0.9,3.1,1.7,4.6,2.6c2.3,1.4,4.6,2.8,6.9,4.3c1.2,0.8,2.2,1.9,3.1,2.9
					c1,1,1.8,2.2,2.7,3.3c1.4,1.5,3,3,4.3,4.6c1.2,1.5,2.1,3.2,3.1,4.9c0.3,0.5,0.6,1,0.8,1.6c0.9,2.2,1.8,4.4,2.8,6.6
					c0.3,0.8,0.7,0.7,1.1,0.2c-0.3-1-0.4-1.9-0.7-2.7c-0.4-1.2-1.1-2.4-1.4-3.6c-0.8-2.8-1.2-5.8-2.1-8.6c-1-2.9-2.3-5.6-3.5-8.4
					c-0.7-1.6-1.3-3.1-1.9-4.7c-0.5-1.4-0.8-2.9-1.3-4.3c-1.1-3.1-2.3-6.2-3.4-9.3c-1.3-3.5-2.4-7.2-4.2-10.5
					c-1.3-2.5-1.3-5.2-2.2-7.8c-0.3-1,0.1-2.2,0-3.3c-0.1-1.6-0.2-3.2-0.3-4.7c0-0.4-0.2-0.8-0.1-1.2c0.1-1.9,0.3-3.8,0.4-5.6
					c0.1-1.1,0.2-2.1,0.3-3.2c0.1,0,0.2,0,0.4,0c0,0.2,0.1,0.3,0.1,0.5c0,2.5,0.1,5,0,7.5c-0.1,3,0.7,6,1.4,8.9
					c0.2,0.9,1.2,1.6,1.9,2.3c0.6,0.5,1.2,0.7,1.2,1.7c0,0.8,0.2,1.5,0.4,2.3c1.2,4.4,2.4,8.8,3.8,13.1c1.2,3.8,2.5,7.5,3.8,11.2
					c1,2.8,2.1,5.5,3.1,8.2c1.8,5.4,3.3,10.9,6.4,15.7c0.5,0.8,1,1,1.9,0.5c0.8-0.5,1-1.1,1-2c-0.2-2.2-0.6-4.4-0.6-6.6
					c0.1-4.9,0.5-9.8,0.7-14.7c0.1-1.5,0-3,0-4.5c0.1-3,0.4-6,0.5-9c0.1-3.4,0-6.8,0-10.2c0-0.5-0.3-1-0.2-1.5
					c0.1-1.8,0.3-3.6,0.5-5.3c0.1-1.4,0.3-2.8,0.3-4.2c0-2.1-0.2-4.2-0.2-6.3c0-5.1,0-10.2,0-15.3c0-0.7,0.4-1.6,0.2-2.2
					c-0.9-2.2,0-4.5-0.1-6.7c-0.2-3.1,0-6.3,0-9.6c-0.5,0.2-0.8,0.3-1.1,0.4c0.7-1.6,1.6-3.2,0.9-5.1c-0.1-0.2,0.1-0.5,0.2-0.7
					c0.5-0.8,1-1.6,1.6-2.3c0.2-0.3,0.6-0.5,1-0.8c0.1,1,0.3,1.8,0.2,2.5c-0.1,2.1-0.4,4.1-0.5,6.2c-0.3,4.1-0.6,8.1-0.8,12.2
					c-0.2,3.6-0.2,7.2-0.3,10.8c0,1.5,0.2,3.1,0.2,4.6c0,2.9-0.2,5.7-0.2,8.6c0,3.8,0.3,7.7,0.3,11.5c-0.1,4.5-0.4,8.9-0.5,13.4
					c-0.1,3.9-0.2,7.9-0.3,11.8c0,4.5-0.1,8.9,0,13.4c0.1,3.7,0.3,7.5,0.5,11.2c0,0.5,0.1,1,0.4,1.4c0.3,0.4,0.8,0.7,1.2,1
					c0.2-0.5,0.6-0.9,0.5-1.4c0-2.3-0.2-4.5-0.2-6.8c0-0.9,0.1-1.8,0-2.6c-0.5-2.5-0.1-4.9,0.2-7.3c0.2-2,0.1-4,0-6
					c-0.1-2.2-0.3-4.5-0.4-6.7c-0.1-1.3,0-2.6,0-3.9c0-0.8,0.1-1.6,0.2-2.4c0.2-2.1,0.4-4.2,0.5-6.3c0.1-2.1,0.3-4.1,0.3-6.2
					c0.1-1.4,0-2.8,0-4.2c0-2.6,0-5.1,0-7.7c0-1.5,0-2.9-0.1-4.4c0-1.4-0.2-2.8-0.1-4.2c0.1-1.1,0.2-2.5,0.9-3.3
					c1.5-1.9,3.3-3.5,5-5.1c2.6-2.5,5.2-4.8,7.8-7.3c2-1.9,3.9-3.9,5.9-5.8c1-1,2-2,3-3c0.8-0.8,1.7-1.6,2.5-2.5
					c1.5-1.7,2.9-3.6,4.3-5.3c0.5-0.6,1.1-1.2,1.6-1.8c1.1-1.2,1.6-2.9,3.2-3.6c0.2-0.1,0.4-0.4,0.5-0.7c0.5-1.2,1.5-2,2.4-2.8
					c1-0.9,2.1-1.7,3-2.6c1.7-1.7,3.3-3.5,5-5.2c1.4-1.4,2.9-2.6,4.4-3.9c2.1-1.7,4.3-3.4,6.6-5c1.7-1.2,3.4-2.2,5.2-3.4
					c3-2,6.1-4,9.1-6c1.4-0.9,2.8-2,4.1-3c0.2-0.1,0.4-0.4,0.7-0.4c1.9-0.1,3.1-1.7,4.6-2.5c0.4-0.2,0.7-0.6,1.1-0.8
					c0.9-0.3,1.9-0.3,2.7-0.8c1.5-0.8,2.7-2.3,4.6-2.5c0.2,0,0.5-0.1,0.6-0.3c0.6-1,1.5-1.5,2.7-1.8c1-0.3,1.9-1.1,2.8-1.5
					c1.5-0.7,3.2-1.3,4.7-2.2c1.3-0.8,2.4-2.1,3.7-3.1c0.9-0.7,1.5-1.5,0.9-2.5C290.3,178.2,289.6,177.2,288.7,176.9z M55.4,230.4
					c2-1.8,3.2-4.3,5.8-5.2c0.9-0.3,2-0.5,2.9-0.4c1.9,0.2,3.9,0.5,5.7,1.1c3,0.9,5.8,2.4,8.1,4.6c0.8,0.7,1.5,1.5,2.1,2.5
					C72.1,229.1,63.9,229.2,55.4,230.4z M161.6,305.1c1.6,2.3,2.7,4.8,3.7,7.3c1,2.4,1.8,4.8,2.8,7.2c0.6,1.5,1.3,2.9,1.9,4.3
					c0.1,0.3,0.1,0.6-0.1,1.1c-1.2-1.4-2.6-2.6-3.6-4.1c-1.8-2.9-4.2-5-7.2-6.8c-2.7-1.6-5.1-3.5-7.8-5.1c-2-1.2-4.1-2.2-6.2-3.4
					c-1.3-0.7-2.7-1.4-4-2.2c-1.5-0.8-3-1.7-4.4-2.6c-1.5-0.9-2.9-2-4.4-3c-1-0.6-2-1.1-3-1.8c-1-0.7-1.8-1.4-2.8-2.1
					c-0.9-0.6-1.7-1.2-2.6-1.9c-0.2-0.2-0.3-0.4-0.5-0.6c-0.8-0.8-1.5-1.6-2.4-2.3c-1.3-1.1-2.7-2.1-3.9-3.3
					c-1.5-1.6-2.9-3.3-4.3-5.1c-1.4-1.8-2.7-3.7-4.2-5.4c-1.1-1.3-2.3-2.5-3.4-3.8c-1.3-1.6-2.5-3.3-3.7-5c-1.9-2.8-4-5.4-5.7-8.4
					c-1.7-3-3-6.3-4.5-9.4c-0.8-1.7-1.8-3.2-2.7-4.9c-0.4-0.9-0.7-1.8-1-2.8c-0.5-1.7-1.1-3.4-1.6-5.1c-0.1-0.4-0.1-0.8-0.1-1.2
					c0.4,0,0.8-0.1,1.1,0.1c1,0.5,1.9,1,2.8,1.5c1.3,0.7,2.7,1.4,3.9,2.2c2,1.3,3.9,2.7,5.8,4.2c1.7,1.4,3.4,2.8,5,4.3
					c1.4,1.2,2.6,2.6,3.9,3.9l-0.2,0.2c-0.9-0.4-1.8-0.8-2.7-1.2c-0.1,0.1-0.2,0.3-0.3,0.4c0.5,0.4,1,0.8,1.5,1.1
					c2.8,2,5.9,3.7,8.2,6.4c1.6,1.9,3.5,3.7,5.2,5.5c0.9,0.9,1.8,1.7,2.6,2.6c1.2,1.6,2.2,3.3,3.4,4.9c1.7,2.3,3.3,4.7,5.1,6.9
					c2.1,2.5,4.5,4.9,6.8,7.4c0.7,0.8,1.2,1.7,1.9,2.5c0.9,1,1.8,1.9,2.7,2.9c0.7,0.9,1.4,1.8,2.1,2.7c1.9,2.5,3.8,5.1,5.8,7.5
					c2.1,2.7,4.3,5.3,6.6,7.9c1.9,2.1,3.9,3.9,5.9,5.9c0.7,0.7,1.3,1.5,1.9,2.3l0.6-0.4c-0.3-0.6-0.5-1.4-0.9-1.9
					c-1.5-1.8-3.1-3.5-4.7-5.2c-0.2-0.2-0.3-0.6-0.5-0.8c-1.4-0.5-1.8-1.9-2.6-2.9c-1.7-2.2-1.9-5-2.9-7.5c-1.2-3-2.3-6.1-3.5-9.2
					c-0.1-0.1-0.2-0.3-0.3-0.4c-0.5,1.7-0.3,0.7,1.1,4.8c0.8,2.4,1.6,4.7,2.4,7.1c0.1,0.2,0,0.5-0.1,0.8c-1.3-1.5-2.7-2.8-3.7-4.3
					c-0.6-0.8-0.4-2.1-0.8-3.1c-1-2.8-2-5.5-3-8.2c-0.3-0.8-0.8-1.6-1.2-2.4c-0.2-0.3-0.4-0.5-0.7-0.7c0,0.3-0.2,0.7-0.1,1
					c0.6,1.5,1.2,2.9,1.8,4.4c0.9,2.3,1.7,4.6,2.6,6.8c-0.1,0-0.2,0.1-0.3,0.1c-1.1-1.4-2.2-2.9-3.3-4.3c-0.4-0.5-1-0.8-1.3-1.4
					c-0.5-0.7-1-1.5-1.3-2.3c-1.2-3.2-2.3-6.4-3.4-9.6c-0.4-1.1-0.8-2.2-1.3-3.4c-0.1-0.3-0.4-0.6-0.6-0.9l-0.4,0.2
					c1.3,3.7,2.5,7.3,3.8,11c-0.2,0.1-0.3,0.2-0.5,0.3c-1.2-1.4-2.5-2.8-3.7-4.1c-0.4-0.5-1.1-0.9-1.3-1.5c-1-2.2-1.9-4.4-2.9-6.6
					c-1-2.2-2.1-4.4-3.2-6.6c-0.4-0.8-0.7-1.5-1.1-2.3c-0.2,0.1-0.3,0.1-0.5,0.2l5.4,12.2c-0.2,0.1-0.3,0.2-0.5,0.3
					c-0.8-1-1.7-1.9-2.3-3c-1-1.8-1.8-3.6-2.7-5.4c-0.9-1.7-2-3.4-3-5.1c-0.1-0.2-0.3-0.2-0.7-0.2c0.9,1.7,1.8,3.4,2.7,5.1
					c-0.1,0.1-0.1,0.1-0.2,0.2c-0.3-0.2-0.5-0.5-0.8-0.7c-1.3-1.6-2.5-3.3-3.9-4.9c-1.9-2.3-3.9-4.6-5.8-7c-1.3-1.6-2.6-3.2-3.9-4.8
					c-0.2-0.2-0.2-0.5-0.3-0.8c0.2-0.1,0.5-0.2,0.7-0.1c1.6,0.7,3.3,1.4,4.9,2.2c2.9,1.3,5.5,3.1,7.8,5.3c2.2,2.1,4.4,4.2,6.5,6.5
					c1.8,1.9,3.4,4,5.1,6c0.9,1.1,1.9,2,2.8,3.1c1.3,1.5,2.4,3.1,3.7,4.6c1.3,1.6,2.8,3.2,4.1,4.9c1,1.3,1.7,2.7,2.6,4
					c1.8,2.7,3.8,5.3,5.6,8.1C157.2,297.7,159.2,301.5,161.6,305.1z M189,244.9c0.1-0.8,0.2-1.7,0.1-2.5c-0.2-1.9,0.5-3.6,1.1-5.3
					c1.3-3.9,3.3-7.4,5.3-10.9c0.1-0.3,0.2-0.6,0.3-0.8c0.2,0.1,0.4,0.3,0.5,0.4c-2.4,8.8-4.9,17.5-7.3,26.3c-0.2,0-0.3-0.1-0.5-0.1
					C188.6,249.6,188.8,247.3,189,244.9z M151.7,229.6c3-1.1,6.1-1.2,9.2-0.5c0.8,0.2,1.6,0.1,2.5,0.3c0.3,0.1,0.9,0.2,0.9,0.5
					c0.8,3,1.2,6.1,0.7,9.2c-0.2,0.8-0.8,2,0.8,2.8c0.2-0.5,0.6-1,0.7-1.6c0.2-1.6,0.2-3.2,0.3-4.7c0-0.6,0.2-1.2,0.2-1.8
					c0-1.2,0-2.5,0-3.7c0-0.9,0.2-1.4,1.3-1.7c1.9-0.5,3.6-0.1,5.3,0.6c1.8,0.8,3.7,1.5,5.4,2.4c2.5,1.2,2.7,3.8,0.4,5.2
					c-1.6,1-3.5,1.7-5.1,2.7c-2.3,1.5-4.2,3.5-5.7,5.9c-0.7,1.2-1.8,2.2-2.8,3.1c-0.3,0.3-1.3,0.1-1.7-0.2c-1-1-1.9-2-2.6-3.2
					c-1.1-1.9-2.8-3.3-4.5-4.6c-0.4-0.3-1.1-0.3-1.6-0.4c-1.1-0.2-1.6-1-1.9-2c-0.5-1.8-1.2-3.5-2.8-4.7
					C149.8,232.2,150.6,230,151.7,229.6z M160.8,254.4c1.2-0.9,1.9-2.7,4.1-2.8c-1.6,1.8-2.9,3.3-4.3,4.8l-0.3-0.1
					C160.4,255.7,160.4,254.7,160.8,254.4z M160.2,249.5c0,0-0.8,0.1-0.8,0c-0.8-1.7-1.6-3.4-2.3-5.1c0.2-0.1,0.3-0.2,0.5-0.3
					c0.6,0.6,1.2,1.2,1.7,1.8c0.4,0.5,0.8,1.1,1,1.7C160.4,248.2,160.3,248.9,160.2,249.5z M160.7,253.4c0.5-3.4,0.5-3.4,2.8-2.9
					C162.6,251.4,161.7,252.3,160.7,253.4z M156.5,246c-0.7-1.2-1.3-2.2-1.9-3.2C156.7,243,156.9,243.3,156.5,246z M129.8,197.7
					c-0.1,0-0.2,0-0.3,0.1c-0.5-1.2-1-2.4-1.5-3.7h1.8V197.7z M126.6,190.8c-0.2-0.8-0.4-1.6-0.6-2.1c1.1,0.7,2.4,1.5,3.6,2.5
					c0.4,0.3,0.3,1.1,0.5,1.7C127.8,193,127,192.5,126.6,190.8z M130.3,190.1c-1.5-0.4-2.6-1.3-3.4-2.7c-0.4,0.2-0.7,0.4-1.4,0.8
					c-0.6-3.4-1.2-6.7-1.8-10c2.3,2.8,4.4,5.4,6.5,8l-0.3,0.3c-0.9-0.7-1.9-1.3-2.6-2.2c-0.8-0.8-1.4-1.9-2.1-2.8l-0.4,0.2
					c0.1,0.3,0,0.8,0.2,1c1,1.4,2,2.8,3.1,4.1c0.3,0.4,1.4,0.1,2.4,0.1C130.5,187.8,130.4,188.8,130.3,190.1z M131.2,185.1
					c-0.5-1.5-1-2.6-1.2-3.8c-0.1-0.3,0.7-0.8,1.1-1.1c0.9-0.7,1.3-2.1,0.9-2.9c-0.7,0.9-1.3,1.8-2.2,3c-0.4-1.4-1.1-2.2-0.1-3.4
					c0.6-0.6,0.8-1.6,1.3-2.5c-1.6-0.1-1,1.7-2,2c-1.7-3.7-1.5-8-3.7-11.5c-0.1-0.1-0.4-0.1-0.9-0.2c0.8,3.5,1.5,6.9,2.3,10.5
					c-0.6-0.3-1-0.5-1.5-0.8c0.3,1.2,0.5,2.3,2,2.1c0.6,2,1.1,3.9,1.6,5.9c-0.1,0.1-0.3,0.1-0.4,0.2c-1-1.3-1.9-2.6-2.9-3.8
					c-0.4-0.5-1.1-0.8-1.5-1.3c-0.3-0.3-0.6-0.8-0.6-1.3c-0.2-2.8-0.5-5.6-0.5-8.4c0-2,0.3-4.1,0.5-6.1c0.1-0.5,0.7-1.4,1.1-1.3
					c0.6,0.1,1.3,0.5,1.8,1c1.9,1.7,2.1,4.2,2.9,6.4c0.7,1.8,1.6,3.5,2.5,5.2c0.6,1.1,1.3,2.1,1.8,3.2c0.2,0.4,0,1.1-0.1,1.6
					C132.9,180.2,132.1,182.5,131.2,185.1z M136.9,228.6c-0.5-0.4-0.9-0.8-1.4-1.1c-1.7-0.9-3.3-1.8-5-2.7c-1.6-0.9-3.1-1.9-4.8-2.7
					c-1.2-0.5-2.6-0.8-4-1c-3.9-0.6-7.9-1.1-11.9-1.6c-2.3-0.3-4.7-0.4-7-0.9c-1.8-0.4-3.6-1.3-5.3-2c-3.5-1.4-7-2.9-10.5-4.3
					c-2.7-1-5.5-1.8-8.3-2.7c-2-0.6-4-1.3-6-1.8c-1.6-0.4-3.3-0.4-4.8-0.9c-1.9-0.6-3.7-1.4-5.4-2.4c-2.2-1.4-4.3-3-6.3-4.8
					c-3.1-2.8-7.1-3.9-10.4-6.3c-0.6-0.4-1.1-1.3-1.2-2.1c0-0.4,0.8-1.1,1.4-1.3c1.6-0.8,3.3-1,5.2-0.6c2.3,0.5,4.6-0.3,6.6-1.3
					c3.2-1.5,6.5-2.5,10.1-2.7c1.3-0.1,2.6-0.4,3.9-0.5c0.6-0.1,1.3,0.1,2,0.1c1.8,0.1,3.6,0.2,5.4,0.4c2,0.2,4,0.6,6,0.6
					c2.1,0,4,0.6,6,1.2c3,1,6.2,1.8,8.8,3.6c2.3,1.6,4.4,3.7,6.6,5.4c1.6,1.2,3.3,2.2,4.9,3.4c2.1,1.5,4.2,3,6.3,4.5
					c0.2,0.1,0.3,0.3,0.5,0.4c4,1.8,7.2,4.7,10.3,7.5c2.2,1.9,3.8,4.5,5.7,6.7c0.5,0.6,1,1.1,1.5,1.6c-0.1,0.1-0.1,0.2-0.2,0.3
					c-0.4-0.2-0.8-0.4-1.2-0.6c-2.2-1.6-4.4-3.2-6.5-5c-1.3-1-2.3-2.4-3.6-3.4c-1.3-1-2.7-1.9-4-2.8c-0.8-0.5-1.6-1.1-2.4-1.6
					c-0.1-0.1-0.3-0.2-0.3-0.3c-0.5-1.5-0.6-1.6-2.2-2.2c0.4,0.6,0.7,1.1,1.2,1.9c-0.9-0.3-1.7-0.4-2.3-0.6
					c-1.4-0.5-2.8-1.1-4.1-1.8c-0.6-0.3-0.9-1.2-1.5-1.7c-2.2-2-4.4-3.9-6.6-5.8c-0.9-0.8-1.8-1.5-2.8-2.3c-0.2-0.2-0.6-0.1-0.8-0.2
					c0.1,0.3,0.1,0.6,0.2,0.8c3.2,2.9,6.4,5.7,9.9,8.7c-1.7-0.5-3.1-0.8-4.4-1.5c-0.6-0.3-0.8-1.2-1.3-1.7c-3-3.4-6.1-6.8-10.1-9.3
					c-1.4-0.8-2.6-1.9-3.9-2.8c-0.2-0.2-0.6-0.3-0.9-0.4c-0.1,0.1-0.2,0.2-0.2,0.3c0.7,0.7,1.4,1.6,2.2,2.2c3.2,2.6,6.7,4.7,9.3,8
					c0.8,1,2,1.8,3,2.7c-0.1,0.1-0.1,0.2-0.2,0.3c-0.4-0.1-0.9,0-1.3-0.2c-3.1-1.2-6.3-1.7-9.6-2.3c-2.7-0.5-5.4-0.6-8-1.3
					c-3.1-0.7-6.2-1.2-9.5-1.2c-3.1,0-6.3-0.8-9.4-1.6c-2.5-0.6-4.9-1.6-7.3-2.6c-1-0.4-1.8-1.3-2.7-2c-0.2,1.2,0.9,3.2,2.4,3.7
					c2.6,0.8,5,2.1,7.6,3c2.9,1,5.8,1.2,8.6,1.5c3.4,0.4,6.7,1.4,10,2c3.5,0.6,7.1,0.9,10.6,1.4c0.7,0.1,1.5,0.2,2.2,0.4
					c2.8,0.8,5.7,1.7,8.5,2.5c1.7,0.5,3.3,1,5.3,1.6c-3.4,2-7.4,1.8-10.2,4.8c3.1-1.1,6.1-2.1,9-3.2c2.5-0.9,4.7-0.8,6.7,1
					c-3.7,1.6-7.4,3.2-11.1,4.8c0.1,0.2,0.1,0.4,0.2,0.6c0.9-0.3,1.7-0.4,2.6-0.8c3.1-1.3,6.2-2.6,9.3-3.8c0.6-0.2,1.5,0.2,2.2,0.5
					c1,0.5,1.8,1.1,2.8,1.8c-0.1,0.1-0.2,0.4-0.4,0.4c-3.1,1-6.3,1.8-9.4,2.9c-1.1,0.4-2.1,1.4-2.9,2.3c1.6-0.7,3.2-1.5,4.8-2.1
					c0.8-0.3,1.7-0.3,2.5-0.5c1.6-0.5,3.3-0.9,4.8-1.6c1.5-0.8,2.4-0.1,3.4,0.7c2.2,1.8,4.5,3.5,6.7,5.3c0.8,0.6,1.5,1.4,2.1,2.2
					c1.4,1.8,2.8,3.7,4.3,5.5C136.9,227.8,137,228.1,136.9,228.6z M141.1,228.1c-0.8-2.2-1.5-4.3-2.4-6.4c-1.3-2.9-1.5-6.2-3.2-9.1
					c-0.8-1.4-1.1-3.1-1.5-4.7c-1-3.5-1.5-7.2-1.3-10.8c0.1-3.1,0.7-6.2,1.3-9.2c0.8-4.1,1.8-8.1,2.9-12.2c0.6-2.1,1.4-4.2,2.1-6.3
					c0.2-0.7,0.7-0.8,1.2-0.3c0.4,0.5,0.8,1,0.9,1.6c0.4,1.6,0.8,3.2,1,4.8c0.2,1.2,0,2.5,0.1,3.7c0.2,5.2,0.6,10.3,1.8,15.3
					c0.5,2.1,1,4.2,1.4,6.3c0.1,0.3,0,0.6,0,1l0,0c0.3,1,0.8,2,1,3c0.5,3.4,0.6,6.7-0.5,10c-0.3,0.7-0.7,1.4-1,2.1
					c-0.4,1.1-0.8,2.1-1.3,3.5c-0.2-1.9-0.3-3.5-0.5-5.1c-0.4-3.2-0.9-6.5-1.4-9.7c-0.4-2.7-0.9-5.4-1.3-8.1
					c-0.4-2.2-0.7-4.4-1.1-6.6c0-0.2-0.2-0.4-0.1-0.6c0.1-1.5,0.2-3,0.3-4.5c0.1-2.1-0.5-4.2,0.1-6.3c0.2-0.6-0.2-1.4-0.2-2.1
					c-0.1-1.2-0.1-2.4-0.2-3.8c-0.3,0.2-0.8,0.4-0.8,0.6c-0.3,2.1-0.8,4.1-0.4,6.3c0.4,2.2,0.1,4.5,0.1,6.8c0,0.8-0.1,1.7,0,2.5
					c0.3,2.8,0.5,5.7,0.9,8.5c0.6,4,1.3,8,2,12.1c0.1,0.6,0.1,1.3-0.1,2.2c-0.8-0.8-1.5-1.5-2.3-2.3c-0.5-0.5-1-1-1.5-1.5
					c0,0-0.3,0.2-0.3,0.2c0.3,0.6,0.6,1.1,1.1,1.6c0.9,1.1,1.9,2,2.7,3.2c0.4,0.6,0.6,1.4,0.8,2.1c0.1,0.6,0,1.3,0,2.3
					c-1.1-1-2-1.9-3-2.8l-0.3,0.2c0.6,1,1.3,2.1,1.9,3.1c0.5,0.8,1.5,1.4,1.7,2.3C142.2,223.5,142.4,225.9,141.1,228.1z
					 M156.9,259.2c-3.3-6.9-5.2-14.5-11-19.9c4.5,6.8,7.5,14.2,10.6,22.1c-0.3,2.4-0.6,5.3-1,8.3c-3.1-4.9-6.2-9.7-9.3-14.5
					c0,0.4,0,0.9,0.1,1.3c1.2,3.2,3,6.2,4.9,9c1.7,2.5,3.6,4.9,4.3,7.9c0,0.2,0.1,0.3,0.1,0.5c0,1.8,0,3.7,0,5.5
					c-0.7-0.4-1.7-0.8-2.4-1.5c-1.7-1.7-3.4-3.5-5-5.2c-0.8-0.8-1.6-1.6-2.4-2.4c-2.9-2.7-4.8-6.2-6.4-9.8c-0.9-1.9-0.3-3.8-1-5.7
					c-0.4-1.1-0.8-2.1-1-3.3c-0.1-1,0.1-2,0.1-3c0-0.7-0.1-1.4,0.1-2c1-3.7,3.2-6.7,5.6-9.5c0.6-0.8,1.3-1.5,1.8-2.4
					c0.9-1.4,3.3-1.2,4.7,0.3c1.4,1.5,1.6,3.4,2.5,5.1c0.3,0.6,0.4,1.3,0.7,2.2c-1.9-2.2-3.6-4.2-5.4-6.3c-0.2,0.1-0.3,0.2-0.5,0.3
					c0.5,1,0.8,2.1,1.5,2.8c3.3,3.5,5.4,7.8,6.9,12.4c0.6,1.9,1.3,3.8,1.9,5.8C157.4,257.9,157.1,258.6,156.9,259.2z M157.7,255.3
					l-2.4-7.5c0.1,0,0.2-0.1,0.3-0.1c0.3,0.8,0.7,1.5,1,2.3c0.5,1.1,1.1,2.2,1.5,3.4c0.2,0.6,0.1,1.3,0.1,1.9
					C158.1,255.2,157.9,255.3,157.7,255.3z M162.6,277.5c-0.1,0.6,0,1.3-0.1,2c0,0.3-0.4,0.5-0.6,0.7c-0.2-0.2-0.4-0.4-0.6-0.5
					c-1.6-1.3-1.3-3.3-1.6-5.1c-0.4-2.1-0.5-4.2-0.6-6.3c-0.1-2.9-0.3-5.9,0.7-8.6c0.4-1.2,1.4-2.3,2.2-3.4c0.8-1,1.7-1.8,2.6-2.6
					c1.3-1.2,2.6-2.2,3.9-3.4c1.2-1.2,2.3-2.4,3.4-3.7c-0.1-0.1-0.1-0.2-0.2-0.3c-0.6,0.3-1.2,0.5-1.8,0.8c0.6-2.4,4.2-5.8,7.1-6.3
					c-1.4,2.3-2.8,4.4-4.1,6.5c-1.1,1.7-2.7,3.1-3,5.2c0,0.3-0.5,0.4-0.7,0.7c-3.1,2.7-6.1,5.6-8.5,9c-0.1,0.1-0.1,0.2-0.1,0.3
					c2.6-2.3,5.1-4.7,7.7-7c0.1,0,0.2,0.1,0.3,0.1c-0.7,2.1-1.5,4.3-2.2,6.4c-1.5-0.4-4.5,2.4-5.2,5.1c1.6-1.5,3-2.7,4.6-4.2
					c0,0.7,0.1,1.2,0,1.5c-0.4,1.9-0.9,3.8-1.4,5.8C163.7,272.6,163.1,275,162.6,277.5z M182.3,239.4c-0.3,0.8-0.9,1.5-0.9,2.2
					c0,2.7,0.2,5.4,0.2,8.1c0,1.7-0.2,3.4-0.2,5.1c0,2.4,0.1,4.8,0.3,7.3c0.3,4,0.3,8-0.2,12c-0.3,2.7,0,5.6-0.1,8.4
					c-0.1,2.8-0.4,5.5-0.5,8.3c-0.1,1.4,0,2.9,0,4.3c-0.1,2.9-0.4,5.8-0.5,8.7c0,1.1,0.2,2.2,0.2,3.3c0,0.9-0.1,1.7-0.1,2.6
					c-0.2,3.3-0.4,6.6-0.6,9.9c0,0.7,0.2,1.5,0.2,2.2c0,1.6,0,3.3,0,4.9l-0.4,0.1c-0.4-0.6-0.8-1.1-1.1-1.7c-1.3-3.5-2.5-7-3.8-10.5
					c-1.4-3.9-2.9-7.7-4.4-11.6c-1.1-3-2.2-6-3.2-9.1c-0.9-2.9-1.6-5.9-2.4-8.8c-0.1-0.5-0.2-0.9-0.4-1.4c-0.5-0.9-0.5-1.7,0.2-2.6
					c0.9-1.1,1.3-2.3,1.3-3.8c0.1-2.3,0.6-4.6,0.8-6.8c0.6-4.7,2.6-8.9,3.9-13.4c0.8-2.7,2.1-5.1,3.7-7.3c0.8-1.2,1.3-2.6,1.9-3.9
					c0.2-0.3,0.3-0.6,0.5-0.9c1.7-2,3.4-4.1,5-6.1c0.3-0.3,0.6-0.5,0.9-0.8C182.5,238.5,182.4,239,182.3,239.4z M183.5,228.4
					c-1.3,1.5-1.4,1.5-3.1,0.4c-0.3-0.2-0.7-0.4-1.1-0.6c0.6-0.6,1-1.1,1.5-1.6c0-0.1-0.1-0.2-0.1-0.2c-0.7,0.3-1.5,0.7-2.2,0.8
					c-0.7,0.1-1.5-0.1-2.3-0.2c0-0.2,0-0.4,0-0.6c3.5-1,7.1-2,10.6-3l0.1,0.3C185.7,225.2,184.7,226.9,183.5,228.4z M187.3,222.4
					c-2.7,0.6-5.4,1.2-8.1,1.9c-1.5,0.4-3,0.9-4.8,1.1c0.4-0.4,0.6-1.1,1.1-1.3c2-0.8,4.1-1.4,6.2-2.2c0.7-0.3,1.4-0.8,2.1-1.2
					c-0.1-0.2-0.1-0.3-0.2-0.5c-2.8,1-5.6,2-8.6,3c0.3-1,0.5-2,0.9-2.8c1.6-3.1,3.2-6.2,5-9.2c0.5-0.9,1.8-1.4,2.7-2
					c1.2-0.7,2.4-1.3,3.6-2c-0.6-0.7-1.3-0.5-2.7,0.5c-0.8,0.6-1.7,1.1-2.7,1.5c0.5-0.8,1-1.6,1.5-2.4c0.8-1.2,1.6-2.4,2.3-3.6
					c0.9-1.7,1.6-3.5,2.5-5.1c0.9-1.6,2.1-3,3.2-4.5c0.8-1.1,1.5-2.1,2.2-3.2c1-1.6,1.9-3.3,2.9-4.9c0.5-0.7,1.1-1.3,1.6-2
					c1-1.3,1.7-2.8,2.9-4c1.3-1.4,2.9-2.5,4.5-3.7c2.1-1.6,4.2-3,6.3-4.6c0.3-0.2,0.4-0.6,0.7-0.9c-0.1-0.1-0.2-0.3-0.3-0.4
					c-3.1,2.3-6.2,4.7-9.3,7c-0.1-0.1-0.1-0.1-0.2-0.2c0.6-0.7,1.2-1.3,1.7-2c0.6-0.8,1.4-1.6,1.8-2.6c0.9-2.1,3-2.9,4.5-4.4
					c1.8-1.8,3.5-3.7,5.3-5.5c1-1,2.2-2,3.2-3c0.3-0.3,0.5-0.9,0.7-1.3c-0.5,0.1-1.1,0.1-1.5,0.4c-1,0.7-1.9,1.6-2.8,2.5
					c-1.3,1.2-2.5,2.6-3.8,3.8c-1.4,1.4-3,2.6-4.2,4c-2,2.3-3.8,4.8-5.8,7.2c-0.8,1-1.6,1.9-2.4,2.8c-0.1,0-0.2,0-0.2,0
					c0.6-2,1.2-4,1.8-5.9c-0.1,0-0.2-0.1-0.2-0.1c-0.2,0.2-0.4,0.4-0.5,0.7c-0.6,1.6-1.5,3.1-1.6,4.7c-0.1,3.1-2.4,4.9-3.8,7.3
					c-0.4,0.7-0.9,1.5-1.3,2.2l-0.4-0.1c0.3-1.5,0.6-3,0.8-4.5c-0.1,0-0.3-0.1-0.4-0.1c-0.3,0.6-0.6,1.3-0.8,1.9
					c-0.3,1.4-0.4,2.7-0.6,4.1c-0.1,0.4-0.1,0.8-0.3,1.1c-1.6,2.5-3.2,4.9-4.8,7.4c-0.1,0-0.2-0.1-0.3-0.1c0.7-2.7,1.4-5.3,2.1-8
					c-0.2-0.1-0.4-0.1-0.6-0.2l-2.5,8.5c-0.1,0-0.3,0-0.4-0.1c0.1-1,0.2-2,0.3-2.9c0-0.4-0.1-0.7-0.2-1.1c-0.2,0.3-0.6,0.6-0.7,0.9
					c-0.3,2.1-0.7,4.2-0.8,6.3c-0.1,1.5-0.8,2.7-1.5,3.9c-0.9,1.6-1.8,3.3-2.8,4.9c-0.2,0.3-0.5,0.7-0.8,1.1c0-2.1,0-3.8,0-5.5
					c0-2.3,0-4.6,0-6.9c0-0.3-0.3-0.5-0.5-0.8c-0.2,0.3-0.5,0.5-0.5,0.8c0,2,0.1,4-0.1,6c-0.1,2.1-0.6,4.1-0.7,6.2
					c0,0.7,0.4,1.3,0.7,2.2c-1.1,2.2-2.4,4.7-3.6,7.2c-0.1,0-0.2,0-0.3-0.1c-0.3-3-0.6-6-0.8-9c-0.1,0-0.3,0-0.4,0c0,1,0,1.9,0,2.9
					c0.1,1.5,0.2,3.1,0.3,4.6c0.1,0.7,0.1,1.5,0.3,2.2c0.4,1.9-0.7,3.2-1.7,4.9c-0.2-1.1-0.3-1.9-0.4-2.8c-0.2,0-0.4,0.1-0.5,0.1
					c0.1,0.9,0.2,1.8,0.2,2.7c-0.6,0.1-1.2,0.2-1.9,0.4c-0.2-0.5-0.4-1.1-0.5-1.6c-0.1,0.6-0.1,1.7-0.4,1.8
					c-1.1,0.4-2.3,0.5-3.4,0.5c-0.3,0-0.9-1-0.7-1.4c0.9-2.6,2-5.1,3-7.7c0.9-2.2,1.7-4.4,2.8-6.5c0.6-1.2,0.7-2.9,2.3-3.6
					c0.2-0.1,0.2-0.3,0.3-0.5c1-1.8,1.9-3.7,2.9-5.5c0.7-1.3,1.5-2.6,2.2-3.9c1.6-2.7,3.1-5.3,4.8-8c0.4-0.7,1.2-1.1,1.7-1.7
					c1.4-1.6,2.7-3.4,4.1-5c1.3-1.5,2.7-2.8,4.1-4.2c1.4-1.5,2.7-3.1,4.2-4.5c1.6-1.6,2.8-3.6,4.9-4.6c1-0.4,1.6-1.5,2.5-2.3
					c1.7-1.7,3.4-3.4,5.3-4.9c1.4-1.2,3-2.3,4.6-3.1c1.5-0.7,3.2-0.9,4.8-1.4c1-0.3,2-0.8,3-1.2c1.8-0.6,3.5-1.2,5.3-1.9
					c0.7-0.3,1.3-0.9,1.9-1.3l0.3,0.2c-0.4,0.9-0.7,1.8-1.2,2.5c-1.2,1.8-2.3,3.6-3.7,5.2c-1.9,2.3-4,4.5-6,6.8
					c-2.4,2.8-4.9,5.6-7.2,8.6c-1.1,1.5-1.6,3.4-2.5,5c-2.9,4.9-5,10.2-7.1,15.5c-1.3,3.3-2.8,6.6-4.4,9.8
					c-1.8,3.6-3.7,7.1-5.6,10.6c-0.8,1.5-1.8,3-2.7,4.5C188,222.2,187.6,222.3,187.3,222.4z M188.3,260.4c-0.1-1.6-0.5-2.8-0.2-3.9
					c0.2-0.9,1-1.9,1.8-2.3c2.6-1.4,5.4-2.6,8.1-3.8c0.1-0.1,0.3,0,0.9,0C195.2,253.8,191.8,257.1,188.3,260.4z M287.7,180.5
					c-2.8,2.9-6.3,4.3-9.9,5.9c-2.4,1.1-4.7,2.6-7.1,3.9c-1.7,0.9-3.4,1.6-5.1,2.5c-1.1,0.6-2,1.3-3.1,1.9c-3.2,1.8-6.4,3.5-9.6,5.4
					c-2.1,1.3-4.1,2.8-6.2,4.3c-2.6,1.8-5.1,3.6-7.7,5.4c-2,1.4-4.1,2.8-5.9,4.5c-3.5,3.2-6.9,6.5-10.2,9.9
					c-1.9,1.9-3.6,3.9-5.4,5.9c-1.8,2.1-3.6,4.1-5.4,6.2c-1.2,1.5-2.4,3-3.7,4.4c-1.5,1.6-3.1,3.1-4.7,4.7c-1.5,1.5-3.1,3-4.9,4.9
					c0.3-1.9-0.6-1.4-1.2-1.1c-2,0.9-3.9,1.8-5.9,2.7c-0.1,0.1-0.3,0.1-0.8,0.2c1.6-2,2.9-3.8,4.3-5.5c2.1-2.4,4.3-4.6,6.3-7
					c1-1.2,1.8-2.7,2.7-4c1-1.4,2-2.7,3-4.1c1.2-1.7,2.4-3.5,3.6-5.2c1.6-2.3,3.1-4.7,4.9-7c1.6-2.1,3.3-4.3,5.4-6
					c3.2-2.6,5.8-5.9,9-8.5c2.4-1.9,4.6-4,7-5.8c3-2.3,6-4.8,9.2-6.7c1.8-1.1,3.6-2.6,6-2.4c0.3,0,0.6,0.3,0.8,0.7
					c5.1,0,9.9-1.6,14.6-3.7c-5.2,0.7-10.2,2.7-15.5,2.5c-0.1-0.1-0.1-0.2-0.2-0.4c1.8-0.9,3.6-1.9,5.5-2.8c1.6-0.8,3.3-1.5,5-2.2
					c0.4-0.2,0.8-0.2,1.3-0.2c3.3-0.1,6.5-0.2,9.8-0.3c1,0,1.8-0.5,2.3-1.3c-2.9,0.1-5.7,0.3-8.6,0.4c0-0.1,0-0.3-0.1-0.4
					c4.7-2,9.7-2.8,14.7-3.7c0-0.1,0-0.2,0-0.4c-1.3,0.1-2.6,0.2-3.9,0.4c-2.4,0.4-4.9,0.8-7.3,1.3c-0.8,0.2-1.7,0.4-2.5,0.6
					c-2.4,0.8-4.9,1.4-7.2,2.3c-2.7,1.1-5.2,2.3-7.8,3.6c-2.2,1-4.3,2.1-6.4,3.3c-2,1.2-4,2.4-5.9,3.8c-2.2,1.6-4.4,3.3-6.5,4.9
					c-0.3,0.2-0.6,0.3-0.8,0.5c-0.1-0.1-0.2-0.1-0.3-0.2c2.1-3.5,4.1-7.1,6.2-10.6c-0.2-0.1-0.3-0.2-0.5-0.3c-0.7,0.9-1.5,1.7-2,2.7
					c-1.4,2.6-2.8,5.3-4.1,8c-0.7,1.5-2,2.5-3.2,3.6c-1.3,1.3-2.5,2.6-3.8,3.8c-1,0.9-2.1,1.7-3.1,2.7c-1.4,1.4-2.8,2.8-4.1,4.2
					c-1,1.1-2,2.2-3.1,3.3c-0.1-0.1-0.2-0.1-0.3-0.2c0.6-1.4,1.3-2.8,1.9-4.2c-0.2-0.1-0.4-0.2-0.5-0.3c-0.3,0.5-0.7,0.9-0.9,1.4
					c-0.7,3-2.4,5.4-4.3,7.7c-1,1.3-2,2.6-2.9,4c-0.6,1-1.1,2-1.7,3c-0.2,0.3-0.5,0.6-0.8,1c0.2-0.9,0.4-1.6,0.5-2.3
					c-0.4,0.4-0.9,0.7-1.1,1.2c-1.3,2.7-2.3,5.5-3.8,8.1c-1.1,1.9-2.7,3.6-4,5.4c-0.4,0.6-0.9,1.1-1.6,1.6c0.2-0.7,0.4-1.5,0.7-2.2
					c0.6-1.4,1.3-2.7,1.9-4c0.3-0.8,0.5-1.7,0.9-2.4c1.8-3.3,3.1-6.9,4.2-10.5c0.1-0.4,0.1-0.8,0.1-1.3l-0.4-0.1
					c-0.5,1.1-0.9,2.2-1.4,3.3c-1.9,4.6-3.9,9.3-5.8,13.9c-0.8,2-1.3,4.1-2.2,6c-0.4,0.9-1.3,1.6-2,2.4c-0.3,0.3-0.6,0.5-1.1,1
					c0-0.7,0-1.2,0.1-1.6c0.6-2.3,1.3-4.6,2-6.9c1-3.6,2.2-7.1,3.1-10.8c0.5-2.1,1.7-4.1,1.4-6.5c-0.1-0.9,0.9-2,1.7-2.8
					c0.9-0.9,1.7-1.6,2.2-2.9c0.3-0.9,1.3-1.5,2-2.2c0.9-1,1.7-2,2.5-2.9c0.4-0.4,0.8-0.9,1.2-1.2c1.9-1.2,3.8-2.2,5.7-3.4
					c2.1-1.4,4.4-2.4,5.8-4.7c0.2-0.3,0.3-0.5,0.4-0.8c0.2-2.3,1.8-3.6,3.3-5c1.3-1.1,2.4-2.3,3.6-3.4c1.2-1.2,2.4-2.4,3.7-3.4
					c1.7-1.3,3.4-2.6,5.1-3.8c1.2-0.8,2.5-1.3,3.8-1.9c1.4-0.6,2.7-1.4,4.1-1.8c2.5-0.7,5.1-1.1,7.7-1.6c1.3-0.2,2.6-0.5,3.8-0.6
					c0.5-0.1,1.1,0,1.6,0c0.6,0,1.2-0.1,1.8-0.2c0.4-0.1,0.8-0.2,1.3-0.2c2.5-0.1,5,0,7.5-0.3c1.6-0.2,3.2-0.9,4.8-1.3
					c1-0.2,2-0.4,3-0.5c2.4-0.1,4.7-0.2,7.1-0.3c0.6,0,1.4,0.9,1.4-0.4c1,0.3,1.9,0.6,2.7,0.9c0.6,0.2,1.3,0.5,1.8,0.9
					C288.3,179.2,288.5,179.6,287.7,180.5z"/>
				<path class="st1" d="M117.1,261.9c-0.4-0.1-0.9-0.1-1.2-0.4c-5.8-4.5-12.5-7.2-18.7-10.9c-0.2-0.1-0.4-0.5-0.4-0.8
					C104,253.1,111,256.7,117.1,261.9z"/>
				<path class="st1" d="M145.3,296.9c-2.6,0.5-14.1-4.2-15.3-6.3C134.8,293.4,140.5,293.9,145.3,296.9z"/>
				<path class="st1" d="M100.9,258.7c4.1,2.1,8.6,3.4,12.1,6.7C109.1,263,104.4,261.9,100.9,258.7z"/>
				<path class="st1" d="M137.2,288.4c-3.7-0.4-10.1-2.6-11.4-5.1c3.6,1.5,7.6,3.1,11.5,4.7C137.2,288.2,137.2,288.3,137.2,288.4z"
					/>
				<path class="st1" d="M153.7,306.8c-5-2.4-10.1-4.9-15.4-7.4C141.8,299.7,152.4,304.9,153.7,306.8z"/>
				<path class="st1" d="M159.4,308.7c-0.6-1.5-1.3-2.9-1.9-4.5c-0.7-2-1.4-4-2-6c0.2-0.1,0.4-0.1,0.5-0.2c0.2,0.7,0.4,1.5,0.7,2.2
					c0.6,1.4,1.3,2.8,2,4.2c0.5,1.1,1,2.2,1.4,3.3C160.3,308.4,160.1,308.8,159.4,308.7C159.3,308.6,159.4,308.7,159.4,308.7z"/>
				<path class="st1" d="M103.1,248.1c0.9,0.5,1.8,1.1,2.6,1.6c-0.1,0.2-0.2,0.3-0.3,0.5c-0.9-0.5-1.8-1.1-2.6-1.6
					C102.9,248.4,103,248.2,103.1,248.1z"/>
				<path class="st1" d="M224.7,205.4c3-7.2,7.4-13.6,11.9-20c0.1,0.1,0.3,0.1,0.4,0.2c-0.1,0.3-0.1,0.6-0.3,0.9
					c-1.2,2.1-2.1,4.5-3.7,6.1c-1.5,1.5-2.6,3.3-3.5,5c-0.9,1.6-2.5,2.9-2.7,4.9c-0.1,0.8-0.6,1.7-1,2.4c-0.2,0.3-0.6,0.4-0.9,0.6
					C224.9,205.6,224.8,205.5,224.7,205.4z"/>
				<path class="st1" d="M253.7,195.4c-1.7,1.7-9.6,3.2-12.5,2c0.8-0.3,1.3-0.6,1.8-0.7c2.7-0.4,5.4-0.7,8.1-1.1
					c0.9-0.1,1.7-0.4,2.5-0.6C253.7,195.1,253.7,195.3,253.7,195.4z"/>
				<path class="st1" d="M206.9,226c0.1-0.6,0.1-1.3,0.4-1.8c1.5-3.2,3-6.4,4.5-9.6c0.5-1,1-2.1,1.5-3.1c0.1-0.3,0.1-0.6,0.2-0.9
					c0.2,0.2,0.4,0.4,0.7,0.6c-0.5,1.2-0.8,2.5-1.4,3.6c-1.7,3-3.1,6.2-4.4,9.4C208,224.8,207.4,225.4,206.9,226
					C206.9,226,206.9,226,206.9,226z"/>
				<path class="st1" d="M206,242.2c-1.1,1.3-1.6,2.6-3.4,2.9c-1.2,0.2-2.3,1.1-3.4,1.6c-0.3,0.1-0.7,0.2-1,0.1
					c-0.2,0-0.5-0.3-0.6-0.6c0-0.1,0.2-0.5,0.4-0.5c2.8-0.5,5-2,7.3-3.6C205.4,242,205.5,242.1,206,242.2z"/>
				<path class="st1" d="M210.7,235.5c-1.7,2.1-5.1,3.6-7,3.2c0.5-0.4,0.8-0.9,1.2-1C206.8,237.1,208.4,235.7,210.7,235.5z"/>
				<path class="st1" d="M239,204.8c-0.7,0.7-6.2,1.5-7.1,1.1C232.8,204.6,235.2,204.2,239,204.8z"/>
				<path class="st1" d="M238.2,193c1.4-2,2.8-3.9,4.2-6c0.5,1-2.3,5.3-3.9,6.2C238.4,193.1,238.3,193.1,238.2,193z"/>
				<path class="st1" d="M222.4,214.7c1.5-0.6,2.9-1.2,4.4-1.7c-0.5,1.4-3,2.4-4.3,2.1C222.5,215,222.5,214.9,222.4,214.7z"/>
				<path class="st1" d="M92.6,198.2c-1.5,0.2-7.9-5.2-8.3-6.9C87.3,193.8,89.9,196,92.6,198.2z"/>
				<path class="st1" d="M114.1,205.6c-2.2-1.1-3.8-2.8-5.4-4.8C110.8,201.2,114,204.2,114.1,205.6z"/>
				<path class="st1" d="M75.8,202.9c-1,1.3-5,1.2-6.9-0.3C71.2,202.7,73.4,202.8,75.8,202.9z"/>
				<path class="st1" d="M84.1,195.6c-0.8-0.2-1.6-0.2-2.4-0.5c-0.8-0.3-1.4-0.9-2.1-1.5c-0.1-0.1-0.1-0.5,0-0.7
					c0-0.1,0.3-0.2,0.4-0.1c1.4,0.8,2.8,1.7,4.1,2.6C84.2,195.4,84.2,195.5,84.1,195.6z"/>
				<path class="st1" d="M99.9,207.3c-2.1,0.9-4.2,1.7-6.5,1.6C95.3,207.7,97.6,207.6,99.9,207.3z"/>
				<path class="st1" d="M83.4,204.1c-1.6,1.2-3.4,0.9-5.2,1.1C79.8,204,81.7,204.4,83.4,204.1z"/>
				<path class="st1" d="M123.8,216.8c-1.5,0.4-3,0.8-4.5,1.2C120.1,216.8,122,216.1,123.8,216.8z"/>
				<path class="st1" d="M200.9,187.1c-0.1,1.1-6.6,6.3-8.2,6.3c1.5-1.3,2.7-2.4,4-3.4C198,189,199.4,188.1,200.9,187.1z"/>
				<path class="st1" d="M184.1,216.7c-2.2,1.3-4.4,2.6-6.5,3.9c-0.1-1.2,4.2-4.2,6.3-4.3C183.9,216.5,184,216.6,184.1,216.7z"/>
				<path class="st1" d="M169.7,214.6c1.1,4.2,1.2,7.2,0.4,7.6C170,219.6,169.8,217.1,169.7,214.6z"/>
				<path class="st1" d="M200.2,185.3c1.3-0.8,2.7-1.5,4-2.3c0.1,0.2,0.2,0.3,0.3,0.5c-1.3,0.8-2.3,2.2-4.1,2.2
					C200.3,185.5,200.3,185.4,200.2,185.3z"/>
				<path class="st1" d="M211.4,168.6c1.4-0.6,2.9-1.2,4.3-1.9c0.1,0.1,0.1,0.2,0.2,0.3c-1.2,1.2-2.7,1.7-4.3,2
					C211.5,168.9,211.4,168.7,211.4,168.6z"/>
				<path class="st1" d="M153.6,273.9c-0.5-1.1-0.8-1.9-1.2-2.6c-0.4-0.9-0.7-1.9-1.3-2.7c-1.5-2-3.2-3.8-4.7-5.8
					c-1-1.3-1.8-2.8-2.7-4.3c0.1-0.1,0.3-0.2,0.4-0.3c0.8,1,1.7,2,2.5,3c1.4,1.6,2.9,3.2,4.1,4.9c0.9,1.4,1.5,3.1,2.2,4.6
					c0.3,0.7,0.6,1.4,0.9,2.2C154,273.1,153.8,273.3,153.6,273.9z"/>
				<path class="st1" d="M152.4,260.1c0.4-0.6,0.6-0.9,0.9-1.4c0.7,1.2,1.9,2.4,1.6,4.6C153.8,262,154,260.1,152.4,260.1z"/>
				<path class="st1" d="M145.3,201.8c-0.4,1.2-0.9,2.5-1.3,3.7c-0.6-1.1,0-3.4,0.7-3.8C144.8,201.6,145.1,201.8,145.3,201.8
					C145.4,201.8,145.3,201.8,145.3,201.8z"/>
				<path class="st1" d="M141.6,201.2c0.5-1.1,0.9-2.1,1.4-3.2c0.6,0.5,0,2.4-1,3.3C141.9,201.3,141.7,201.2,141.6,201.2z"/>
				<path class="st1" d="M145.2,206.2c0.2,1.5-0.2,2-1.5,2.1C144.3,207.5,144.7,206.8,145.2,206.2z"/>
				<path class="st1" d="M163.9,239.3c-0.3-2.4-0.6-4.6-0.8-6.8C164.2,233.5,164.9,238.3,163.9,239.3z"/>
				<path class="st1" d="M160.8,230.1c1.3,1.7,1.4,2.7,0.5,3.3C161.1,232.3,161,231.4,160.8,230.1z"/>
			</g>
		</g>
		<g>
			<g id="qSxGTY.tif_2_">
				<g>
					<path class="st1" d="M291.9,77.1c-1-1.4-2.4-1.9-4.1-1.5c0.1-0.1,0.2-0.2,0.4-0.2c1.1,0.1,1.8-0.3,1.8-1.6c0-0.5,0.2-1,0.4-1.5
						l-0.6-1.8c-0.6-0.7-1.3-1.4-1.7-2.2c-0.5-1-0.5-2.3-1.2-3c-1-1.1-1.9-2.5-3.7-2.4c-0.2,0-0.3-0.1-0.5-0.2c-1.2-1-2.8-1.2-4-0.4
						c-2.6,1.5-3.5,4.1-3.3,7.3c0,1-0.5,1.9-1.3,1.8c0-0.7-0.3-1.4,0-2c0.8-1.8-0.7-3.2-0.9-4.8c-0.1-0.7-0.4-1.5-0.8-2.1
						c-1.2-2-3.1-3.2-5.2-4.3c-2-1.1-4.1-0.5-5.9,0.2c-2.7,1.1-3.1,5.2-2.5,7.2c0.4,1.4,1.1,2.7,1.6,4c-1.2-0.1-2.3-0.4-3.3-0.3
						c-0.7,0-1.8,0.3-2,0.9c-0.8,1.7-1.4,3.6-1.9,5.5c-0.1,0.4,0.2,1,0.4,1.5c0.8,1.8,2.6,2,4.2,2.5c0.4,0.1,0.8,0.5,1.1,0.9
						c0.9,1.2,1.4,2.9,3.4,2.4c0.3-0.1,0.5-0.1,0.8-0.2c0.9-0.4,1.8-0.8,2.8-1.1c0.3-0.1,0.7,0.2,1,0.3c-0.2,0.2-0.5,0.5-0.7,0.5
						c-0.8,0.2-1.7,0.2-2.4,0.6c-0.7,0.4-1.9,0-2.2,1.1c-0.6,1.8-1,3.6-0.1,5.4c0.1,0.3,0.2,0.7,0.3,1c-0.4,0-0.7,0.1-1.1,0
						c-3.5-0.9-6.9,2.1-6.7,5.2c0.1,1.7-0.2,3.2-0.5,4.9c-0.4,2.2,0.8,4.5,2.7,5.1c1.5,0.5,3.2,0.7,4.8,1c0.4,0.1,0.9,0.3,1.3,0.5
						c0,0.2-0.1,0.4-0.1,0.5c-2,0.1-3.9,0.1-5.9,0.2c-0.3,0-0.7,0-1-0.1c-3.1-1.5-6.1-3-9.2-4.6c0.2-3.7-2.2-5.6-5.5-7.1
						c0.3-0.1,0.5-0.1,0.7-0.1c1.3,0,2.8,0.4,3.8-0.2c2.6-1.5,5.3-3,6.1-6.3c0.2-0.8,0.8-1.8,0.6-2.5c-0.3-0.9-1.1-1.7-1.8-2.5
						c-0.7-0.9-1.7-1.7-2.1-2.7c-0.6-2-2.1-3-3.8-3.7c-0.9-0.4-1.9-0.3-2.9-0.5c-1.9-0.4-3.2,0.7-4.2,2c-1.1,1.5-2,3.2-3,4.8
						c-0.5,0.7-1.2,1.3-1.8,2c-0.1-0.1-0.3-0.2-0.4-0.3c0.7-1,1.3-2.2,2.1-3.1c1.5-1.7,2.5-3.6,2-5.9c-0.5-2.1-1.6-3.9-3-5.5
						c-2.3-2.5-5-3.1-8.2-2.6c-0.2,0-0.5-0.1-0.9-0.1c1.2-1.1,0.9-3.1,2.8-3.5c1.4,2.9,4.8,3.9,7.5,2.3c0.6-0.4,1.6-0.8,2.2-0.5
						c2.6,1.2,4.4,0,6-1.9c0.6-0.7,1.4-1.7,1.3-2.5c-0.1-2,0.2-4.3-1.7-5.9c0.5,0.3,1,0.6,1.3,1c0.5,0.5,0.9,1.2,1.5,1.5
						c2.1,1.2,5.5,0.7,7.2-1.1c0.3-0.3,0.8-0.3,1.3-0.4c1.1-0.2,2.3-0.3,3.2-0.7c1-0.5,1.6-1.4,1.7-2.8c0.3-2.4-0.8-4.7-3.2-5.5
						c-0.9-0.3-1.6-1.4-1.4-2.3c0.3-1.4,0.6-2.7,1.1-4.1c0.3-1,0.2-1.7-0.4-2.5c-0.8-1-1.7-1.9-2.5-2.9c-0.5-0.6-1.1-1.1-1.3-1.8
						c-0.5-1.8-4.2-3.6-5.7-2.5c-1.6,1.2-3.3,2.4-4.5,3.9c-1.4,1.7-2.2,3.8-3.4,5.7c-0.2,0.3-0.4,0.5-0.7,0.8
						c-0.1-0.1-0.2-0.1-0.3-0.2c0.2-0.6,0.4-1.1,0.5-1.7c0.3-1.4,0.9-2.8,0.7-4.1c-0.2-1.4-1.4-2.7-1.8-4.1
						c-0.4-1.4-1.4-2.2-2.2-3.2c-1.5-1.8-3.5-2.6-5.8-2.6c-0.6,0-1.3,0.5-1.9,0.8c-0.8,0.5-1.6,1.5-2.5,1.7
						c-2.8,0.6-3.3,0.8-3.9,3.5c-0.8,3.3-0.9,6.6,1.1,9.9c-1.1-0.1-2.1-0.3-3-0.2c-2.1,0.3-4.2,0.8-6.2,1.3
						c-0.4,0.1-0.9,0.7-1.1,1.2c-0.3,1-0.5,2-0.7,3c-0.5,2.9,0.3,4.2,2.8,5.6c0.9,0.5,1.7,1.4,2.2,2.3c1.1,1.9,2.5,3.4,4.7,4.2
						c1.7,0.6,2.9-0.4,4.1-0.8c1.1,2,0,3.1-1.6,4.1c-0.2,0.1-0.3,0.5-0.5,0.8c-1,1.9-2,3.7-3,5.6c-1,2-2.1,4-3,6.1
						c-0.4,0.9-0.7,1.2-1.7,1.3c-1,0.1-2.2,0.1-2.8,0.7c-1,1-1.8,2.4-2.4,3.8c-0.4,1-0.9,1.6-1.8,2c-0.3,0.1-0.7,0.2-1,0.4
						c-3,2.4-6.3,4.6-8.6,7.8c-0.7,0.9-1.5,1.5-2.9,1.1c-0.9-0.3-1.9-0.1-2.9-0.1c-1.2-0.1-2.4-0.2-3.7-0.3c-0.3,0-0.7,0-1-0.1
						c-1-0.3-2.4,0.1-2.9-1.8c1.6,0.3,3,0.4,4.2,0.8c2.7,1,6.9-0.7,8-3.4c0.2-0.4,0.5-0.8,0.7-1.2c0.4-0.7,1-1.5,1.1-2.3
						c0.1-1.5,0.1-3.2-0.5-4.6c-0.5-1.4-1.7-2.6-2.7-3.9c-0.9-1.1-2.1-2.1-2.6-3.3c-1-2.2-3.9-3.9-6.2-2.9c-1.2,0.5-2.3,1.6-3.3,2.6
						c-1.9,1.9-2.6,4.4-3.2,6.9c-0.7,2.7-0.4,5.6-1.5,8.3c-0.2,0.4-0.1,0.8-0.1,1.4c0.6-0.2,1.3-0.2,1.5-0.5
						c0.4-0.6,0.9-0.7,1.3-0.3c0.2,0.2,0.2,0.9,0,1.2c-0.5,1-0.7,1.7,0.6,2.2c0.3,0.1,0.6,0.6,0.5,1c0,0.3-0.4,0.9-0.6,0.9
						c-1.3,0-1.8,0.6-2.2,1.7c-0.2,0.6-0.9,1.3-1.5,1.4c-0.6,0.1-1.5-0.3-1.3-1.4c0-0.1-0.3-0.3-0.5-0.3c-1-0.3-2-0.6-3-0.8
						c0.2-0.7,0.3-1.3,0.5-1.7c0.6-1.3,1.3-2.5,1.8-3.7c0.3-0.8,0.7-0.9,1.1-0.3c0.3,0.4,0.3,1.2,0.1,1.6c-0.2,0.6-0.8,1-1.2,1.5
						c-0.8,0.9-0.6,1.7,0.6,2.7c0.3,0.3,1,0.1,1.6,0.1c0.3,0,0.5-0.2,0.8-0.3c0.3-0.1,0.6-0.1,0.8-0.3c0.8-0.6,1.3-1.3,0.9-2.4
						c-0.4-1.1-1.3-1.6-2.4-1.6c0.3-1.1,0.6-2.1,0.8-3.1c0.4-2.2,0.7-4.4,1-6.6c0.1-0.4,0-0.8,0-1.2c-0.1-0.7-0.2-1.4-0.3-2
						c-0.2-1.3-0.1-2.7-0.7-3.8c-0.8-1.6-2.1-3-3.1-4.5c-1.7-2.6-4.7-2.5-6.7-1.6c-1,0.5-2.1,0.8-3.2,1.1c-2.4,0.5-4.1,1.8-5,4.1
						c-0.6,1.4-1,2.9-0.6,4.4c0.2,0.9,0.5,1.9,0.9,2.8c0.6,1,1.4,1.9,2,2.9c0.3,0.4,0.5,0.8,0.7,1.3c0.1,0.2,0,0.5-0.1,0.6
						c-0.1,0.1-0.4,0.1-0.6,0c-1.1-0.3-2.3-0.6-3.4-1c-0.3-0.1-0.6-0.4-0.7-0.6c-0.2-1.6-0.4-3.2-0.6-4.9c-0.2-2-0.3-4.1-0.4-6.2
						c-0.1-1.5-0.2-3-0.1-4.5c0.1-1.5,0.3-3,0.5-4.4c0-0.4,0.2-0.8,0.5-1c0.8-0.7,1.7-1.3,2.4-2.1c1-1.2,2.2-2,3.7-2.5
						c0.7-0.2,1.3-1.1,2-1.7c1.2-0.3,1.5,0.7,1.9,1.7c0.6,1.6,1.8,2.8,3.2,3.3c1.2,0.5,2.8,0.1,4.2,0.2c1.5,0,2.6-0.9,3.6-1.8
						c0.5-0.5,1-0.9,1.6-1.4c0.3,0.6,0.6,1,0.8,1.4c1.4,3.3,4.4,4.5,7.6,3.3c1.3-0.5,2.6-1.1,4-0.8c2.2,0.5,4,0.2,5.4-1.7
						c0.5-0.6,0.7-1.4,1-2.1c0.4-1.1-0.4-3.8-1.1-4.5c-0.9-1.1-1.7-2.4-2.6-3.8c0.7,0.1,1.1,0.1,1.5,0.1c1.8,0.1,3.6,0.8,5.4-0.4
						c1.1-0.8,2.8-1.1,3-2.9c0.1-0.5,0.8-0.9,1.2-1.3c0.3-0.3,0.8-0.6,0.9-1c0.7-1.8,1.5-3.7-0.3-5.4c-0.1-0.1-0.1-0.4-0.1-0.6
						c-0.5-2.4-1.4-4.6-3.6-5.8c-1.1-0.6-2.5-1-3.7-1.3c-0.7-0.2-1.7-0.4-2.2-0.1c-1.9,1.1-3.9,2.3-5,4.3c-0.6,1-1.2,1.6-2.3,1.8
						c-1.1,0.3-2.1,0.7-2.6,1.7c0.3-1.5,2.2-3.9,3.6-4c0.5,0,1-0.4,1.4-0.6c1.1-0.6,1.5-1.6,2-2.6c0.7-1.4,2-2.5,1.6-4.3
						c0-0.1,0.1-0.2,0.2-0.3c0.1-0.9,0.3-1.8,0.2-2.6c-0.5-2.4-2.2-3.9-3.9-5.3c-0.8-0.7-2-1.2-3.4-0.9c-1.5,0.3-3,0.5-4.5,0.4
						c-2.2-0.2-4.4,0.5-5.2,2.6c-0.9,2.3-1.4,4.6-2.1,6.7c-1-0.8-2.1-2.1-3.4-2.7c-2.6-1.1-5.3-1.9-8.1,0.3c-2,1.6-3.4,3.2-3.2,5.9
						c0.2,2,0,4,0.1,6c0.1,1.7,0.1,3.6,1.6,4.9c1,0.9,2.1,1.7,3,2.5c-2.7,1.2-2.7,4.1-3.2,6.2c-1.6,1.5-2.9,2.7-4.2,3.9
						c-0.8,0.7-1.6,1.4-2.5,2c-0.2,0.1-0.7-0.1-0.9-0.3c-0.5,0.7-1,1.3-1.6,1.9c0.2,0.3,0.6,0.5,1.1,0.3c1.1-0.3,2.2-0.5,3.7-0.8
						c-0.7,0.5-1.1,0.8-1.4,1.2c-0.8,0.9-2.4,1-2.6,2.5c-0.1,0.7-0.4,1.5-0.4,2.2c-0.1,4.2-0.4,8.3-0.3,12.5c0,2.5,0.6,5,0.9,7.7
						c-2.1-0.2-1.7,2.3-3.1,3.5c-0.2-0.9-0.2-1.6-0.5-2.1c-0.3-0.7-0.6-1.6-1.2-2.1c-0.1-0.1-0.2-0.2-0.4-0.2
						c0.1,0.6,0.2,1.2,0.3,1.8c0.2,1.1,0.2,2.2,0.2,3.3c0.2,0.7,0.3,1.3,0.5,2c0.2,0.8,0.3,1.6,0.2,2.4c-0.3,1.9-1,3.8-0.2,5.7
						c0.4,1,0.9,2,1.6,2.8c0.6,0.8,0.8,1.5,0.7,2.4c0,0.3,0,0.5,0,0.8c1.3,4.4,2.1,8.9,2.4,13.5c0.2,3.1,1,6.2,1.4,9.4
						c0.1,0.8,0,1.7-0.1,2.7c0.2,0.4,0.4,0.8,0.5,1.3c0.8,2.1,1,4.5,1,6.8c0.5,1.4,1.1,2.8,1.4,4.3c1.1,4.5,2,9.1,3,13.6
						c0.4,2,0.9,3.9,1.4,5.9c0.1,0,0.1,0,0.2,0c0.6-0.1,1.2-0.3,1.9-0.5c-0.3-1.2-0.6-2.3-0.8-3.5c-0.7-3.4-1.4-6.9-2.2-10.3
						c-0.3-1.3-0.6-2.6-1-3.8c-0.6-2-1.1-4.1-1.8-6.1c-0.4-1.1-1-2.1-1.6-3c-0.4-0.6-0.3-0.9-0.3-1.6c0.2-2.2,0.2-4.4,0.1-6.5
						c-0.1-1.5-0.7-3-0.9-4.5c-0.3-2.1-0.3-4.2-0.5-6.3c-0.2-1.8-0.7-3.5-0.9-5.3c-0.2-1.7-0.3-3.4-0.5-5c0.6,0.1,1.1,0.1,1.4,0.3
						c1,0.5,1.3,1.3,1.4,2.4c0.3,2.7,0.9,5.5,1.3,8c1.8,0.6,2.1-0.5,2.5-1.5c0.1-0.2,0.4-0.4,0.6-0.6c0,0.3,0,0.5-0.1,0.8
						c-0.5,1.2-1.2,2.3-1.4,3.5c-0.2,1.1,0.1,2.3,0.2,3.5c0.3,2.2,0.4,4.4,0.9,6.6c0.2,1,0.8,2,1.5,2.8c0.7,0.8,1.6,0.6,2.1-0.3
						c1.1-1.8,1.9-3.6,3.1-5.3c1.4-2.1,3-4,4.6-6c0.6-0.7,1.3-1.4,1.9-2c0.2,0.2,0.3,0.3,0.5,0.5c-1,1-2.1,1.9-2.9,2.9
						c-0.9,1.2-1.7,2.6-2.4,4c-1.3,2.3-2.5,4.7-3.9,7c-0.7,1.1-1.6,2-2.3,3c-0.2,0.3-0.3,0.7-0.3,1c0.1,5,0.5,10,2,14.9
						c0.4,1.5,0.7,3,1,4.5c0.4,1.8,0.7,3.5,1.1,5.3c0.8-0.2,1.6-0.5,2.4-0.8c-0.4-0.2-0.7-0.5-0.8-0.9c-0.5-2.4-1-4.8-1.5-7.2
						c-0.3-1.3-0.6-2.6-0.7-4c-0.3-2.1-0.5-4.2-0.8-6.3c-0.4-2.5-0.6-5.1,0.5-7.3c1.9-3.7,4.3-7.1,6.5-10.6c1-1.6,2.3-3.1,3.5-4.6
						c0.3-0.4,0.6-1,1-1.3c2.1-1.4,3.9-3.1,5.1-5.3c0.1-0.2,0.6-0.3,0.9-0.3c3.3,0.8,5.1-0.2,7.1-3.6c0.5-0.8,1.3-1.8,2.2-2.1
						c2.4-0.7,2.9-2.7,3.5-4.6c0.5-1.9,0.2-4,2-5.5c1-0.8,1.9-1.9,2.9-2.8c1.2-1,2.3-2.4,4-2.5c0.5,1.8,0.5,3.8,2.3,4.8
						c1.5,0.8,3.2,1.4,4.7,2.1c-0.8,0.3-1.8,0.7-2.8,1.1c-0.4,1.9-0.8,3.8-1.1,5.8c-0.3,2.2,0.4,4.1,2.2,5.6
						c0.4,0.4,0.7,0.9,1.1,1.4c0.9,1.4,1.6,3.1,2.9,4.1c3,2.4,8.9,0.2,9.5-4c0.2-1.5,1-2.9,1.5-4.4c0.7,0.8,1.1,1.5,1.4,2.2
						c0.8,2.1,2.9,3.5,5.1,3.2c1.9-0.3,3.7-1.3,5.8-1c0.1,0,0.2-0.2,0.3-0.2c1.7-0.6,2.6-2,3.5-3.3c0.3-0.4,0.8-1,1.2-1
						c2.5,0.1,4.6,1,6.2,3c0.3,0.4,0.4,1,0.5,1.5c0.3,1.6,0.1,3.3,1.5,4.6c0.4,0.4,0.3,1.5,0.1,2.2c-0.8,2.7,0.5,5.8,2.9,7.3
						c1.9,1.2,6.1-0.2,7.1-2.1c0.4-0.7,0.8-1.3,1.2-2c0.2,0.3,0.1,0.5,0.1,0.7c-0.1,1.4-0.3,2.8-0.1,4.2c0.1,1.2,2.5,2.4,4.1,2.1
						c0.9-0.1,1.8-0.4,2.7-0.4c1,0,1.8-0.2,2.5-1c0.5-0.6,1.2-1.1,1.9-1.3c2.3-0.5,3.7-2.1,4.5-4c0.5-1.1,1-1.3,2-1.4
						c1.1-0.2,2.1-0.8,3-1.4c2.4-1.7,2.3-4.7,3.6-6.9c0.1-0.1,0-0.3,0-0.4c-0.4-1.6-0.4-3.4-2-4.4c-1.7-1.1-3.2-2.1-5.4-1.3
						c-1.2,0.5-2.6,0.8-3.9,1.1c0.3-1.4,1.9-2.9,3.5-3.5c1.5-0.5,1.6-0.7,1-2.2c-0.1-0.2-0.1-0.4-0.1-0.6c0.7-2.2-2-4.7-3.8-5.1
						c-0.8-0.2-1.6-0.7-2.3-1.1c0-0.2-0.1-0.3-0.1-0.5c3-1.2,3.7-3.4,3.2-6.1c0.7,0,1.3-0.1,2,0c0.7,0.1,1.3,0.5,2,0.7
						c2.2,0.5,4.4-1,5.2-3c0.3-0.7,1-1.3,1.6-1.8c0.5-0.4,1.2-0.6,1.6-1.1c0.8-1.3,1.5-2.7,2.2-4.1L291.9,77.1z M196.4,55.6
						c0.1,0.3,0.1,0.5,0.3,0.7c0.9,1,0.7,2.1-0.6,2.6c-1.3,0.6-2.6,0.8-3.8,0.3c-0.2,0.1-0.4,0.1-0.7,0.1c-0.1,0-0.9,0.1-0.7,0.1
						c-0.2,0.1-0.4,0.1-0.7,0.2c-0.3,0.1-0.6,0.2-0.9,0.3c-1.5,1-3.3,0.8-5.1,0.3c-1.4-0.4-2.5-2.8-2.4-4.4c0.1-2.2,1.3-3.9,1.9-5.9
						c0.1-0.3,0.2-0.7,0.2-1c0.1-0.7,0.3-1.1,1.2-1.2c0.9-0.1,1.7-0.9,2.6-1.4c1,2.4,3.4,3.3,5.5,4.7
						C194.9,51.9,195.9,53.7,196.4,55.6z M190.2,38.7c2.1-1.9,4.2-3.7,6.3-5.5c0.3-0.2,0.7-0.4,0.8-0.5c2-0.6,5,0.6,6.2,3
						c0.6,1.3,1.2,2.6,1.9,3.8c0.7,1.3,0.6,2.3-0.5,3.2c-0.5,0.5-1,1-1.2,1.6c-0.6,1.6-1.9,2.6-3.3,2.8c-1.9,0.4-3.9,0.3-5.6-1
						c-0.5-0.4-0.9-0.9-1.2-1.4c-0.6-1.5-1.8-2.3-3.1-3.2C189.8,41.2,189.6,39.3,190.2,38.7z M193.2,48.1c-2.6-0.8-3.8-2.9-5.4-5
						C190.9,43.6,192.1,45.7,193.2,48.1z M181.5,19.8c0.8,0.2,1.6,0.6,2.5,0.6c1,0.1,2.1,0.1,3-0.2c1.8-0.5,3.5-0.2,4.7,1.2
						c0.6,0.7,1.2,1.4,1.9,2.1c1.3,1.3,1.2,2.9,0.5,4.4c-0.8,1.8-1.6,3.6-3.9,4.3c-1,0.3-1.7,1.4-2.4,2.2c-0.3,0.3-0.6,0.7-0.7,0.9
						c-1.1-0.3-1.9-0.4-2.6-0.7c-0.9-0.5-2.1-1-2.3-1.8c-0.2-0.7-0.5-1.2-0.9-1.7c-0.7-0.1-1.3-0.6-1.7-1.2c-0.3-0.5-0.4-1-0.5-1.5
						c-0.1-0.3-0.1-0.6-0.2-0.9C178.6,24.5,179.9,22.2,181.5,19.8z M182.5,36.7c-1.7,0.1-2-1.2-2.4-2c-0.7-1.3-1-2.8-1.7-4.7
						C179.9,32.4,181.2,34.5,182.5,36.7z M184.4,41.3C184.4,41.3,184.3,41.4,184.4,41.3c-0.8,0.3-1.5,0.6-2.2,0.7
						c-0.3,0.1-0.6-0.2-0.9-0.2c0.1-0.3,0.2-0.7,0.4-0.9C183.1,39.7,184.1,39.9,184.4,41.3z M180.8,38.8c-0.4,1.5-0.8,2.8-1.1,3.9
						c-0.5-0.8-1.5-0.8-2.2,0.2c-1.2,1.9-1.2,1.9-3.7,1.4c0.5-0.6,0.8-1.2,1.3-1.4c0.9-0.5,1.9-0.7,2.9-1.1c0.8-0.3,1.1-0.8,1.1-1.6
						c0-0.5,0.1-1.2,0.4-1.6C179.6,38.4,180.4,38.7,180.8,38.8z M163.5,36.9c-0.1-0.5,0.1-1.1,0.1-1.6c0.1-1.9,0.1-3.9,0.4-5.8
						c0.6-3.3,3.6-4.3,6.2-3.6c1.6,0.5,3.3,0.7,4.3,2.2c1.3,2.1,2.5,4.3,3.7,6.5c-0.1,0-0.1,0.1-0.2,0.1c0.1,0.4,0.2,0.8,0.4,1.1
						c0.3,0.8,0.1,1.3-0.3,2.1c-0.8,1.7-2.4,2-3.5,3c-1.3,1.2-2.7,1.8-4.4,1.7c-0.9-0.1-1.8-0.5-2.6-0.7
						C165,41.2,164.2,39.1,163.5,36.9z M165.5,49c0.5-2.5,1.3-3.1,3.8-2.9c2.4,0.2,4.7,0.2,7.1,0.4c0.6,0,1.2,0.3,1.8,0.6
						c0.9,0.4,1.6,0.1,2.2-0.5c0.2-0.2,0.6-0.4,0.8-0.6c0.2-0.2,0.4-0.5,0.6-0.8c-0.4,0-0.7-0.2-1.1-0.1c-0.4,0-0.7,0.2-1.3,0.4
						c0.2-0.7,0.4-1.3,0.6-1.8c1.5,1,1.9,0.9,3.5-0.3c0.1-0.1,0.3,0,0.5-0.1c1.9-0.8,2.4-3,0.9-4.4c-0.5-0.4-1.5-0.2-2.2-0.3
						c0.6-0.6,1.3-1.3,2-2.1c0.1,0.1,0.3,0.1,0.4,0.2c0,0.6,0.1,1.3,0.2,2.1c0.5-0.1,1-0.1,1.6-0.2c-0.4,0.7,0.1,1,0.6,1.3
						c0.3,0.2,0.8,0.6,0.7,0.8c0,0.3-0.4,0.8-0.7,1c-1.2,0.5-1.6,1.1-1.1,2.4c0.2,0.7,0.3,1.2-0.4,1.5c-0.6,0.3-1.2,0.5-1.7-0.2
						c-0.3-0.4-0.8-0.7-1.3-1.1c-0.5,0.9-0.9,1.7-1.3,2.5c-0.1,0.3-0.3,0.6-0.5,0.7c-2.3,0.9-1.5,2.9-1.7,4.6
						c-0.2,1.5-0.5,3.1-1.2,4.4c-1.3,2.3-5.3,2.8-7.7,1.2c-1.3-0.9-2.2-2.1-2.9-3.5c-0.4-1-1.3-1.7-1.9-2.6
						c-0.3-0.5-0.4-1.2-0.5-1.8C165.3,49.5,165.4,49.2,165.5,49z M179.9,87.1c-0.1-0.3-0.1-0.5-0.2-0.8c-0.5-0.6-0.7-1.5-0.2-2.2
						c0,0,0-0.1,0.1-0.1c-0.1-2.4,0.7-4.5,1.3-6.8c0.5-1.9,2-3,3.1-4.3c1.2-1.4,4.6-0.5,5.5,1.2c0.8,1.6,1.7,3.1,3,4.3
						c1,1,2,2.1,2.7,3.4c0.5,0.8,0.6,1.8,0.6,2.7c0.1,1.5-2.3,4.5-3.6,5.2c-2.2,1.1-4.3,0.5-6.5,0c-1.3-0.3-2.8-0.1-4-0.1
						C181.1,88.8,180.4,88,179.9,87.1z M166.2,87.5c2.4,0.3,3.9,2,5.7,3.2C170.1,91.1,166.6,89,166.2,87.5z M167.6,101.6
						c0.3-2,2-3.8,3.9-4.3C171.9,99.4,169.9,101.7,167.6,101.6z M176.8,92.1c0.2,0,0.8,0.5,0.7,0.6c-0.2,0.9-0.9,1.2-1.9,1.2
						C175.2,92.7,175.8,92.2,176.8,92.1z M160.9,79.7c-1.5-3.1-1.2-6.1,1.5-8.3c0.3-0.2,0.6-0.5,0.9-0.5c2,0.1,3.5-1,5.2-1.7
						c0.9-0.4,2.1-0.4,3.1,0.4c2.2,1.7,3.8,3.7,4.4,6.4c0.4,2.2,1.3,4.4-0.2,6.6c-0.2,1.4-0.3,2.7-0.5,4.1c0,0.2-0.3,0.4-0.5,0.4
						c-0.8,0.4-1.7,0.8-2.9,1.3c-1.1-0.6-2.6-1.6-4.2-2.2C164.5,85,162.3,82.6,160.9,79.7z M162,111.3c-0.2-0.2-0.6-0.4-0.7-0.7
						c-0.2-0.9-0.4-1.7-0.4-2.6c0-0.7,0-1.6,0.3-2.1c0.4-0.5,1.3-0.5,1.8-0.7C162.7,107.2,162.4,109.2,162,111.3z M163,103
						c-1.6-0.1-3.1-0.1-4.6-0.3c-0.5-0.1-0.9-0.7-1.3-1.2c-1.3-1.5-2.7-2.9-3.9-4.5c-1.2-1.5-0.4-3,0.3-4.5c0.3-0.5,0.4-1.2,0.3-1.8
						c-0.2-2.1,0.4-3.9,1.6-5.4c0.3-0.4,1.4-0.2,2.1-0.2c2.6,0,4.6,1.1,6.1,3.1c0.2,0.3,0.5,0.5,0.8,0.7c1.5,1.2,3,2.4,4.6,3.6
						c0.2,0.2,0.5,0.2,0.7,0.4c0.3,0.3,0.7,0.6,0.7,0.8c0,0.9-0.2,1.7-1,2.4c-1.4,1.3-2.5,3-3.9,4.5C164.9,101.6,164,102.2,163,103z
						 M166.4,128.2c-0.7-2.1-1.4-4-2-6c-0.4-1.2-0.5-2.5-0.7-3.8c-0.1-0.8,1.3-2.8,2-3.1c0.1,0,0.3-0.1,0.4-0.1
						c1.2,0.3,2.4,0.6,3.5,1.1c1,0.4,1.9,1,2.9,1.5C170.5,121.1,168.4,124.6,166.4,128.2z M180.6,111.3c-0.6,1.1-0.8,2.5-2.1,3
						c-2.3,1-4.6,1.3-7,0.5c-1.1-0.3-2-0.9-3.1-1.3c-0.9-0.4-1.8-0.6-2.5-1.1c-0.8-0.5-1.4-1.3-2-2c-0.1-0.1-0.4-0.4-0.3-0.5
						c0.6-1.3,0.5-2.8,1.4-4.2c1-1.5,2.3-1.8,3.7-2.1c0.2-0.1,0.4-0.1,0.6-0.2c1.1-1.2,2.2-2.4,3.3-3.7c0.6-0.7,1-1.6,1.7-2.6
						c0.1,2,1.4,2.1,2.7,2.1c0.6,2.6,1.6,5,3.2,7.1C181.1,107.8,181.6,109.5,180.6,111.3z M181.3,104.5c-1-2-2-3.9-3-5.9
						C179.8,99.2,181.4,102.4,181.3,104.5z M182.4,112.4c0.8-2.3,0.4-2.5,2-1.5C183.7,111.5,183.1,111.9,182.4,112.4z M196.2,102.4
						c-0.4,0.8-1.5,1.4-2.4,1.8c-1.3,0.6-2.1,1.4-2.5,2.8c-0.8,2.7-4.2,3.7-5.9,2.3c-1.1-0.9-1.8-2.4-2.3-3.8
						c-0.3-0.9,0-2.1-0.1-3.1c-0.1-0.5-0.4-1-0.7-1.5c-0.3-0.5-0.6-1-0.8-1.5c-0.9-0.4-1.2-1.2-1.1-2c-0.2-0.4-0.4-0.8-0.6-1.2
						c0.8-0.7,1.6-1.6,2.6-2.1c0.5-0.2,1.3,0.3,2,0.5c1.4,0.4,2.8,1.2,4.1,1.1c1.2-0.1,2.4-0.2,3.6-0.1
						C194.9,95.8,197.9,98.9,196.2,102.4z M205.4,88.6c-1.1,0.5-2.1,1.5-3.1,2.3c-1.7,1.4-3.3,2.9-5,4.3c-0.2,0.2-0.6,0.1-0.8,0.2
						c0-0.3,0-0.8,0.2-1c1.4-1.5,2.9-3.1,4.5-4.4c1.6-1.3,3.4-2.4,5.2-3.6c0.3-0.2,0.6-0.3,1.1-0.5
						C206.9,87.2,206.7,88.1,205.4,88.6z M233.4,87.4c1.1-1.3,2.2-2.5,2.9-4c1.1-2.4,2.7-3.4,5.3-3.6c2.5-0.1,3.9,1,4.9,3
						c0.6,1.2,1,2.4,2.2,3.2c0.3,0.2,0.3,0.8,0.4,1.2c0.7,2,0.4,2.8-1.4,4c-0.4,0.2-0.7,0.5-1,0.8c-2.1,2.4-4.6,2.1-7.3,1.2
						c-1.8-0.5-3.5-1-5.3-1.4c-0.5-0.1-1.1-0.1-0.9-0.9c0.1-0.3,0-0.8-0.3-1C231.8,88.9,232.7,88.3,233.4,87.4z M239.8,95.9
						c-2.7,0.1-4.5-0.4-5.3-1.6C236.3,94.2,238.4,94.8,239.8,95.9z M228.2,71.5c2.1,0.4,3.5,1.7,4.7,3.3c0.7,0.9,1.1,2,1.4,3.1
						c0.2,0.6,0.1,1.5-0.2,2c-1.1,1.5-2.4,3-3.6,4.5c0-0.1,0-0.1-0.1-0.2c0,0.1-0.1,0.2-0.1,0.3c-0.1,0.2-0.2,0.4-0.3,0.5
						c0.2,0.7,0.1,1.3-0.2,1.7c-1.2,0.2-2.1,0.4-2.9,0.4c-0.3,0-0.8-0.4-1-0.7c-0.8-1.5-1.4-3.1-2.2-4.6c-0.1-0.3-0.3-0.5-0.5-0.7
						c-2.1-1.6-1.8-3.7-1.2-5.9c0.3-0.9,0-1.9,1-2.8C224.6,71,226.3,71.1,228.2,71.5z M224.2,87.3c-1.7-1.4-3-2.8-3.9-4.7
						c-0.3-0.7-0.9-1.3-1.6-1.8c-0.9-0.8-0.8-1.5-0.3-2.4c0.4-0.7,0.8-1.3,1.2-2c0.1,0.1,0.2,0.1,0.3,0.2c0.1,1.2,0,2.4,0.5,3.4
						c0.7,1.5,1.8,2.8,2.8,4.1C223.9,85,224.6,85.8,224.2,87.3z M241.5,60c0.7,0.8,0.1,3.3-0.8,4.1c-0.4,0.4-0.8,0.8-1.3,1
						c-0.6,0.3-1.3,0.5-1.7-0.1c-0.7,0.2-1.4,0.1-1.9-0.2c-1.2,0.6-2.5,1.4-3.8,1.5c-1.9,0.1-3.9-0.2-4.9-2.5
						c-0.4-0.9-1.1-1.7-1.9-2.4c-1.2-1.2-1.1-2.2,0.3-3.1c0.8-0.5,1.6-0.8,2.3-1.4c0.8-0.6,1.6-1.2,2.1-2c1.1-1.7,3-1.4,4.7-1.9
						c0.9,2,2.4,3.3,4.2,4.4C239.9,58.2,240.7,59.1,241.5,60z M227.7,48c-1.6,0.1-2.8-0.2-3.5-1.7c-0.2-0.5-0.6-0.9-1.1-1.5
						c1.4-0.5,2.5,0.3,3.6,0.5c1.1,0.2,1.5,0.9,1.7,1.8C228.6,47.7,228.5,47.9,227.7,48z M230,47.8c0.1-0.7,0.7-1.4,1.2-2.3
						c0.7,0.9,1.1,1.4,1.3,1.8c-0.4,0.7-1,1.3-1.3,2.1c-0.5,1.2-2.1,2.4-3.2,2.2c-0.2-0.1-0.5-0.3-0.7-0.4c0.2-0.3,0.3-0.6,0.6-0.7
						C229,49.9,229.8,49.2,230,47.8z M256,52.2c0.4,0.5,0.6,1.4,0.4,1.8c-0.5,1-0.9,2.4-2.5,2.1c-1.5-0.3-2.6,0.2-3.7,1.3
						c-1.3,1.4-4.1,1.3-5.9,0.3c-1.1-0.6-1.8-1.6-2.6-2.4c-1.2-1.1-2.5-2.1-3.8-3.1c0.9-0.9,1.7-1.5,3.2-1.5c2.9,0,5.8-0.6,8.7-0.9
						C252.2,49.7,254.5,50.2,256,52.2z M238.5,41.8c0.6-2.5,2.1-3.8,3.7-5.3c0.9-0.8,2.1-1.3,3.3-1.9c0.7-0.3,2.8,1,3.5,2
						c0.4,0.7,0.7,1.4,1.2,2c0.6,0.8,1.3,1.5,2,2.2c0.2,0.2,0.5,0.5,0.5,0.8c0,1,0.1,2-0.1,3c-0.4,2.5-1.4,3.2-3.9,2.8
						c-2-0.3-3.9-0.8-6.1-1.2c0.1-0.1,0.1-0.1,0.2-0.2c-0.1,0-0.1,0-0.2,0c-0.1,0-0.3-0.1-0.4-0.1c0,0-0.1,0-0.1,0
						c-0.4,0.5-1.1,0.6-1.7,0.9c-0.9,0.4-1.7,0.7-2.6,1.1C237.4,45.7,238.1,43.8,238.5,41.8z M235.9,47.4c0,0.4,0,0.9-0.1,1.3
						c0.4-0.2,0.9-0.3,1.3-0.5c0.2-0.1,0.3-0.2,0.5-0.3c0.1,0.3,0.2,0.7,0.3,1c1.3-0.4,2.5-1.1,3.8-1.2c1.3-0.1,2.5,0.5,3.8,0.8
						c0,0.1,0,0.3,0,0.4c-0.7,0.1-1.3,0.3-2,0.3c-1.5,0.1-3,0.1-4.5,0.1c-0.3,0-0.7,0.2-0.8,0.4c-0.3,0.7-0.6,1.3-1.4,1.4
						c-0.1,0-0.2,0.5-0.2,0.8c0,0.4,0.2,0.7,0.3,1.4c-0.8-1-1.5-1.8-2.1-2.6c-1.1,1.8-1.7,1.9-2.7,0.9c-0.5,0.2-1,0.4-1.5,0.6
						c0-0.1-0.1-0.3-0.1-0.4c0.7-0.2,1.4-0.5,2.1-0.7c1.2-0.4,2-1.3,1.9-2.5C234.3,46.9,235,47.1,235.9,47.4z M219.7,38.2
						c0.2-1.2,0.2-2.4,0.3-3.6c0.1-1.3,0.7-2.3,2-2.5c1.4-0.2,2.4-1,3.3-1.9c1.5-1.4,1.9-1.4,3.7-0.4c2.1,1.1,3.6,2.7,4.8,4.8
						c0.9,1.5,1.6,2.8,1.4,4.4c-0.1,1-0.6,1.9-0.9,2.9c-0.4,1.1-0.8,2.2-1.3,3.8c-0.9-1.6-1.8-1.5-3-1.1c-0.5,0.2-1.3-0.1-1.8-0.4
						c-1.6-0.8-3.3-1.4-5.2-1.4C221.1,42.7,219.4,40.2,219.7,38.2z M222.4,58c-0.7,0.5-1.6,0.7-2.5,0.8c-1.2,0.1-3.8-1.9-4.2-3.1
						c-0.6-1.8-1.7-3.1-3.4-4c-2.2-1.2-2.7-3.9-1-5.5c0.3-0.3,1-0.3,1.5-0.4c2-0.2,4-0.4,6-0.6c0.9-0.1,1.7,0.2,2.2,1.2
						c0.9,1.6,3.5,2.8,5.9,3.1c-0.1,1.2-2,2.4,0.1,3.5c-1,0.9-1.9,1.6-2.7,2.5C223.7,56.4,223.2,57.4,222.4,58z M216.5,77.5
						c0.8-1.6,1.6-3.2,1.6-5.1c0-0.2,0.3-0.5,0.5-0.7c0.9-0.9,1.8-1.6,2.3-2.8c0.6-1.4,1.6-2.7,2.5-4c0.3-0.4,0.8-0.6,1.1-0.9
						l0.3,0.3c-3.6,4.5-5.7,9.8-8.1,14.9c-0.2,0-0.3-0.1-0.5-0.1C216.3,78.5,216.3,77.9,216.5,77.5z M213.2,95.1
						c-2.9-0.5-4.3-1.4-4.7-4.2c-0.1-0.9,0.5-2,1-2.9c0.3-0.6,0.5-1.1,0-1.8c-1.4-2.1,0.4-5.8,2.9-6.1c2.7-0.3,4.6,1,6,3.1
						c1.3,1.9,2.8,3.7,4.6,5.1c0.3,0.3,0.6,0.6,1,1.1c-1.8,0.4-2.6,1.5-3.3,2.7c-0.3,0.4-0.9,0.7-1.4,0.9c-1.2,0.5-2.4,1-3.6,1.5
						C214.9,94.8,213.9,95.2,213.2,95.1z M226,105.3c-0.6,2.2-1.4,4.3-2.3,6.4c-0.3,0.7-1.2,1.4-1.9,1.8c-2.2,1.1-4.1,0.6-5.8-1.4
						c-1.5-1.8-2.9-3.7-4.4-5.5c-0.2-0.2-0.4-0.6-0.4-0.8c0.3-1.3,0.6-2.7,1.1-4c0.5-1.3,1.5-2.1,2.9-2.7c1.7-0.6,3.2-1.7,4.7-2.7
						c1.1-0.7,1.7-0.8,2.9-0.1c-0.6,2-0.3,2.4,2.3,2.8c0,0.1-0.1,0.3-0.1,0.4c0.3,0.2,0.5,0.4,0.7,0.6c0.2,0.3,0.3,0.7,0.3,1
						C226.3,102.5,226.3,103.9,226,105.3z M226.4,95.2c-0.2,1.8-1.2,2.5-2.5,1.7c0.2-0.4,0.4-0.9,0.5-1.3c0-0.2-0.3-0.5-0.5-0.7
						c-0.1-0.1-0.4,0-0.5-0.1c-0.1-1-0.6-2.1-0.3-3c0.3-1,1.4-1.5,2.6-1.5c0.3,0,0.9-0.4,0.9-0.5c-0.1-0.8,0.2-1.3,1-1.2
						c0.9,0.1,0.9,0.9,0.9,1.6c0,0.1,0,0.2,0,0.4c-2.1-0.2-3.8,0.7-4.1,2C224.2,93.5,225.1,94.8,226.4,95.2z M228.2,95.6
						c-0.3-0.3-0.4-1.1-0.2-1.4c0.6-1,1.5-1.8,0.8-3.2c0.7-0.1,1.3-0.3,1.8-0.3c0.3,0,0.7,0.2,1,0.3c-0.1,0.3-0.2,0.6-0.4,0.9
						c-0.6,0.8-1.6,1.4-0.8,2.6c0.1,0.2-0.5,1-0.9,1.2C229.2,95.9,228.4,95.8,228.2,95.6z M243,105.1c-0.9,0.9-1.6,2.1-2.4,3.2
						c-0.2,0.3-0.5,0.7-0.8,0.7c-1.7,0.4-3.5,1-5.2,1.1c-2.9,0.2-5.6-1.6-5.6-5.4c0-2.2-0.1-4.3-0.2-6.5c0-0.3,0.2-0.8,0.3-0.8
						c1.6-0.3,2-1.6,2.5-3c0.3,0.2,0.6,0.4,0.7,0.5c1.3,2,3.4,2.7,5.7,3c1.4,0.2,2.6,0.5,3.7,1.5c0.6,0.6,1.5,1,2,1.7
						C244.7,102.6,244.4,103.8,243,105.1z M252.3,109.4c-0.8-0.6-1.5-1.2-2.3-1.8c1.3-0.2,2.2,0.3,2.6,1.4L252.3,109.4z M260.7,60.9
						c0.5-1.4,2.8-1.8,4.7-1.2c3.7,1.2,5.7,4,7.1,7.4c0.1,0.3,0.1,0.8,0.1,1.1c-0.1,1.3-0.2,2.6-0.7,4.1l-1-1.8
						c-0.2,0.3-0.6,0.6-1,0.8c0,0.3-0.1,0.6-0.1,0.9l-0.5-0.1c-0.2-0.2-0.3-0.5-0.4-0.7c-0.7,0-1.4-0.3-2-0.7
						c-1.4-0.2-2.6-0.3-3.8-0.7c-0.7-0.2-1.5-0.7-1.5-1.9c0-0.6-0.5-1.4-0.9-2C259.6,64.6,260.1,62.7,260.7,60.9z M267.9,74.6
						c-1.9,0-3.2-0.8-4.3-2.4C266.4,72,267.6,72.7,267.9,74.6z M266.6,79.1c0,0.1,0,0.2,0,0.3c0,0.3-0.4,0.6-0.6,0.9
						c-0.1-0.1-0.1-0.2-0.2-0.3c-0.6,0.3-1.2,0.6-1.8,1c-1.4,0.8-2.7,0.5-3.5-1c-0.7-1.2-1.5-2.3-3-2.6c-0.4-0.1-0.7-0.3-1.1-0.5
						c-1.2-0.6-1.7-1.8-1.4-3.1c0.5-1.8,1.4-2.5,2.9-2.4c1.7,0,3.2,0.4,4.3,1.8c1.3,1.5,2.9,2.5,4.9,3c0.2,0.1,0.5,0.9,0.4,0.9
						c-0.3,0.2-0.5,0.4-0.6,0.7c0,0,0,0.1,0,0.1C266.9,78.3,266.8,78.8,266.6,79.1z M256.5,104.1c-1.9-0.5-2.5-1.6-1.7-3.7
						c0.6-1.6,0.6-3.1,0.5-4.6c-0.1-2.1,2.4-3.7,4.2-2.9c0.7,0.3,1.4,0.5,2,0.7c1.9,0.7,2.8,2.3,3.3,4.1c0.9,2.9,1.6,5.8,2.3,8.4
						c-0.9,0-1.7-0.1-2.5-0.1c-0.5,0-1.1-0.1-1.6-0.2C260.9,105.2,258.7,104.6,256.5,104.1z M271.3,109.4c0.1,0.6,0.3,1.1,0.5,1.8
						c-1,0.1-2,0.8-3.2,0.9c-1.1,0.1-2.2,1.1-3.2,1.7l0.3-1.2c-0.3,0-0.7,0.1-1,0.1c-0.5,0-1,0-1.5,0c0.2-0.5,0.4-0.9,0.5-1.4
						c0.1-0.2,0.3-0.3,0.2-0.4c-0.5-1.6,1.2-1.9,1.7-2.9c0.1-0.2,0.8-0.1,1.4-0.1c-0.8,0.7-1.5,1.1-2,1.6c-0.2,0.3-0.4,1.1-0.2,1.3
						c0.4,0.4,1.1,0.8,1.7,0.8c1.1,0,2.1-0.5,2.3-1.6c0.1-1-0.4-1.8-1.7-1.7l0-0.4c0.7-0.3,1.5-0.7,2.2-1c0.2-0.1,0.6,0.4,0.7,0.7
						c0.2,0.3,0.2,0.6,0.4,0.9c0.3-0.2,0.6-0.4,1.2-0.8c0.4,0.5,0.8,1,1.2,1.6C272.3,109.4,271.8,109.4,271.3,109.4z M275.9,116.1
						c-2.3-0.1-4.4-2-3.9-3.5C272.4,114.9,275.1,114.3,275.9,116.1z M268.7,97.9c-0.4,1.2-0.3,2.5-0.6,3.9l-2.9-8.4
						c1.9,0.5,3.7,0.9,5.5,1.3C270.1,95.7,269.1,96.7,268.7,97.9z M262.7,121.1c-0.3,0.8-1.1,1.5-1.7,2c-0.4,0.3-1.1,0.4-1.6,0.4
						c-1.3-0.2-2.7,0-4-0.9c-1.3-0.9-1.9-2.7-1.2-4.2c0.5-1.2,0.5-2.4-0.4-3.5c-1.8-2.4-0.8-4.7,2.2-5.1c2.1-0.3,4.3-0.3,6.4-0.4
						c0.2,0,0.5,0.2,0.8,0.3c-0.5,0.7-1,1.3-1.4,2c-0.3,0.6-0.4,1.3-0.3,1.9c0.2,1.4,0.8,1.7,2.1,1.2c0.6-0.2,1.1-0.6,1.7-1
						c0,0.1,0.1,0.2,0.1,0.2C264.5,116.3,263.7,118.7,262.7,121.1z M277.8,121.9c-0.8,1-1.6,1.8-3,2.1c-0.9,0.2-1.6,1-2.5,1.4
						c-2,0.9-4,1.8-6.2,0.5c-1.1-0.7-1.5-2-1.1-3.2c0.5-1.4,1-2.9,1.5-4.3c0-0.1,0-0.2,0.1-0.2c1.1-1.4,2.2-2.8,3.2-4
						c1,0.9,2.1,1.9,3.1,2.8c0.3,0.2,0.7,0.4,1,0.6c1.1,0.6,2.2,1,3.2,1.7C278.6,119.8,278.7,120.7,277.8,121.9z M280.5,108.1
						c1.8-0.7,3.2,0.3,4.4,1.1c1.4,0.9,2,2.2,0.8,3.8c-0.2,0.3-0.3,0.8-0.3,1.3c-0.1,2.1-2,4.1-4.1,4.1c-0.9,0-1.7-0.2-2.2-1.2
						c-0.3-0.6-0.7-1.1-1.2-1.6c-0.8-0.7-1.6-1.4-2.5-2.1c-0.4-0.3-0.6-0.6-0.7-1.1l0,0c-0.1,0-0.4,0.1-0.5,0.2
						c-0.3,0.1-0.5,0.3-0.8,0.4c-0.1-0.4-0.4-1-0.3-1.2c1.1-1.1,0.3-1.7-0.4-2.4c1.2-0.2,2.4-0.3,3.6-0.5
						C277.8,108.7,279.2,108.6,280.5,108.1z M278.1,99.1c0.6,0.4,1.1,0.9,1.4,1.4c0.2,0.3,0.1,1-0.2,1.3c-1.2,1.4-2.6,2.7-3.9,4
						c-0.3,0.3-0.7,0.5-0.9,0.7c-1.2,0.3-1.9,0.2-2.7-0.8c-1.8-2.1-2.7-4.4-2-7.2c0.1-0.6,0.6-1.5,1.1-1.7c1-0.4,2.2-0.9,3.4-0.2
						C275.5,97.5,276.9,98.2,278.1,99.1z M290.5,80.1c-0.8,1.1-1.6,2-2.8,2.7c-0.9,0.5-1.5,1.8-2,2.8c-0.5,1.1-1.3,1.4-2.4,1.3
						c-2.2-0.1-3.8-1-5-3c0,0,0,0,0,0c-0.2-0.3-0.4-0.7-0.5-1.1c0-0.1,0-0.1-0.1-0.2c-0.2,0.1-0.3,0.2-0.5,0.4c-1.9-1.5-2.1-1.5-4,0
						c-0.3,0.3-0.8,0.4-1.2,0.5c-1.3,0.3-1.2-0.6-1.1-1.5c-1,0.6-1.5,1.9-1,2.7c0.8,1.1,2.3,0.8,4.1-0.7c0.8,1.2,1.6,2.4,2.3,3.6
						c1,1.7,0.1,4-1.7,4.7c-1.1,0.4-2.2,0.6-3.3,0.5c-0.3,0-0.6-0.1-0.9-0.2c-0.2-0.1-0.4-0.1-0.6-0.2c-0.3-0.1-0.7-0.1-1-0.1
						c-0.3,0-0.5-0.1-0.8-0.1c-1.1-0.2-1.9-0.6-2.3-1.7c-0.1-0.3-0.1-0.5,0-0.7c-0.3-0.3-0.6-0.7-0.7-1.1c0,0,0,0,0-0.1
						c-0.7,0.4-1.2,0.2-2.4-0.5c-0.9-0.6-0.8-1.3-0.4-2.2c0.1-0.1,0-0.3,0.1-0.4c1.2-0.4,2.3-1,3.5-1.1c2-0.3,2.7-2.2,4.2-3.1
						c0.7-0.5,1.2-1.1,2.2-1.3c0.9-0.2,2.3-1,2.1-2.6c-0.1-0.6,1.2-1.2-0.1-1.7c-1.1-0.4-2.2-0.4-3.1,0.5c-1.2,1.1-1.1,1.1-0.3,3.7
						c-0.7,0-1.5,0.1-2.2-0.1c-0.9-0.2-1.1-1.1-0.7-1.8c0.7-1.1,1.4-2.3,1.9-3.5c0.4-1.1,0.9-1.4,1.8-0.6c1,0.9,1.3-0.1,1.8-0.2
						c0.6,0.1,1.2,0.5,1.8,0.4c1.9-0.5,2.1-0.4,3,1.4c0.9-0.2,1.2-0.7,1-1.3c-0.2-0.2-0.3-0.4-0.4-0.6c-0.4-0.4-1-0.8-1.3-1.3
						c-0.4-0.6-0.7-1.4-0.8-2.1c-0.1-0.9-0.1-2,0.2-2.9c1.1-3.4,1.6-3.5,5-2.5c2.4,0.7,3.9,2,4.6,4.5c0.3,1.1,1.1,2,1.7,3
						c0.2,0.4,0.4,0.8,0.4,0.8c-1.1,0.8-2.2,1.4-3.1,2.2c-1.3,1.1-2.8,1.1-4.4,1c-1,0-2-0.1-3.1-0.2c0.2,1.5,1.4,2.8,2.8,3.1
						c1.5,0.4,3,0.5,4.3-0.6c1.3-1.1,2.9-1.1,4.5-0.9C291,77.7,291.4,78.9,290.5,80.1z"/>
					<path class="st1" d="M152.6,76.1c-0.1-1.8,0-3.7-0.2-5.5c-0.1-2-0.4-4-0.6-6c-0.1-1.2-0.1-2.5-0.2-3.7c-0.3,0.3-0.7,0.6-1,0.8
						c-0.3,0.2-0.6,0.4-1,0.6c0,1,0.1,1.9,0.1,2.9c0.2,3.1,0.5,6.3,0.6,9.4c0.1,1.8-0.1,3.6-0.3,5.7c-0.1-0.1-0.2-0.1-0.4-0.2
						c0.1,0.4,0.2,0.8,0.3,1.2c0.5-0.2,1-0.3,1.4-0.5c1.2-0.4,1.6-1.1,1.4-2.4C152.7,77.6,152.6,76.9,152.6,76.1z"/>
					<path class="st1" d="M278,81.1c0.2-0.3,0.6-0.6,1-0.8c-0.3-0.1-0.5-0.3-0.7-0.4l-1.1-3.1c-1.1,0.4-1,1.2-0.7,1.9
						c0.4,1.2-0.3,1.4-1.2,1.5c-0.3,0-0.6-0.1-1.1-0.1c0,0.7,0.1,1.2,0.1,2l3.4-1.1C277.8,80.9,277.9,81,278,81.1z"/>
				</g>
			</g>
			<path class="st1" d="M157.5,126.9c0,0,0.5,7.4,2.5,13.9c2,6.4,2.3,3.5,2.3,3.5l-3.8-19.4L157.5,126.9z"/>
			<path class="st1" d="M152.9,78.9l-0.6,9.1l-1.2-2c0,0-1.8-6.9-0.9-8.7S152.9,78.9,152.9,78.9z"/>
		</g>
		<polygon class="st1" points="172.9,199.7 164.7,161.3 166.7,160.9 174.6,198 		"/>
		<polyline class="st1" points="169.2,160.2 175.5,195 178.1,191.8 171.6,159.4 		"/>
	</g>
	<path class="st1" d="M149.3,61.5c0,0,5.4-5.5,6.7-5.3c1.3,0.2-1.6,1.9-1.6,1.9s-2.6,1.4-2.8,2.7s-1.6,2.6-1.6,2.6L149.3,61.5z"/>
</g>
</svg>
