<?xml version="1.0" encoding="utf-8"?>
<!-- Generator: Adobe Illustrator 21.1.0, SVG Export Plug-In . SVG Version: 6.00 Build 0)  -->
<svg version="1.1" id="Layer_1" xmlns="http://www.w3.org/2000/svg" xmlns:xlink="http://www.w3.org/1999/xlink" x="0px" y="0px"
	 viewBox="0 0 360 360" style="enable-background:new 0 0 360 360;" xml:space="preserve">
<style type="text/css">
	.st0{fill:#464646;}
	.st1{fill:#46464A;}
</style>
<path class="st0" d="M175,149.9"/>
<g>
	<g id="qSxGTY.tif_1_">
		<g>
			<path class="st1" d="M283,224.7c-1.7-0.5-3.5-0.8-5.3-1.1c-1-0.2-2-0.3-2.9-0.2c-3.6,0.4-7.2,1-10.8,1.3c-4,0.4-8.1,0.4-12.2,1
				c-2.8,0.4-5.4,1.4-8,2.4c-1.4,0.5-2.8,1.4-4.1,2.2c-1.6,1-3.1,2.1-4.5,3.3c-1.3,1.1-2.5,2.4-3.7,3.6c-1.6,1.7-3.4,3.2-4.8,5.1
				c-1.6,2-3.5,3.6-5.5,5.1c-1.3,1-2.6,2.2-3.8,3.4c-0.9,0.8-1.6,1.8-2.4,2.7c-1.1,1.3-2.4,2.4-3.3,3.8c-1.5,2.4-2.8,4.9-4.3,7.4
				c-0.3,0.5-0.7,1.1-1,1.6l-0.3-0.1c0.1-0.9,0.3-1.8,0.3-2.7c-0.1-1.2,0.5-2.2,1.1-3.1c1.4-2.1,2.9-4.2,4.4-6.3
				c0.3-0.4,0.4-1,0.6-1.4c0.4-1.1,0.8-2.2,1.3-3.3c0.7-1.4,1.5-2.8,2.2-4.2c0.6-1.3,1.1-2.7,1.7-4.1c0.7-1.5,1.7-3,2-4.6
				c0.4-2.2,1.5-4.1,2.3-6.2c0.7-1.7,1.6-3.2,2.6-4.8c0.8-1.3,1.7-2.6,2.6-3.7c1.1-1.3,2.5-2.4,3.6-3.7c1.7-1.9,3.3-3.9,4.9-5.8
				c1.3-1.7,2.6-3.4,3.9-5.2c0.2-0.3,0.4-0.7,0.3-1c-0.2-1.4-2.5-2.5-3.7-1.6c-2.5,1.7-5.3,2.4-8.2,3c-1.2,0.2-2.4,0.5-3.4,1.1
				c-2,1.2-3.9,2.5-5.7,4c-1.9,1.5-3.6,3.2-5.3,4.9c-0.7,0.7-1.3,1.4-1.9,2.1c-0.9,1-1.9,1.9-2.9,3c0-0.1,0-0.2,0-0.2
				c-0.7,0.6-1.3,1.3-1.9,2c0,0.1,0.1,0.2,0.1,0.3c-0.7,0.8-1.5,1.7-2.1,2.4c0-0.1,0-0.1,0-0.2c-0.5,0.6-1,1.3-1.6,1.9
				c-0.3,0.3-0.6,0.7-0.9,1c-0.1,0.3-0.3,0.6-0.5,0.9c-1.3,1.7-2.8,3.3-4,5c-1.2,1.8-2.2,3.8-3.3,5.7c-1.2,2.1-2.5,4.1-3.6,6.3
				c-1,1.8-1.7,3.8-2.6,5.7c-1,2.3-2,4.6-2.9,7c-0.7,1.7-1.3,2.3-3.1,2.2c-1.6-0.1-3.1,0.2-4.5,0.8c-1.4,0.6-2.8,1.2-4.1,1.9
				c-0.5,0.2-0.9,0.6-1.2,1c-0.4,0.5-0.6,1-0.8,1.6c0-1.6,0.3-3.2,0.3-4.7c0-2,1.8-3.5,1.3-5.5c0,0,0-0.1,0-0.1
				c0.6-1.6,1.3-3.2,1.8-4.9c0.4-1.3,0.5-2.6,0.5-3.9c0-0.9-0.2-1.9-0.4-2.9c0-0.3,0-0.6,0-0.8c-0.6-2.2-1.1-4.4-1.7-6.5
				c-0.8-2.5-1.1-5.2-1.3-7.8c-0.1-1.1-0.2-2.2-0.3-3.3c-0.1-1.4-0.5-2.9-0.4-4.3c0.2-1.7-0.2-3.1-0.9-4.6c-0.1-0.3-0.5-0.6-0.8-0.8
				c-1.4-0.7-3.2,0.2-3.7,1.7c-0.3,1-0.8,1.9-1.3,2.9c-0.3-0.4-0.5-0.7-0.6-1c-1-2-2.1-3.9-2.9-6c-0.5-1.5-1.1-2.9-2.3-3.9
				c-1.3-1.1-2.9-0.8-3.7,0.7c-0.7,1.3-1,2.7-1,4.2c0.1,2.7,0.1,5.4,0.2,8.1c0,0.8,0.2,1.5,0.3,2.3c0.3,1.9,0.5,3.9,0.9,5.8
				c0.3,1.6,0.7,3.2,1.2,4.7c0.4,1.2,1,2.3,1.6,3.5c0.5,1.1,1.1,2.1,1.6,3.1c0.2,0.4,0.3,0.7,0.5,1.1c0.3,0.7,0.7,1.4,1,2.1
				c0.1,0.2,0.3,0.4,0.4,0.7c0.5,1,1,1.9,1.3,3c0.4,1.1,0.6,2.2,0.9,3.3c-0.1,0.1-0.2,0.2-0.3,0.3c-0.2-0.4-0.5-0.8-0.8-1.1
				c-1.5-1.7-3-3.4-4.6-5c-1.1-1.1-2.3-2-3.5-2.9c-1.9-1.4-3.9-2.7-5.8-4c-2.4-1.6-4.8-3.2-7.2-4.9c-1.5-1-2.9-2.2-4.4-3.2
				c-1.9-1.2-4-1.9-6.2-2.6c-0.9-0.3-1.8-0.6-2.7-0.8c-1.2-0.2-2.3-0.2-3.5-0.2c-1-0.1-1.9-0.1-2.9-0.2c-1.8-0.2-3.5-0.5-5.3-0.5
				c-1.5,0-3.1,0.2-4.6,0.4c-1.2,0.2-2.5,0.3-3.7,0.7c-1.6,0.5-3.2,1.3-4.8,1.9c-0.8,0.3-1.6,0.8-2.3,0.7c-1.8-0.2-3.4-0.2-5.1,0.3
				c-2.2,0.6-3.3,2.2-2.8,4.2c0.5,1.9,1.7,3.4,3.5,3.9c3.9,1.1,6.7,4,10,6c1.2,0.7,2.3,1.7,3.6,2.2c1.6,0.6,3.4,0.8,5.1,1.2
				c0.8,0.2,1.5,0.6,2.2,0.8c1.7,0.6,3.4,1.1,5,1.7c2.8,1,5.5,2,8.3,3c1.4,0.5,2.8,1.1,4.2,1.7c0.9,0.3,1.8,0.8,2.7,1
				c1.8,0.4,3.7,0.7,5.6,1c0.8,0.1,1.7,0.3,2.5,0.4c0.7,0.1,1.4,0,2.1,0.1c0.9,0.1,1.8,0.5,2.7,0.6c2.4,0.3,4.8,0.6,7,1.6
				c2.2,1,4.3,2,6.1,3.6c1.7,1.5,3.3,2.9,5.1,4.4c-0.3,0.5-0.5,0.9-0.7,1.4c-0.5,0.8-1.1,1.6-1.6,2.5c-1.2,2-2,4.1-2,6.5
				c0,0.9-0.3,1.8-0.2,2.7c0.2,1.8,0.5,3.6,0.9,5.4c0.4,1.4,1.1,2.8,1.5,4.2c0.6,2.1,2.4,3.5,3.6,5.1c0.7,0.9,1.8,1.5,2.6,2.3
				c1.8,2,3.7,3.8,6.1,5.1c0.2,0.1,0.2,0.5,0.3,0.8c0,0.2-0.1,0.4,0,0.6c0.3,0.9,0.7,1.8,1,2.8c0.7,1.8,1.4,3.6,2,5.4
				c0.1,0.2,0.1,0.4,0.1,0.6l-0.2,0.1c-0.5-0.6-1.1-1.2-1.5-1.9c-0.8-1.2-1.6-2.4-2.4-3.6c-0.7-1-1.4-2.1-2.2-3
				c-0.7-0.7-1.1-1.5-1.5-2.4c-0.4-0.9-1.2-1.6-1.8-2.4c-0.9-1.1-1.9-2.1-2.8-3.2c-0.5-0.7-0.9-1.5-1.5-2.1c-1.3-1.2-2.3-2.6-3.4-4
				c-0.8-1.1-1.8-2.1-2.7-3.1c-1.6-1.8-3.2-3.6-4.9-5.3c-1.1-1.1-2.6-1.9-3.8-2.9c-1.8-1.5-3.9-2.2-6-3.1c-0.7-0.3-1.5-0.3-2.2-0.7
				c-1.5-0.7-3-1.4-4.5-2.3c-1.6-0.9-3.2-2-4.7-3.1c-1.1-0.8-2-1.8-3.1-2.4c-2.6-1.4-5.2-2.6-7.8-4c-2.2-1.2-4.4-2.5-6.3-4
				c-1.3-1-2.7-1.6-4.2-2.2c-1.9-0.8-4-0.8-6-0.8c-2.6,0.1-4.3,2.2-6.2,3.7c-0.6,0.5-1.3,0.9-1.9,1.3c-0.4,0.3-1.2,0.5-1.3,0.9
				c-0.2,0.7-0.3,1.5,0.4,2.3c0.9,0.9,2,0.9,3,0.8c2.1-0.2,4.1-0.6,6.2-0.8c0.6-0.1,1.3,0.3,1.9,0.1c2.2-0.6,4.2,0.5,6.2,0.9
				c1.7,0.4,3.6,0.9,5.1,2.2c1.2,1.1,3,1.6,3.3,3.5c0,0.1,0.1,0.2,0.1,0.3c0.9,1.8,1.9,3.6,2.8,5.4c1,2,1.9,4,2.9,6
				c0.8,1.6,1.8,3.2,2.8,4.7c0.9,1.4,1.9,2.8,2.9,4.1c1.3,1.6,2.6,3.1,3.9,4.7c1.3,1.6,2.4,3.4,3.8,4.9c2.6,2.8,4.7,5.9,7.8,8.3
				c1,0.8,1.9,1.8,2.9,2.6c2,1.6,4.1,3.1,6.2,4.6c1.1,0.8,2.2,1.5,3.4,2.1c1.8,1,3.6,1.9,5.3,2.9c1.5,0.8,2.9,1.8,4.4,2.6
				c1.2,0.7,2.4,1.3,3.5,2c1.8,1.1,3.6,2.1,5.3,3.3c0.9,0.6,1.6,1.4,2.4,2.2c0.7,0.8,1.3,1.7,2.1,2.5c1.1,1.2,2.3,2.3,3.3,3.5
				c0.9,1.2,1.6,2.5,2.4,3.7c0.2,0.4,0.4,0.8,0.6,1.2c0.7,1.7,1.4,3.4,2.1,5c0.3,0.6,0.6,0.5,0.8,0.2c-0.2-0.8-0.3-1.5-0.5-2.1
				c-0.3-0.9-0.8-1.8-1.1-2.8c-0.6-2.2-0.9-4.4-1.6-6.6c-0.7-2.2-1.8-4.3-2.7-6.5c-0.5-1.2-1-2.4-1.5-3.6c-0.4-1.1-0.6-2.2-1-3.3
				c-0.9-2.4-1.7-4.8-2.6-7.1c-1-2.7-1.9-5.5-3.2-8.1c-1-1.9-1-4-1.7-6c-0.3-0.8,0-1.7,0-2.6c0-1.2-0.2-2.4-0.3-3.6
				c0-0.3-0.1-0.6-0.1-1c0.1-1.4,0.2-2.9,0.3-4.3c0.1-0.8,0.2-1.6,0.2-2.4c0.1,0,0.2,0,0.3,0c0,0.1,0.1,0.3,0.1,0.4
				c0,1.9,0,3.8,0,5.7c-0.1,2.3,0.6,4.6,1.1,6.8c0.2,0.7,0.9,1.2,1.5,1.7c0.4,0.4,0.9,0.6,0.9,1.3c0,0.6,0.1,1.2,0.3,1.8
				c0.9,3.4,1.9,6.7,2.9,10c0.9,2.9,1.9,5.7,2.9,8.6c0.8,2.1,1.6,4.2,2.4,6.3c1.4,4.1,2.6,8.3,4.9,12.1c0.4,0.6,0.8,0.7,1.4,0.4
				c0.6-0.4,0.8-0.9,0.7-1.5c-0.2-1.7-0.5-3.4-0.5-5.1c0.1-3.8,0.4-7.5,0.5-11.3c0.1-1.2,0-2.3,0-3.5c0.1-2.3,0.3-4.6,0.4-6.9
				c0.1-2.6,0-5.2,0-7.8c0-0.4-0.2-0.8-0.2-1.2c0.1-1.4,0.3-2.7,0.4-4.1c0.1-1.1,0.2-2.2,0.2-3.2c0-1.6-0.2-3.2-0.2-4.9
				c0-3.9,0-7.8,0-11.7c0-0.6,0.3-1.2,0.1-1.7c-0.7-1.7,0-3.4-0.1-5.1c-0.1-2.4,0-4.8,0-7.3c-0.4,0.1-0.6,0.2-0.9,0.3
				c0.6-1.2,1.3-2.4,0.7-3.9c-0.1-0.1,0.1-0.4,0.2-0.5c0.4-0.6,0.8-1.2,1.2-1.8c0.2-0.2,0.5-0.4,0.8-0.6c0.1,0.8,0.2,1.4,0.2,1.9
				c-0.1,1.6-0.3,3.1-0.4,4.7c-0.2,3.1-0.5,6.2-0.6,9.4c-0.1,2.7-0.2,5.5-0.2,8.3c0,1.2,0.1,2.4,0.1,3.6c0,2.2-0.1,4.4-0.1,6.6
				c0,2.9,0.2,5.9,0.2,8.8c0,3.4-0.3,6.8-0.4,10.3c-0.1,3-0.2,6.1-0.2,9.1c0,3.4-0.1,6.9,0,10.3c0.1,2.9,0.2,5.7,0.4,8.6
				c0,0.4,0.1,0.8,0.3,1c0.2,0.3,0.6,0.5,0.9,0.8c0.1-0.3,0.4-0.7,0.4-1c0-1.7-0.1-3.5-0.2-5.2c0-0.7,0.1-1.4,0-2
				c-0.4-1.9-0.1-3.7,0.2-5.6c0.2-1.5,0.1-3.1,0-4.6c-0.1-1.7-0.3-3.4-0.3-5.1c-0.1-1,0-2,0-3c0-0.6,0.1-1.2,0.1-1.8
				c0.1-1.6,0.3-3.2,0.4-4.8c0.1-1.6,0.2-3.2,0.3-4.7c0-1.1,0-2.1,0-3.2c0-2,0-3.9,0-5.9c0-1.1,0-2.2,0-3.4c0-1.1-0.2-2.1-0.1-3.2
				c0.1-0.9,0.2-1.9,0.7-2.5c1.1-1.4,2.5-2.7,3.9-3.9c2-1.9,4-3.7,6-5.6c1.5-1.5,3-3,4.5-4.5c0.8-0.8,1.5-1.5,2.3-2.3
				c0.6-0.6,1.3-1.2,1.9-1.9c1.1-1.3,2.2-2.7,3.3-4.1c0.4-0.5,0.8-0.9,1.3-1.4c0.8-0.9,1.2-2.2,2.4-2.8c0.2-0.1,0.3-0.3,0.4-0.5
				c0.4-0.9,1.1-1.5,1.8-2.2c0.8-0.7,1.6-1.3,2.3-2c1.3-1.3,2.5-2.7,3.8-4c1.1-1,2.2-2,3.4-3c1.6-1.3,3.3-2.6,5.1-3.8
				c1.3-0.9,2.6-1.7,4-2.6c2.3-1.5,4.7-3.1,7-4.6c1.1-0.7,2.1-1.5,3.2-2.3c0.2-0.1,0.3-0.3,0.5-0.3c1.5-0.1,2.3-1.3,3.5-1.9
				c0.3-0.2,0.5-0.5,0.8-0.6c0.7-0.2,1.5-0.2,2.1-0.6c1.2-0.6,2-1.8,3.5-1.9c0.2,0,0.4-0.1,0.4-0.2c0.5-0.8,1.2-1.2,2.1-1.4
				c0.8-0.2,1.4-0.8,2.2-1.2c1.2-0.6,2.5-1,3.6-1.7c1-0.6,1.9-1.6,2.8-2.4c0.7-0.5,1.2-1.1,0.7-2C284.2,225.7,283.6,224.9,283,224.7
				z M104,265.7c1.5-1.4,2.5-3.3,4.4-4c0.7-0.2,1.5-0.4,2.2-0.3c1.5,0.2,3,0.4,4.4,0.8c2.3,0.7,4.4,1.8,6.2,3.5
				c0.6,0.6,1.1,1.1,1.6,1.9C116.8,264.7,110.5,264.7,104,265.7z M185.5,323c1.2,1.8,2,3.7,2.8,5.6c0.8,1.8,1.4,3.7,2.1,5.5
				c0.5,1.1,1,2.2,1.5,3.3c0.1,0.2,0.1,0.5-0.1,0.8c-0.9-1-2-2-2.8-3.2c-1.4-2.2-3.3-3.9-5.5-5.2c-2-1.2-3.9-2.7-6-3.9
				c-1.5-0.9-3.2-1.7-4.8-2.6c-1-0.6-2.1-1.1-3.1-1.7c-1.1-0.6-2.3-1.3-3.4-2c-1.1-0.7-2.2-1.5-3.4-2.3c-0.7-0.5-1.6-0.9-2.3-1.4
				c-0.7-0.5-1.4-1.1-2.1-1.6c-0.7-0.5-1.3-0.9-2-1.4c-0.2-0.1-0.2-0.3-0.4-0.5c-0.6-0.6-1.2-1.2-1.8-1.8c-1-0.9-2.1-1.6-3-2.5
				c-1.2-1.2-2.2-2.6-3.3-3.9c-1.1-1.4-2.1-2.8-3.2-4.2c-0.8-1-1.8-1.9-2.6-2.9c-1-1.2-2-2.5-2.9-3.9c-1.5-2.1-3.1-4.2-4.4-6.4
				c-1.3-2.3-2.3-4.8-3.5-7.2c-0.6-1.3-1.4-2.5-2-3.7c-0.3-0.7-0.5-1.4-0.7-2.1c-0.4-1.3-0.8-2.6-1.2-3.9c-0.1-0.3,0-0.6-0.1-0.9
				c0.3,0,0.6-0.1,0.8,0c0.7,0.4,1.4,0.8,2.1,1.2c1,0.6,2,1,3,1.7c1.5,1,3,2.1,4.5,3.2c1.3,1,2.6,2.1,3.8,3.3c1,1,2,2,3,3l-0.2,0.2
				c-0.7-0.3-1.4-0.6-2.1-0.9c-0.1,0.1-0.1,0.2-0.2,0.3c0.4,0.3,0.8,0.6,1.1,0.9c2.2,1.6,4.5,2.8,6.3,4.9c1.3,1.5,2.7,2.8,4,4.2
				c0.7,0.7,1.4,1.3,2,2c0.9,1.2,1.7,2.5,2.6,3.8c1.3,1.8,2.5,3.6,3.9,5.3c1.6,2,3.5,3.8,5.2,5.6c0.5,0.6,1,1.3,1.5,1.9
				c0.7,0.8,1.4,1.5,2.1,2.3c0.6,0.7,1.1,1.4,1.6,2c1.5,1.9,2.9,3.9,4.4,5.8c1.6,2,3.3,4.1,5,6c1.4,1.6,3,3,4.5,4.6
				c0.5,0.5,1,1.2,1.4,1.8l0.5-0.3c-0.2-0.5-0.4-1.1-0.7-1.5c-1.2-1.4-2.4-2.7-3.6-4c-0.2-0.2-0.3-0.4-0.4-0.7
				c-1.1-0.4-1.4-1.4-2-2.2c-1.3-1.7-1.5-3.9-2.2-5.8c-0.9-2.3-1.8-4.7-2.7-7.1c0-0.1-0.1-0.2-0.2-0.3c-0.4,1.3-0.2,0.5,0.8,3.7
				c0.6,1.8,1.2,3.6,1.9,5.4c0.1,0.2,0,0.4-0.1,0.6c-1-1.2-2-2.2-2.8-3.3c-0.4-0.6-0.3-1.6-0.6-2.4c-0.7-2.1-1.5-4.2-2.3-6.3
				c-0.2-0.6-0.6-1.3-0.9-1.9c-0.1-0.2-0.3-0.4-0.5-0.6c0,0.3-0.2,0.5-0.1,0.7c0.4,1.1,1,2.2,1.4,3.4c0.7,1.7,1.3,3.5,2,5.2
				c-0.1,0-0.2,0.1-0.2,0.1c-0.8-1.1-1.7-2.2-2.5-3.3c-0.3-0.4-0.7-0.6-1-1c-0.4-0.5-0.8-1.1-1-1.7c-0.9-2.4-1.7-4.9-2.6-7.4
				c-0.3-0.9-0.6-1.7-1-2.6c-0.1-0.2-0.3-0.4-0.5-0.7l-0.3,0.2c1,2.8,2,5.6,2.9,8.4c-0.1,0.1-0.3,0.2-0.4,0.2
				c-0.9-1.1-1.9-2.1-2.8-3.2c-0.3-0.4-0.8-0.7-1-1.2c-0.8-1.7-1.5-3.4-2.2-5.1c-0.8-1.7-1.6-3.4-2.4-5c-0.3-0.6-0.6-1.2-0.9-1.8
				c-0.1,0.1-0.2,0.1-0.4,0.2l4.2,9.4c-0.1,0.1-0.2,0.2-0.4,0.2c-0.6-0.8-1.3-1.4-1.8-2.3c-0.8-1.3-1.3-2.8-2.1-4.2
				c-0.7-1.3-1.5-2.6-2.3-3.9c-0.1-0.1-0.2-0.2-0.6-0.1c0.7,1.3,1.4,2.6,2.1,3.9c0,0-0.1,0.1-0.1,0.1c-0.2-0.2-0.4-0.3-0.6-0.6
				c-1-1.3-2-2.5-3-3.8c-1.5-1.8-3-3.6-4.5-5.3c-1-1.2-2-2.5-3-3.7c-0.1-0.2-0.1-0.4-0.2-0.6c0.2,0,0.4-0.2,0.5-0.1
				c1.3,0.5,2.5,1.1,3.8,1.7c2.2,1,4.2,2.4,6,4.1c1.7,1.6,3.4,3.2,5,5c1.4,1.5,2.6,3.1,3.9,4.6c0.7,0.8,1.5,1.6,2.2,2.4
				c1,1.1,1.9,2.3,2.8,3.5c1,1.3,2.1,2.4,3.1,3.7c0.7,1,1.3,2.1,2,3.1c1.4,2.1,2.9,4.1,4.3,6.2C182.1,317.3,183.6,320.3,185.5,323z
				 M206.5,276.8c0-0.6,0.1-1.3,0.1-1.9c-0.1-1.5,0.3-2.7,0.8-4.1c1-3,2.5-5.7,4.1-8.4c0.1-0.2,0.2-0.4,0.2-0.6
				c0.1,0.1,0.3,0.2,0.4,0.3c-1.9,6.7-3.7,13.5-5.6,20.2c-0.1,0-0.2-0.1-0.4-0.1C206.2,280.4,206.3,278.6,206.5,276.8z M177.9,265.1
				c2.3-0.9,4.7-0.9,7-0.4c0.6,0.1,1.3,0.1,1.9,0.2c0.3,0,0.7,0.2,0.7,0.4c0.6,2.3,1,4.7,0.5,7.1c-0.1,0.6-0.6,1.5,0.6,2.1
				c0.2-0.4,0.5-0.8,0.5-1.2c0.1-1.2,0.1-2.4,0.2-3.6c0-0.5,0.2-0.9,0.2-1.4c0-1,0-1.9,0-2.9c0-0.7,0.2-1.1,1-1.3
				c1.5-0.4,2.8,0,4.1,0.5c1.4,0.6,2.8,1.2,4.2,1.8c1.9,0.9,2.1,2.9,0.3,4c-1.2,0.8-2.7,1.3-3.9,2.1c-1.8,1.1-3.2,2.7-4.4,4.5
				c-0.6,0.9-1.4,1.7-2.2,2.4c-0.2,0.2-1,0.1-1.3-0.1c-0.8-0.7-1.5-1.6-2-2.5c-0.9-1.5-2.1-2.5-3.5-3.5c-0.3-0.2-0.8-0.2-1.2-0.3
				c-0.8-0.2-1.2-0.8-1.4-1.6c-0.4-1.4-1-2.7-2.1-3.6C176.4,267.1,177,265.4,177.9,265.1z M184.8,284.1c0.9-0.7,1.5-2,3.1-2.2
				c-1.2,1.4-2.2,2.5-3.3,3.7l-0.2-0.1C184.6,285.1,184.5,284.4,184.8,284.1z M184.4,280.4c0,0-0.6,0.1-0.6,0
				c-0.6-1.3-1.2-2.6-1.8-3.9c0.1-0.1,0.2-0.2,0.4-0.2c0.4,0.5,0.9,0.9,1.3,1.4c0.3,0.4,0.6,0.8,0.7,1.3
				C184.5,279.4,184.4,279.9,184.4,280.4z M184.8,283.3c0.4-2.6,0.4-2.6,2.2-2.3C186.2,281.8,185.6,282.5,184.8,283.3z M181.6,277.7
				c-0.6-0.9-1-1.7-1.5-2.4C181.7,275.3,181.9,275.6,181.6,277.7z M161.1,240.6c-0.1,0-0.1,0-0.2,0c-0.4-0.9-0.7-1.8-1.1-2.8h1.3
				V240.6z M158.6,235.3c-0.2-0.6-0.3-1.2-0.4-1.6c0.9,0.6,1.9,1.2,2.8,1.9c0.3,0.2,0.3,0.8,0.4,1.3
				C159.6,237,159,236.6,158.6,235.3z M161.4,234.8c-1.1-0.3-2-1-2.6-2.1c-0.3,0.2-0.5,0.3-1,0.6c-0.5-2.6-0.9-5.1-1.4-7.7
				c1.7,2.1,3.4,4.2,5,6.2l-0.2,0.2c-0.7-0.5-1.4-1-2-1.7c-0.6-0.6-1.1-1.4-1.6-2.1l-0.3,0.1c0,0.3,0,0.6,0.2,0.8
				c0.8,1.1,1.5,2.2,2.4,3.1c0.3,0.3,1.1,0,1.8,0C161.6,233,161.5,233.8,161.4,234.8z M162.1,231c-0.4-1.1-0.8-2-0.9-2.9
				c0-0.2,0.5-0.6,0.8-0.9c0.7-0.5,1-1.6,0.7-2.3c-0.5,0.7-1,1.4-1.7,2.3c-0.3-1-0.9-1.7-0.1-2.6c0.5-0.5,0.6-1.2,1-1.9
				c-1.3-0.1-0.8,1.3-1.5,1.6c-1.3-2.8-1.1-6.1-2.8-8.8c-0.1-0.1-0.3-0.1-0.7-0.2c0.6,2.7,1.2,5.3,1.8,8c-0.5-0.2-0.8-0.4-1.2-0.6
				c0.3,0.9,0.4,1.8,1.5,1.6c0.4,1.5,0.8,3,1.3,4.5c-0.1,0.1-0.2,0.1-0.3,0.2c-0.7-1-1.4-2-2.2-3c-0.3-0.4-0.8-0.6-1.2-1
				c-0.2-0.3-0.5-0.6-0.5-1c-0.2-2.1-0.4-4.3-0.4-6.5c0-1.6,0.2-3.1,0.4-4.7c0.1-0.4,0.6-1,0.8-1c0.5,0,1,0.4,1.4,0.8
				c1.4,1.3,1.6,3.2,2.3,4.9c0.5,1.4,1.2,2.7,1.9,4c0.4,0.8,1,1.6,1.4,2.5c0.2,0.3,0,0.8-0.1,1.2C163.4,227.2,162.8,228.9,162.1,231
				z M166.5,264.3c-0.3-0.3-0.7-0.6-1-0.8c-1.3-0.7-2.6-1.4-3.8-2.1c-1.2-0.7-2.4-1.5-3.7-2c-1-0.4-2-0.6-3.1-0.8
				c-3-0.5-6.1-0.8-9.1-1.2c-1.8-0.2-3.6-0.3-5.4-0.7c-1.4-0.3-2.7-1-4.1-1.5c-2.7-1.1-5.4-2.3-8.1-3.3c-2.1-0.8-4.2-1.4-6.4-2.1
				c-1.5-0.5-3.1-1-4.6-1.4c-1.2-0.3-2.5-0.3-3.7-0.7c-1.4-0.5-2.9-1-4.1-1.8c-1.7-1.1-3.3-2.3-4.8-3.6c-2.4-2.1-5.4-3-7.9-4.8
				c-0.5-0.3-0.8-1-0.9-1.6c0-0.3,0.6-0.8,1.1-1c1.3-0.6,2.6-0.8,4-0.5c1.8,0.4,3.5-0.2,5.1-1c2.5-1.2,5-1.9,7.7-2.1
				c1,0,2-0.3,3-0.4c0.5,0,1,0.1,1.5,0.1c1.4,0.1,2.8,0.2,4.1,0.3c1.5,0.1,3.1,0.4,4.6,0.5c1.6,0,3.1,0.5,4.6,0.9
				c2.3,0.7,4.7,1.3,6.8,2.8c1.8,1.2,3.3,2.8,5.1,4.2c1.2,0.9,2.5,1.7,3.8,2.6c1.6,1.1,3.2,2.3,4.8,3.4c0.1,0.1,0.3,0.2,0.4,0.3
				c3,1.4,5.5,3.6,7.9,5.8c1.7,1.5,2.9,3.4,4.3,5.1c0.4,0.4,0.8,0.8,1.1,1.2c0,0.1-0.1,0.1-0.1,0.2c-0.3-0.2-0.6-0.3-0.9-0.5
				c-1.7-1.3-3.4-2.5-5-3.8c-1-0.8-1.8-1.8-2.8-2.6c-1-0.8-2.1-1.4-3.1-2.1c-0.6-0.4-1.2-0.8-1.8-1.2c-0.1-0.1-0.2-0.1-0.3-0.2
				c-0.4-1.2-0.4-1.2-1.7-1.7c0.3,0.5,0.5,0.8,0.9,1.4c-0.7-0.2-1.3-0.3-1.8-0.5c-1.1-0.4-2.1-0.8-3.1-1.4c-0.5-0.3-0.7-0.9-1.1-1.3
				c-1.7-1.5-3.4-3-5.1-4.4c-0.7-0.6-1.4-1.2-2.1-1.7c-0.2-0.1-0.4-0.1-0.6-0.1c0.1,0.2,0,0.5,0.2,0.6c2.5,2.2,4.9,4.4,7.6,6.7
				c-1.3-0.4-2.4-0.6-3.4-1.1c-0.4-0.2-0.6-0.9-1-1.3c-2.3-2.6-4.7-5.2-7.7-7.1c-1-0.6-2-1.4-3-2.2c-0.2-0.1-0.4-0.2-0.7-0.3
				c-0.1,0.1-0.1,0.2-0.2,0.3c0.6,0.6,1.1,1.2,1.7,1.7c2.4,2,5.1,3.6,7.1,6.1c0.6,0.8,1.5,1.4,2.3,2.1c0,0.1-0.1,0.2-0.1,0.3
				c-0.3,0-0.7,0-1-0.1c-2.4-0.9-4.8-1.3-7.3-1.8c-2-0.4-4.1-0.5-6.1-1c-2.4-0.6-4.8-0.9-7.3-0.9c-2.4,0-4.9-0.6-7.2-1.2
				c-1.9-0.5-3.8-1.2-5.6-2c-0.8-0.3-1.4-1-2.1-1.5c-0.2,0.9,0.7,2.5,1.9,2.8c2,0.6,3.8,1.6,5.8,2.3c2.2,0.8,4.4,0.9,6.6,1.2
				c2.6,0.3,5.1,1.1,7.7,1.5c2.7,0.5,5.4,0.7,8.1,1.1c0.6,0.1,1.1,0.2,1.7,0.3c2.2,0.6,4.4,1.3,6.5,1.9c1.3,0.4,2.6,0.8,4.1,1.2
				c-2.6,1.5-5.7,1.4-7.8,3.6c2.4-0.9,4.7-1.6,6.9-2.5c1.9-0.7,3.6-0.6,5.1,0.7c-2.9,1.2-5.7,2.4-8.5,3.7c0.1,0.2,0.1,0.3,0.2,0.5
				c0.7-0.2,1.3-0.3,2-0.6c2.4-1,4.7-2,7.1-2.9c0.5-0.2,1.2,0.1,1.7,0.4c0.7,0.4,1.4,0.9,2.1,1.4c-0.1,0.1-0.2,0.3-0.3,0.3
				c-2.4,0.7-4.8,1.4-7.2,2.2c-0.9,0.3-1.6,1-2.2,1.8c1.2-0.5,2.4-1.1,3.7-1.6c0.6-0.2,1.3-0.2,1.9-0.4c1.2-0.4,2.5-0.7,3.6-1.2
				c1.1-0.6,1.8-0.1,2.6,0.5c1.7,1.4,3.4,2.7,5.1,4.1c0.6,0.5,1.1,1.1,1.6,1.7c1.1,1.4,2.2,2.8,3.3,4.2
				C166.5,263.7,166.6,263.9,166.5,264.3z M169.7,264c-0.6-1.7-1.2-3.3-1.9-4.9c-1-2.3-1.1-4.8-2.4-7c-0.6-1.1-0.8-2.4-1.2-3.6
				c-0.8-2.7-1.1-5.5-1-8.3c0.1-2.4,0.5-4.7,1-7.1c0.6-3.1,1.4-6.2,2.2-9.3c0.4-1.6,1.1-3.2,1.6-4.8c0.2-0.5,0.5-0.6,0.9-0.2
				c0.3,0.4,0.6,0.8,0.7,1.2c0.3,1.2,0.6,2.4,0.8,3.6c0.1,0.9,0,1.9,0,2.9c0.2,4,0.5,7.9,1.4,11.8c0.4,1.6,0.7,3.2,1.1,4.8
				c0.1,0.2,0,0.5,0,0.7l0,0c0.3,0.8,0.6,1.5,0.8,2.3c0.4,2.6,0.5,5.2-0.4,7.7c-0.2,0.6-0.6,1.1-0.8,1.6c-0.3,0.8-0.6,1.6-1,2.7
				c-0.1-1.4-0.2-2.7-0.4-3.9c-0.3-2.5-0.7-5-1.1-7.4c-0.3-2.1-0.7-4.1-1-6.2c-0.3-1.7-0.6-3.4-0.8-5c0-0.2-0.1-0.3-0.1-0.5
				c0.1-1.2,0.2-2.3,0.3-3.5c0.1-1.6-0.4-3.2,0.1-4.8c0.1-0.5-0.1-1-0.2-1.6c-0.1-0.9-0.1-1.8-0.1-2.9c-0.2,0.2-0.6,0.3-0.6,0.5
				c-0.2,1.6-0.6,3.2-0.3,4.9c0.3,1.7,0.1,3.5,0.1,5.2c0,0.6-0.1,1.3,0,1.9c0.2,2.2,0.4,4.4,0.7,6.5c0.5,3.1,1,6.2,1.5,9.3
				c0.1,0.5,0.1,1,0,1.7c-0.6-0.6-1.2-1.2-1.7-1.7c-0.4-0.4-0.8-0.8-1.2-1.2c0,0-0.2,0.2-0.2,0.2c0.3,0.4,0.5,0.9,0.8,1.2
				c0.7,0.8,1.5,1.6,2.1,2.4c0.3,0.4,0.5,1,0.6,1.6c0.1,0.5,0,1,0,1.7c-0.8-0.8-1.6-1.5-2.3-2.2l-0.2,0.2c0.5,0.8,1,1.6,1.5,2.4
				c0.4,0.6,1.1,1.1,1.3,1.8C170.6,260.4,170.8,262.2,169.7,264z M181.8,287.8c-2.6-5.3-4-11.1-8.5-15.3c3.4,5.2,5.8,10.9,8.1,17
				c-0.2,1.8-0.5,4-0.8,6.4c-2.4-3.8-4.7-7.4-7.1-11.2c0,0.3,0,0.7,0.1,1c1,2.5,2.3,4.7,3.8,6.9c1.3,1.9,2.7,3.8,3.3,6.1
				c0,0.1,0.1,0.3,0.1,0.4c0,1.4,0,2.8,0,4.2c-0.6-0.3-1.3-0.6-1.9-1.1c-1.3-1.3-2.6-2.7-3.9-4c-0.6-0.6-1.2-1.2-1.8-1.8
				c-2.3-2.1-3.6-4.7-4.9-7.5c-0.7-1.5-0.3-2.9-0.7-4.3c-0.3-0.8-0.7-1.6-0.8-2.5c-0.1-0.7,0-1.5,0.1-2.3c0-0.5-0.1-1,0.1-1.5
				c0.8-2.8,2.5-5.1,4.3-7.3c0.5-0.6,1-1.2,1.4-1.8c0.7-1.1,2.5-0.9,3.6,0.3c1.1,1.1,1.2,2.6,1.9,3.9c0.2,0.5,0.3,1,0.6,1.7
				c-1.4-1.7-2.8-3.2-4.2-4.8c-0.1,0.1-0.2,0.1-0.3,0.2c0.4,0.7,0.6,1.6,1.1,2.2c2.6,2.7,4.2,6,5.3,9.5c0.5,1.5,1,2.9,1.5,4.4
				C182.3,286.8,182,287.3,181.8,287.8z M182.5,284.8l-1.9-5.7c0.1,0,0.2-0.1,0.3-0.1c0.3,0.6,0.5,1.2,0.8,1.7
				c0.4,0.9,0.8,1.7,1.1,2.6c0.2,0.4,0.1,1,0.1,1.5C182.8,284.7,182.7,284.8,182.5,284.8z M186.2,301.8c-0.1,0.5,0,1-0.1,1.5
				c0,0.2-0.3,0.4-0.4,0.6c-0.2-0.1-0.3-0.3-0.5-0.4c-1.2-1-1-2.6-1.2-3.9c-0.3-1.6-0.4-3.2-0.4-4.9c0-2.2-0.2-4.5,0.5-6.6
				c0.3-0.9,1-1.8,1.7-2.6c0.6-0.7,1.3-1.4,2-2c1-0.9,2-1.7,3-2.6c0.9-0.9,1.8-1.9,2.6-2.8c0-0.1-0.1-0.2-0.1-0.3
				c-0.5,0.2-0.9,0.4-1.4,0.6c0.4-1.9,3.2-4.4,5.4-4.9c-1.1,1.8-2.1,3.3-3.1,5c-0.8,1.3-2,2.4-2.3,4c0,0.2-0.4,0.3-0.6,0.5
				c-2.4,2.1-4.7,4.3-6.5,6.9c0,0.1-0.1,0.1-0.1,0.2c2-1.8,3.9-3.6,5.9-5.4c0.1,0,0.2,0.1,0.2,0.1c-0.6,1.6-1.1,3.3-1.7,4.9
				c-1.1-0.3-3.5,1.8-4,3.9c1.2-1.1,2.3-2.1,3.5-3.2c0,0.6,0.1,0.9,0,1.2c-0.3,1.5-0.7,2.9-1,4.4C187.1,298,186.6,299.9,186.2,301.8
				z M201.3,272.6c-0.2,0.6-0.7,1.1-0.7,1.7c0,2.1,0.1,4.1,0.2,6.2c0,1.3-0.2,2.6-0.2,3.9c0,1.9,0.1,3.7,0.2,5.6
				c0.2,3.1,0.2,6.1-0.2,9.2c-0.3,2.1,0,4.3-0.1,6.4c-0.1,2.1-0.3,4.2-0.4,6.4c-0.1,1.1,0,2.2,0,3.3c-0.1,2.2-0.3,4.5-0.4,6.7
				c0,0.8,0.1,1.7,0.2,2.5c0,0.7-0.1,1.3-0.1,2c-0.2,2.5-0.3,5.1-0.5,7.6c0,0.6,0.1,1.1,0.1,1.7c0,1.3,0,2.5,0,3.8l-0.3,0.1
				c-0.3-0.4-0.6-0.8-0.8-1.3c-1-2.7-1.9-5.4-2.9-8.1c-1.1-3-2.2-5.9-3.3-8.9c-0.9-2.3-1.7-4.6-2.5-7c-0.7-2.2-1.3-4.5-1.9-6.8
				c-0.1-0.4-0.2-0.7-0.3-1c-0.4-0.7-0.4-1.3,0.2-2c0.7-0.8,1-1.8,1-2.9c0.1-1.8,0.4-3.5,0.6-5.2c0.5-3.6,2-6.8,3-10.2
				c0.6-2.1,1.6-3.9,2.8-5.6c0.6-0.9,1-2,1.5-3c0.1-0.2,0.2-0.5,0.4-0.7c1.3-1.6,2.6-3.1,3.9-4.7c0.2-0.2,0.5-0.4,0.7-0.6
				C201.5,271.9,201.4,272.3,201.3,272.6z M202.2,264.1c-1,1.2-1.1,1.1-2.4,0.3c-0.3-0.1-0.5-0.3-0.9-0.5c0.4-0.5,0.8-0.9,1.1-1.2
				c0-0.1,0-0.1-0.1-0.2c-0.6,0.2-1.1,0.5-1.7,0.6c-0.6,0.1-1.2-0.1-1.7-0.2c0-0.2,0-0.3,0-0.5c2.7-0.8,5.4-1.5,8.2-2.3l0.1,0.2
				C204,261.7,203.2,263,202.2,264.1z M205.2,259.6c-2.1,0.5-4.1,0.9-6.2,1.4c-1.2,0.3-2.3,0.7-3.7,0.8c0.3-0.3,0.5-0.8,0.9-1
				c1.6-0.6,3.2-1.1,4.7-1.7c0.6-0.2,1.1-0.6,1.6-0.9c-0.1-0.1-0.1-0.2-0.2-0.4c-2.1,0.8-4.3,1.5-6.6,2.3c0.3-0.8,0.4-1.5,0.7-2.2
				c1.2-2.4,2.4-4.8,3.8-7.1c0.4-0.7,1.3-1.1,2.1-1.5c0.9-0.5,1.8-1,2.8-1.5c-0.5-0.5-1-0.4-2.1,0.4c-0.6,0.5-1.3,0.9-2.1,1.1
				c0.4-0.6,0.8-1.2,1.2-1.9c0.6-0.9,1.2-1.8,1.7-2.8c0.7-1.3,1.2-2.6,1.9-3.9c0.7-1.2,1.6-2.3,2.4-3.4c0.6-0.8,1.2-1.6,1.7-2.5
				c0.8-1.2,1.5-2.5,2.2-3.7c0.4-0.6,0.9-1,1.2-1.6c0.7-1,1.3-2.2,2.2-3c1-1.1,2.2-1.9,3.4-2.8c1.6-1.2,3.2-2.3,4.8-3.5
				c0.2-0.2,0.3-0.4,0.5-0.7c-0.1-0.1-0.2-0.2-0.2-0.3c-2.4,1.8-4.8,3.6-7.2,5.4c0,0-0.1-0.1-0.1-0.1c0.4-0.5,0.9-1,1.3-1.6
				c0.5-0.6,1-1.3,1.4-2c0.7-1.6,2.3-2.2,3.4-3.4c1.4-1.4,2.7-2.8,4-4.2c0.8-0.8,1.7-1.5,2.5-2.3c0.3-0.3,0.4-0.7,0.6-1
				c-0.4,0.1-0.8,0.1-1.1,0.3c-0.8,0.6-1.5,1.2-2.2,1.9c-1,1-1.9,2-2.9,2.9c-1.1,1-2.3,2-3.2,3.1c-1.5,1.8-2.9,3.7-4.4,5.5
				c-0.6,0.7-1.2,1.4-1.8,2.1c-0.1,0-0.1,0-0.2,0c0.5-1.5,0.9-3,1.4-4.6c-0.1,0-0.1-0.1-0.2-0.1c-0.1,0.2-0.3,0.3-0.4,0.5
				c-0.4,1.2-1.2,2.4-1.2,3.6c-0.1,2.4-1.9,3.8-2.9,5.6c-0.3,0.6-0.7,1.1-1,1.7l-0.3-0.1c0.2-1.2,0.4-2.3,0.6-3.5
				c-0.1,0-0.2-0.1-0.3-0.1c-0.2,0.5-0.5,1-0.6,1.5c-0.2,1-0.3,2.1-0.4,3.2c0,0.3-0.1,0.6-0.2,0.9c-1.2,1.9-2.5,3.8-3.7,5.7
				c-0.1,0-0.2,0-0.3-0.1c0.5-2,1.1-4.1,1.6-6.1c-0.1,0-0.3-0.1-0.4-0.1l-1.9,6.5c-0.1,0-0.2,0-0.3-0.1c0.1-0.8,0.2-1.5,0.2-2.3
				c0-0.3-0.1-0.6-0.1-0.9c-0.2,0.2-0.5,0.4-0.5,0.7c-0.2,1.6-0.5,3.2-0.6,4.9c-0.1,1.1-0.6,2-1.1,3c-0.7,1.3-1.4,2.5-2.1,3.8
				c-0.2,0.3-0.4,0.5-0.6,0.9c0-1.6,0-2.9,0-4.3c0-1.8,0-3.5,0-5.3c0-0.2-0.3-0.4-0.4-0.6c-0.1,0.2-0.4,0.4-0.4,0.6
				c0,1.5,0.1,3.1,0,4.6c-0.1,1.6-0.4,3.2-0.5,4.7c0,0.5,0.3,1,0.5,1.7c-0.8,1.7-1.8,3.6-2.8,5.5c-0.1,0-0.2,0-0.2-0.1
				c-0.2-2.3-0.4-4.6-0.6-6.9c-0.1,0-0.2,0-0.3,0c0,0.7,0,1.5,0,2.2c0,1.2,0.1,2.3,0.2,3.5c0,0.6,0.1,1.1,0.2,1.7
				c0.3,1.4-0.6,2.5-1.3,3.7c-0.1-0.8-0.2-1.5-0.3-2.1c-0.1,0-0.3,0-0.4,0.1c0.1,0.7,0.1,1.4,0.2,2.1c-0.5,0.1-0.9,0.2-1.5,0.3
				c-0.1-0.4-0.3-0.8-0.4-1.2c-0.1,0.5-0.1,1.3-0.3,1.4c-0.8,0.3-1.7,0.4-2.6,0.4c-0.2,0-0.7-0.8-0.6-1.1c0.7-2,1.5-3.9,2.3-5.9
				c0.7-1.7,1.3-3.4,2.1-5c0.5-1,0.5-2.2,1.8-2.7c0.1-0.1,0.2-0.3,0.3-0.4c0.8-1.4,1.5-2.8,2.3-4.3c0.5-1,1.1-2,1.7-3
				c1.2-2,2.4-4.1,3.7-6.1c0.3-0.5,0.9-0.8,1.3-1.3c1.1-1.3,2.1-2.6,3.2-3.8c1-1.1,2.1-2.2,3.1-3.2c1.1-1.1,2.1-2.4,3.2-3.5
				c1.2-1.2,2.1-2.7,3.8-3.5c0.7-0.3,1.3-1.2,1.9-1.8c1.3-1.3,2.6-2.6,4.1-3.8c1.1-0.9,2.3-1.7,3.6-2.3c1.1-0.5,2.5-0.7,3.7-1.1
				c0.8-0.2,1.5-0.6,2.3-0.9c1.3-0.5,2.7-0.9,4-1.5c0.5-0.2,1-0.7,1.4-1l0.3,0.2c-0.3,0.7-0.5,1.4-0.9,2c-0.9,1.4-1.8,2.7-2.8,4
				c-1.5,1.8-3.1,3.5-4.6,5.2c-1.9,2.2-3.8,4.3-5.5,6.6c-0.8,1.1-1.2,2.6-1.9,3.9c-2.3,3.8-3.8,7.8-5.4,11.9c-1,2.5-2.1,5-3.4,7.5
				c-1.4,2.7-2.9,5.4-4.3,8.1c-0.6,1.2-1.3,2.3-2.1,3.5C205.8,259.4,205.4,259.5,205.2,259.6z M205.9,288.7c-0.1-1.2-0.4-2.2-0.2-3
				c0.2-0.7,0.8-1.4,1.4-1.8c2-1.1,4.1-2,6.2-2.9c0.1-0.1,0.3,0,0.7,0C211.3,283.6,208.6,286.1,205.9,288.7z M282.2,227.4
				c-2.1,2.2-4.9,3.3-7.6,4.6c-1.9,0.9-3.6,2-5.4,3c-1.3,0.7-2.6,1.2-3.9,1.9c-0.8,0.4-1.6,1-2.4,1.4c-2.4,1.4-4.9,2.7-7.4,4.1
				c-1.6,1-3.2,2.2-4.8,3.3c-2,1.4-3.9,2.8-5.9,4.2c-1.5,1.1-3.1,2.2-4.5,3.4c-2.7,2.5-5.3,5-7.8,7.6c-1.4,1.4-2.8,3-4.2,4.5
				c-1.4,1.6-2.8,3.2-4.1,4.8c-1,1.1-1.8,2.3-2.8,3.4c-1.1,1.2-2.4,2.4-3.6,3.6c-1.2,1.2-2.4,2.3-3.8,3.7c0.2-1.4-0.5-1.1-0.9-0.9
				c-1.5,0.7-3,1.4-4.5,2c-0.1,0.1-0.2,0.1-0.6,0.2c1.2-1.5,2.2-2.9,3.3-4.2c1.6-1.8,3.3-3.5,4.9-5.4c0.8-0.9,1.4-2,2.1-3.1
				c0.7-1.1,1.5-2.1,2.3-3.1c0.9-1.3,1.8-2.7,2.8-4c1.2-1.8,2.4-3.6,3.7-5.3c1.3-1.6,2.5-3.3,4.1-4.6c2.5-2,4.4-4.5,6.9-6.5
				c1.8-1.4,3.5-3,5.3-4.5c2.3-1.8,4.6-3.7,7.1-5.2c1.4-0.8,2.8-2,4.6-1.8c0.2,0,0.4,0.2,0.6,0.5c3.9,0,7.6-1.2,11.2-2.8
				c-4,0.5-7.8,2.1-11.9,1.9c0-0.1-0.1-0.2-0.1-0.3c1.4-0.7,2.8-1.5,4.2-2.2c1.3-0.6,2.6-1.1,3.8-1.7c0.3-0.1,0.6-0.2,1-0.2
				c2.5-0.1,5-0.1,7.5-0.2c0.7,0,1.4-0.4,1.8-1c-2.2,0.1-4.4,0.2-6.6,0.3c0-0.1,0-0.2,0-0.3c3.6-1.5,7.4-2.1,11.2-2.8
				c0-0.1,0-0.2,0-0.3c-1,0.1-2,0.1-3,0.3c-1.9,0.3-3.7,0.6-5.6,1c-0.6,0.1-1.3,0.3-1.9,0.5c-1.9,0.6-3.7,1.1-5.5,1.8
				c-2,0.8-4,1.8-6,2.7c-1.7,0.8-3.3,1.6-4.9,2.5c-1.6,0.9-3.1,1.9-4.5,2.9c-1.7,1.2-3.3,2.5-5,3.8c-0.2,0.1-0.4,0.3-0.7,0.4
				c-0.1-0.1-0.2-0.1-0.2-0.2c1.6-2.7,3.2-5.4,4.7-8.1c-0.1-0.1-0.3-0.2-0.4-0.3c-0.5,0.7-1.1,1.3-1.5,2.1c-1.1,2-2.2,4.1-3.2,6.2
				c-0.6,1.2-1.6,1.9-2.4,2.8c-1,1-1.9,2-2.9,2.9c-0.8,0.7-1.6,1.3-2.4,2.1c-1.1,1-2.1,2.1-3.2,3.2c-0.8,0.8-1.6,1.7-2.4,2.6
				c-0.1-0.1-0.1-0.1-0.2-0.2c0.5-1.1,1-2.2,1.5-3.2c-0.1-0.1-0.3-0.1-0.4-0.2c-0.2,0.4-0.6,0.7-0.7,1.1c-0.6,2.3-1.8,4.1-3.3,5.9
				c-0.8,1-1.6,2-2.3,3.1c-0.5,0.7-0.8,1.6-1.3,2.3c-0.1,0.3-0.4,0.5-0.6,0.7c0.2-0.7,0.3-1.2,0.4-1.8c-0.3,0.3-0.7,0.6-0.8,0.9
				c-1,2.1-1.8,4.2-2.9,6.2c-0.8,1.5-2.1,2.8-3.1,4.1c-0.3,0.4-0.7,0.9-1.2,1.2c0.2-0.6,0.3-1.2,0.5-1.7c0.5-1,1-2.1,1.5-3.1
				c0.3-0.6,0.4-1.3,0.7-1.9c1.4-2.6,2.4-5.3,3.2-8.1c0.1-0.3,0.1-0.6,0.1-1l-0.3-0.1c-0.4,0.9-0.7,1.7-1.1,2.6
				c-1.5,3.6-3,7.1-4.5,10.7c-0.6,1.5-1,3.1-1.7,4.6c-0.3,0.7-1,1.2-1.5,1.8c-0.2,0.2-0.4,0.4-0.9,0.8c0-0.6,0-0.9,0.1-1.2
				c0.5-1.8,1-3.6,1.5-5.3c0.8-2.8,1.7-5.5,2.4-8.3c0.4-1.6,1.3-3.2,1-5c-0.1-0.7,0.7-1.6,1.3-2.2c0.7-0.7,1.3-1.2,1.7-2.2
				c0.2-0.7,1-1.1,1.5-1.7c0.7-0.7,1.3-1.5,1.9-2.2c0.3-0.3,0.6-0.7,0.9-0.9c1.4-0.9,3-1.7,4.4-2.6c1.6-1.1,3.4-1.9,4.5-3.6
				c0.1-0.2,0.3-0.4,0.3-0.6c0.2-1.8,1.4-2.8,2.6-3.8c1-0.8,1.9-1.7,2.8-2.6c0.9-0.9,1.8-1.8,2.8-2.6c1.3-1,2.6-2,3.9-2.9
				c0.9-0.6,1.9-1,2.9-1.4c1-0.5,2-1.1,3.1-1.4c1.9-0.5,3.9-0.8,5.9-1.2c1-0.2,2-0.4,2.9-0.5c0.4-0.1,0.8,0,1.3,0
				c0.5,0,0.9-0.1,1.4-0.1c0.3,0,0.6-0.2,1-0.2c1.9-0.1,3.9,0,5.8-0.2c1.2-0.1,2.4-0.7,3.7-1c0.7-0.2,1.5-0.3,2.3-0.4
				c1.8-0.1,3.6-0.2,5.5-0.2c0.5,0,1.1,0.7,1.1-0.3c0.7,0.2,1.4,0.4,2.1,0.7c0.5,0.2,1,0.4,1.4,0.7
				C282.6,226.5,282.8,226.8,282.2,227.4z"/>
			<path class="st1" d="M151.3,289.9c-0.3-0.1-0.7-0.1-0.9-0.3c-4.4-3.4-9.6-5.5-14.3-8.4c-0.2-0.1-0.3-0.3-0.3-0.6
				C141.3,283.1,146.7,285.8,151.3,289.9z"/>
			<path class="st1" d="M172.9,316.7c-2,0.4-10.8-3.2-11.7-4.8C164.9,314,169.3,314.4,172.9,316.7z"/>
			<path class="st1" d="M138.9,287.4c3.1,1.6,6.6,2.6,9.3,5.1C145.2,290.7,141.6,289.9,138.9,287.4z"/>
			<path class="st1" d="M166.7,310.2c-2.8-0.3-7.7-2-8.8-3.9c2.8,1.1,5.8,2.4,8.8,3.6C166.8,310,166.8,310.1,166.7,310.2z"/>
			<path class="st1" d="M179.4,324.3c-3.8-1.8-7.7-3.8-11.8-5.7C170.3,318.8,178.4,322.9,179.4,324.3z"/>
			<path class="st1" d="M183.8,325.7c-0.5-1.1-1-2.3-1.5-3.4c-0.6-1.5-1-3.1-1.6-4.6c0.1,0,0.3-0.1,0.4-0.1c0.2,0.6,0.3,1.1,0.6,1.7
				c0.5,1.1,1,2.2,1.5,3.2c0.4,0.8,0.7,1.7,1.1,2.6C184.5,325.5,184.3,325.8,183.8,325.7L183.8,325.7z"/>
			<path class="st1" d="M140.6,279.3c0.7,0.4,1.4,0.8,2,1.2c-0.1,0.1-0.1,0.2-0.2,0.4c-0.7-0.4-1.3-0.8-2-1.2
				C140.5,279.5,140.5,279.4,140.6,279.3z"/>
			<path class="st1" d="M233.9,246.5c2.3-5.6,5.7-10.5,9.2-15.3c0.1,0.1,0.2,0.1,0.3,0.2c-0.1,0.2-0.1,0.5-0.2,0.7
				c-0.9,1.6-1.6,3.4-2.9,4.7c-1.1,1.2-2,2.5-2.7,3.8c-0.7,1.3-1.9,2.2-2,3.8c-0.1,0.6-0.5,1.3-0.8,1.9c-0.1,0.2-0.4,0.3-0.7,0.5
				C234,246.7,233.9,246.6,233.9,246.5z"/>
			<path class="st1" d="M256.1,238.8c-1.3,1.3-7.4,2.4-9.6,1.6c0.6-0.2,1-0.5,1.4-0.5c2.1-0.3,4.2-0.5,6.2-0.8
				c0.7-0.1,1.3-0.3,1.9-0.5C256.1,238.6,256.1,238.7,256.1,238.8z"/>
			<path class="st1" d="M220.2,262.3c0.1-0.5,0.1-1,0.3-1.4c1.1-2.5,2.3-4.9,3.5-7.3c0.4-0.8,0.8-1.6,1.1-2.4
				c0.1-0.2,0.1-0.5,0.1-0.7c0.2,0.1,0.3,0.3,0.5,0.4c-0.4,0.9-0.6,1.9-1.1,2.8c-1.3,2.3-2.4,4.7-3.4,7.2
				C221.1,261.4,220.6,261.8,220.2,262.3C220.2,262.3,220.2,262.3,220.2,262.3z"/>
			<path class="st1" d="M219.5,274.7c-0.8,1-1.3,2-2.6,2.2c-0.9,0.2-1.7,0.8-2.6,1.2c-0.2,0.1-0.5,0.2-0.8,0.1
				c-0.2,0-0.4-0.3-0.4-0.4c0-0.1,0.2-0.4,0.3-0.4c2.1-0.4,3.9-1.6,5.6-2.8C219,274.6,219.2,274.7,219.5,274.7z"/>
			<path class="st1" d="M223.2,269.6c-1.3,1.6-3.9,2.8-5.3,2.4c0.4-0.3,0.6-0.7,0.9-0.8C220.2,270.8,221.4,269.8,223.2,269.6z"/>
			<path class="st1" d="M244.8,246.1c-0.5,0.5-4.8,1.2-5.4,0.9C240.1,245.9,241.9,245.6,244.8,246.1z"/>
			<path class="st1" d="M244.2,237c1.1-1.5,2.1-3,3.2-4.6c0.4,0.8-1.8,4-3,4.7C244.4,237.1,244.3,237.1,244.2,237z"/>
			<path class="st1" d="M232.1,253.7c1.1-0.4,2.2-0.9,3.4-1.3c-0.4,1.1-2.3,1.8-3.3,1.6C232.2,253.9,232.1,253.8,232.1,253.7z"/>
			<path class="st1" d="M132.5,241c-1.1,0.1-6-4-6.3-5.3C128.5,237.6,130.5,239.3,132.5,241z"/>
			<path class="st1" d="M149.1,246.6c-1.7-0.8-2.9-2.2-4.1-3.7C146.5,243.3,149,245.6,149.1,246.6z"/>
			<path class="st1" d="M119.7,244.6c-0.8,1-3.8,0.9-5.3-0.3C116.1,244.4,117.8,244.5,119.7,244.6z"/>
			<path class="st1" d="M126.1,239c-0.6-0.1-1.3-0.1-1.8-0.4c-0.6-0.3-1.1-0.7-1.6-1.1c-0.1-0.1,0-0.3,0-0.5c0-0.1,0.3-0.2,0.3-0.1
				c1.1,0.6,2.1,1.3,3.2,2C126.1,238.9,126.1,238.9,126.1,239z"/>
			<path class="st1" d="M138.1,248c-1.6,0.7-3.2,1.3-5,1.2C134.6,248.3,136.4,248.2,138.1,248z"/>
			<path class="st1" d="M125.5,245.5c-1.2,1-2.6,0.7-4,0.8C122.7,245.5,124.2,245.8,125.5,245.5z"/>
			<path class="st1" d="M156.5,255.3c-1.1,0.3-2.3,0.6-3.4,0.9C153.7,255.2,155.1,254.8,156.5,255.3z"/>
			<path class="st1" d="M215.6,232.5c-0.1,0.9-5,4.8-6.3,4.9c1.1-1,2.1-1.9,3.1-2.6C213.4,233.9,214.5,233.3,215.6,232.5z"/>
			<path class="st1" d="M202.7,255.2c-1.7,1-3.4,2-5,3c-0.1-0.9,3.2-3.2,4.8-3.3C202.6,255,202.6,255.1,202.7,255.2z"/>
			<path class="st1" d="M191.7,253.6c0.8,3.2,0.9,5.5,0.3,5.8C191.9,257.4,191.8,255.5,191.7,253.6z"/>
			<path class="st1" d="M215.1,231.1c1-0.6,2-1.2,3.1-1.7c0.1,0.1,0.1,0.2,0.2,0.4c-1,0.7-1.8,1.7-3.1,1.7
				C215.2,231.3,215.1,231.2,215.1,231.1z"/>
			<path class="st1" d="M223.6,218.3c1.1-0.5,2.2-0.9,3.3-1.4c0,0.1,0.1,0.2,0.1,0.3c-0.9,0.9-2.1,1.3-3.3,1.5
				C223.7,218.5,223.7,218.4,223.6,218.3z"/>
			<path class="st1" d="M179.4,299.1c-0.4-0.9-0.6-1.4-0.9-2c-0.3-0.7-0.5-1.5-1-2.1c-1.1-1.5-2.5-2.9-3.6-4.5c-0.8-1-1.4-2.2-2-3.3
				c0.1-0.1,0.2-0.2,0.3-0.2c0.6,0.8,1.3,1.6,1.9,2.3c1,1.3,2.2,2.4,3.1,3.8c0.7,1.1,1.2,2.3,1.7,3.5c0.2,0.5,0.5,1.1,0.7,1.7
				C179.6,298.4,179.5,298.6,179.4,299.1z"/>
			<path class="st1" d="M178.4,288.4c0.3-0.4,0.5-0.7,0.7-1c0.5,1,1.4,1.9,1.2,3.5C179.5,289.9,179.7,288.5,178.4,288.4z"/>
			<path class="st1" d="M173,243.8c-0.3,1-0.7,1.9-1,2.9c-0.5-0.8,0-2.6,0.5-2.9C172.6,243.6,172.8,243.8,173,243.8
				C173,243.8,173,243.8,173,243.8z"/>
			<path class="st1" d="M170.1,243.3c0.3-0.8,0.7-1.6,1.1-2.5c0.5,0.4,0,1.9-0.8,2.6C170.3,243.4,170.2,243.3,170.1,243.3z"/>
			<path class="st1" d="M172.9,247.1c0.1,1.1-0.2,1.5-1.1,1.6C172.2,248.1,172.5,247.6,172.9,247.1z"/>
			<path class="st1" d="M187.3,272.5c-0.2-1.8-0.4-3.5-0.6-5.2C187.5,268.1,188,271.7,187.3,272.5z"/>
			<path class="st1" d="M184.9,265.5c1,1.3,1.1,2.1,0.4,2.5C185.1,267.2,185,266.4,184.9,265.5z"/>
		</g>
	</g>
	<g>
		<g id="qSxGTY.tif">
			<g>
				<path class="st1" d="M282.5,146.8c0.9,0,1.4-0.2,1.3-1.2c0-0.4,0.2-0.7,0.3-1.1l-0.5-1.3c-0.4-0.6-1-1.1-1.3-1.7
					c-0.4-0.7-0.4-1.7-0.9-2.3c-0.7-0.8-1.5-1.9-2.8-1.8c-0.1,0-0.3-0.1-0.4-0.2c-0.9-0.7-2.1-0.9-3.1-0.3c-2,1.1-2.7,3.1-2.5,5.6
					c0,0.8-0.3,1.4-1,1.4c0-0.5-0.2-1.1,0-1.5c0.6-1.4-0.6-2.4-0.7-3.7c0-0.6-0.3-1.1-0.6-1.6c-0.9-1.6-2.4-2.4-4-3.3
					c-1.6-0.8-3.1-0.4-4.5,0.2c-2.1,0.9-2.4,4-1.9,5.5c0.3,1.1,0.8,2.1,1.3,3.1c-1-0.1-1.8-0.3-2.6-0.2c-0.5,0-1.4,0.3-1.6,0.7
					c-0.6,1.3-1.1,2.8-1.5,4.2c-0.1,0.3,0.1,0.8,0.3,1.1c0.6,1.4,2,1.5,3.2,1.9c0.3,0.1,0.6,0.4,0.8,0.7c0.7,0.9,1,2.2,2.6,1.9
					c0.2,0,0.4-0.1,0.6-0.2c0.7-0.3,1.4-0.6,2.1-0.9c0.2-0.1,0.5,0.2,0.8,0.3c-0.2,0.1-0.4,0.4-0.6,0.4c-0.6,0.2-1.3,0.1-1.8,0.4
					c-0.6,0.3-1.4,0-1.7,0.8c-0.5,1.4-0.7,2.8-0.1,4.2c0.1,0.2,0.1,0.5,0.2,0.8c-0.3,0-0.6,0.1-0.8,0c-2.7-0.7-5.3,1.6-5.1,4
					c0.1,1.3-0.1,2.5-0.4,3.7c-0.3,1.7,0.6,3.5,2.1,3.9c1.2,0.4,2.4,0.5,3.7,0.8c0.3,0.1,0.7,0.2,1,0.3c0,0.1,0,0.3-0.1,0.4
					c-1.5,0-3,0.1-4.5,0.1c-0.3,0-0.5,0-0.7-0.1c-2.3-1.2-4.7-2.3-7-3.5c0.1-2.8-1.7-4.3-4.2-5.4c0.2-0.1,0.4-0.1,0.5-0.1
					c1,0,2.1,0.3,2.9-0.1c2-1.1,4-2.3,4.7-4.8c0.2-0.7,0.6-1.4,0.5-1.9c-0.2-0.7-0.9-1.3-1.3-1.9c-0.5-0.7-1.3-1.3-1.6-2.1
					c-0.5-1.5-1.6-2.3-2.9-2.8c-0.7-0.3-1.5-0.2-2.2-0.4c-1.5-0.3-2.4,0.5-3.2,1.5c-0.9,1.1-1.5,2.5-2.3,3.6c-0.4,0.6-0.9,1-1.4,1.5
					c-0.1-0.1-0.2-0.2-0.3-0.2c0.5-0.8,1-1.7,1.6-2.4c1.2-1.3,1.9-2.7,1.5-4.5c-0.4-1.6-1.2-3-2.3-4.2c-1.7-1.9-3.8-2.4-6.3-2
					c-0.2,0-0.3,0-0.7-0.1c0.9-0.9,0.7-2.4,2.1-2.7c1.1,2.2,3.7,3,5.8,1.7c0.5-0.3,1.3-0.6,1.7-0.4c2,0.9,3.4,0,4.6-1.4
					c0.5-0.6,1.1-1.3,1-1.9c-0.1-1.6,0.1-3.3-1.3-4.5c0.4,0.2,0.7,0.5,1,0.8c0.4,0.4,0.7,0.9,1.2,1.2c1.6,1,4.2,0.5,5.5-0.8
					c0.2-0.2,0.6-0.2,1-0.3c0.8-0.2,1.7-0.2,2.5-0.6c0.8-0.4,1.2-1.1,1.3-2.1c0.2-1.9-0.6-3.6-2.4-4.2c-0.7-0.2-1.2-1.1-1-1.8
					c0.3-1,0.5-2.1,0.9-3.1c0.3-0.7,0.2-1.3-0.3-1.9c-0.6-0.8-1.3-1.5-1.9-2.2c-0.4-0.4-0.9-0.9-1-1.4c-0.4-1.4-3.2-2.8-4.4-1.9
					c-1.2,0.9-2.5,1.8-3.4,3c-1,1.3-1.7,2.9-2.6,4.4c-0.1,0.2-0.3,0.4-0.5,0.6c-0.1,0-0.2-0.1-0.2-0.1c0.1-0.4,0.3-0.9,0.4-1.3
					c0.2-1.1,0.7-2.2,0.5-3.2c-0.2-1.1-1.1-2.1-1.4-3.2c-0.3-1.1-1.1-1.7-1.7-2.4c-1.2-1.4-2.7-2-4.4-2c-0.5,0-1,0.4-1.4,0.6
					c-0.6,0.4-1.2,1.1-1.9,1.3c-2.1,0.4-2.5,0.6-3,2.7c-0.6,2.5-0.7,5.1,0.8,7.6c-0.9-0.1-1.6-0.2-2.3-0.1c-1.6,0.2-3.2,0.6-4.8,1
					c-0.3,0.1-0.7,0.6-0.8,0.9c-0.3,0.7-0.4,1.5-0.5,2.3c-0.4,2.2,0.2,3.2,2.2,4.3c0.7,0.4,1.3,1.1,1.7,1.8c0.9,1.5,1.9,2.6,3.6,3.3
					c1.3,0.5,2.2-0.3,3.2-0.6c0.8,1.5,0,2.4-1.2,3.1c-0.2,0.1-0.2,0.4-0.4,0.6c-0.8,1.4-1.6,2.9-2.3,4.3c-0.8,1.5-1.6,3.1-2.3,4.7
					c-0.3,0.7-0.6,0.9-1.3,1c-0.8,0.1-1.7,0.1-2.2,0.5c-0.8,0.8-1.4,1.8-1.8,2.9c-0.3,0.8-0.7,1.2-1.4,1.5c-0.3,0.1-0.6,0.1-0.8,0.3
					c-2.3,1.8-4.8,3.5-6.6,6c-0.5,0.7-1.2,1.2-2.2,0.8c-0.7-0.2-1.5,0-2.2-0.1c-0.9-0.1-1.9-0.1-2.8-0.2c-0.3,0-0.5,0-0.8-0.1
					c-0.8-0.2-1.8,0-2.2-1.4c1.2,0.2,2.3,0.3,3.2,0.6c2.1,0.8,5.3-0.5,6.1-2.6c0.1-0.3,0.4-0.6,0.5-1c0.3-0.6,0.8-1.1,0.8-1.7
					c0-1.2,0.1-2.5-0.4-3.5c-0.4-1.1-1.3-2-2.1-3c-0.7-0.9-1.6-1.6-2-2.6c-0.7-1.7-3-3-4.7-2.2c-0.9,0.4-1.8,1.3-2.5,2
					c-1.4,1.5-2,3.4-2.5,5.3c-0.5,2.1-0.3,4.3-1.2,6.3c-0.1,0.3-0.1,0.6-0.1,1c0.5-0.2,1-0.2,1.1-0.4c0.3-0.4,0.7-0.5,1-0.2
					c0.2,0.2,0.1,0.7,0,0.9c-0.4,0.8-0.5,1.3,0.5,1.7c0.2,0.1,0.4,0.5,0.4,0.7c0,0.3-0.3,0.7-0.5,0.7c-1,0-1.4,0.4-1.7,1.3
					c-0.2,0.5-0.7,1-1.2,1.1c-0.5,0.1-1.1-0.3-1-1.1c0-0.1-0.2-0.2-0.4-0.2c-0.8-0.2-1.5-0.4-2.3-0.6c0.2-0.5,0.2-1,0.4-1.3
					c0.5-1,1-1.9,1.4-2.9c0.2-0.6,0.6-0.7,0.9-0.2c0.2,0.3,0.2,0.9,0.1,1.2c-0.2,0.4-0.6,0.8-0.9,1.2c-0.6,0.7-0.5,1.3,0.5,2.1
					c0.3,0.2,0.8,0.1,1.2,0.1c0.2,0,0.4-0.2,0.6-0.2c0.2-0.1,0.5-0.1,0.6-0.2c0.6-0.5,1-1,0.7-1.8c-0.3-0.9-1-1.2-1.9-1.2
					c0.2-0.8,0.5-1.6,0.6-2.4c0.3-1.7,0.6-3.4,0.8-5.1c0-0.3,0-0.6,0-0.9c-0.1-0.5-0.1-1-0.2-1.6c-0.1-1-0.1-2-0.5-2.9
					c-0.6-1.2-1.6-2.3-2.4-3.5c-1.3-2-3.6-1.9-5.2-1.2c-0.8,0.3-1.6,0.6-2.4,0.8c-1.8,0.4-3.1,1.4-3.8,3.2c-0.4,1.1-0.7,2.2-0.5,3.4
					c0.2,0.7,0.4,1.5,0.7,2.1c0.4,0.8,1.1,1.5,1.6,2.2c0.2,0.3,0.4,0.6,0.5,1c0,0.1,0,0.4-0.1,0.4c-0.1,0.1-0.3,0.1-0.4,0
					c-0.9-0.2-1.7-0.5-2.6-0.8c-0.2-0.1-0.5-0.3-0.5-0.5c-0.2-1.2-0.3-2.5-0.4-3.7c-0.1-1.6-0.2-3.1-0.3-4.7
					c-0.1-1.1-0.1-2.3-0.1-3.4c0-1.1,0.2-2.3,0.4-3.4c0-0.3,0.2-0.6,0.3-0.8c0.6-0.6,1.3-1,1.8-1.6c0.8-0.9,1.7-1.5,2.8-1.9
					c0.6-0.2,1-0.8,1.6-1.3c0.9-0.3,1.1,0.5,1.4,1.3c0.4,1.2,1.4,2.1,2.5,2.6c0.9,0.4,2.1,0.1,3.2,0.1c1.2,0,2-0.7,2.8-1.4
					c0.4-0.3,0.8-0.7,1.2-1.1c0.2,0.4,0.4,0.8,0.6,1.1c1.1,2.5,3.4,3.5,5.8,2.5c1-0.4,2-0.8,3.1-0.6c1.7,0.4,3.1,0.1,4.1-1.3
					c0.3-0.5,0.6-1.1,0.8-1.6c0.3-0.8-0.3-2.9-0.8-3.5c-0.7-0.8-1.3-1.8-2-2.9c0.5,0,0.8,0.1,1.1,0.1c1.4,0.1,2.8,0.6,4.1-0.3
					c0.9-0.6,2.1-0.9,2.3-2.3c0.1-0.4,0.6-0.7,0.9-1c0.2-0.3,0.6-0.5,0.7-0.8c0.6-1.4,1.2-2.8-0.2-4.1c-0.1-0.1-0.1-0.3-0.1-0.4
					c-0.4-1.8-1.1-3.5-2.8-4.5c-0.9-0.5-1.9-0.8-2.9-1c-0.5-0.1-1.3-0.3-1.7-0.1c-1.5,0.9-3,1.8-3.9,3.3c-0.4,0.7-0.9,1.2-1.7,1.4
					c-0.8,0.2-1.6,0.5-2,1.3c0.3-1.1,1.7-3,2.8-3.1c0.4,0,0.7-0.3,1.1-0.5c0.8-0.4,1.1-1.2,1.5-2c0.5-1.1,1.5-1.9,1.2-3.3
					c0-0.1,0.1-0.2,0.1-0.2c0.1-0.7,0.3-1.4,0.1-2c-0.3-1.8-1.7-3-3-4.1c-0.6-0.5-1.6-0.9-2.6-0.7c-1.1,0.2-2.3,0.4-3.5,0.3
					c-1.7-0.2-3.4,0.4-4,2c-0.7,1.7-1.1,3.6-1.6,5.2c-0.8-0.6-1.6-1.6-2.6-2.1c-2-0.8-4.1-1.4-6.2,0.2c-1.6,1.2-2.6,2.4-2.4,4.5
					c0.1,1.5,0,3.1,0.1,4.6c0.1,1.3,0.1,2.8,1.2,3.8c0.8,0.7,1.6,1.3,2.3,1.9c-2,1-2,3.1-2.4,4.7c-1.2,1.1-2.2,2.1-3.3,3
					c-0.6,0.5-1.3,1.1-1.9,1.5c-0.1,0.1-0.6-0.1-0.8-0.3c-0.2-0.3-0.3-0.8-0.3-1.1c-0.2-1.2-0.3-2.5-0.5-3.7
					c-0.5-3.9-1.2-7.8-1-11.8c0-0.9,0-1.8-0.1-2.8c-0.1-0.9-0.2-1.8-0.2-2.7c0-1.4,0.3-2.9-0.1-4.2c-0.5-1.8,0.2-3.5,0-5.2
					c-0.2-1.3,0.5-2.6,0.9-3.9c0-0.1,0.6-0.3,0.6-0.2c0.9,1.3,2.3,0.8,3.4,0.7c0.5,0,0.9-0.5,1.4-0.6c1.2-0.1,1.7-1.2,2.4-1.8
					c0.6-0.6,1-1.5,1.3-2.3c0.3-0.8,0.4-1.6,0.4-2.4c0-0.7-0.3-1.4-0.4-2.2c0.4,0.1,0.5,0.2,0.6,0.2c2.2,1.2,3.8,0.4,5.1-1.2
					c0.2-0.3,0.6-0.5,0.9-0.7c0.7-0.5,1.5-0.9,1.9-1.6c0.6-1,1.1-2.1,1.5-3.2c0.5-1.6,1.5-3.1,0.1-4.8c-0.2-0.2-0.1-0.6-0.2-0.9
					c0-0.5,0.2-1.2-0.1-1.5c-0.6-0.9-1.2-2-2.6-2c-0.9,0-1-0.4-0.6-1.2c0.3-0.6,0.7-1.4,0.7-2.1c-0.1-1-0.6-1.9-0.8-2.9
					c-0.1-0.5-0.1-1.1-0.4-1.5c-0.9-1.3-1.9-2.6-2.8-3.9c-0.6-0.8-2.6-1.4-3.6-0.9c-0.8,0.3-1.6,0.8-2.4,1.1
					c-1.9,0.9-3.1,2.3-3.3,4.5c-0.1,0.7-0.2,1.5-0.3,2.2c-1-0.9-0.4-2.3-1.4-3.2c-1-1-1.7-2.3-2.8-3.2c-0.7-0.5-0.8-1-0.5-1.6
					c0.4-1,0.8-2.1,1.4-3c1-1.4,2-2.7,3.9-2.9c0.5-0.1,0.9-0.5,1.4-0.7c0.2-0.1,0.4-0.2,0.6-0.3c-0.3,1.8,0.6,4.5,2.4,4.9
					c1.5,0.4,2.9,1,4.6,0.8c1.4-0.2,2.8,0.2,4-1.2c1.5-1.7,2.6-2.9,1.9-5.6c0.3,0,0.7,0,1,0.1c0.7,0.1,1.4,0.4,2.1,0.4
					c0.8-0.1,1.8-0.1,2.2-1.1c0.6-1.6,1.7-2.8,2.9-4.1c0-1.7-0.8-3.4-1.8-4.9c0,0.2,0.1,0.4,0.2,0.5c1.8,2.3,1.1,3.5-0.5,5
					c-0.5,0.5-0.9,1.1-1.2,1.7c-0.4,0.9-1.1,1.3-2,1.1c-1.6-0.3-3.3-0.3-4.1-1.9c0.1-0.1,0.3-0.2,0.4-0.3c-0.7-0.4-1.2-1.1-1.6-1.8
					c-0.4-0.1-0.8-0.3-1.2-0.4c0.2-0.8,0.5-1.6,0.7-2.3c0-0.3-0.2-0.7-0.4-1c-0.1-0.1-0.6,0-0.7,0.1c-0.1,0.3,0,0.7,0,1
					c0,0.3,0,0.6-0.2,0.8c-0.1,0.1-0.5,0.1-0.7,0c-0.8-0.3-0.9-0.1-0.9,0.7c0,1.5,0.1,2.9,1.4,3.9c0.6,0.5,1.4,0.8,1.8,1.4
					c0.7,0.8,1.3,1.8,1.6,2.8c0.3,1.2-1.2,3.2-2.5,3.5c-0.7,0.1-1.5,0.2-2.2,0.1c-1.7-0.3-3.3-0.7-5-1.1c-1-0.3-1.5-2.5-1-3.5
					c0.6-1.2,1.2-2.3,1.8-3.5c0.1-0.3-0.1-0.8-0.2-1.3c-0.5,0.1-1.1,0.1-1.4,0.4c-0.6,0.6-1.2,1.4-1.4,2.2c-0.3,1.1-1,1.7-1.9,1.9
					c-2,0.5-4,0.7-5.9-0.6c-0.9-0.6-1.8-1.1-2.2-2.4c-0.5-1.6,0-2.7,0.9-3.9c0.6-0.8,1-1.7,1.6-2.5c0.8-1,1.5-1.1,2.6-0.6
					c0.9,0.3,1.7,0.7,2.6,1.1c0,0,0.1,0,0.1,0c0.6,0,1,0.2,1.3,0.6c0.4,0.2,0.8,0.3,1.3,0.5c-0.7,1-1,2,0.4,2.8
					c1.2,0.7,1.8-0.4,2.6-0.7c0.2-0.1,0.3-0.7,0.4-1c-0.1-0.1-0.2-0.1-0.3-0.2c-0.5,0.2-1,0.4-1.5,0.5c-0.2,0.1-0.5,0-0.8,0
					c0.1-0.3,0.2-0.6,0.3-0.9c0.1-0.4,0.3-0.8,0.4-1.1c-0.7-0.2-1.3-0.3-1.9-0.4c0.3-0.5,0.5-0.9,0.7-1.3c-1.8-0.7-3.7-1-5-2.5
					c-0.7-0.8-0.8-1.7-0.8-2.8c-0.1-1.4,0.6-2.2,1.4-3c0.4-0.4,0.8-0.9,1.1-1.4c0.2-0.2,0.3-0.5,0.5-0.7c0.8-1,1.9-1.2,2.9-0.4
					c2.5,1.7,3.8,4.1,3.8,7.2c0,0.8,0.6,1.3,1.5,1c0,0.3-0.1,0.5-0.1,0.8c0,0.6,0.3,0.8,0.9,0.5c0.9-0.5,1.2-0.4,1.7,0.6
					c0.1,0.1,0.5,0.1,0.7,0c0.2-0.1,0.4-0.2,0.6-0.4c0,0.5,0,0.9-0.1,1.3c1.1,0.2,2.2,0.4,3.2,0.6c1.6,0.3,3.2,0.5,4.7-0.2
					c0.2-0.1,0.6-0.5,0.6-0.5c-0.2-0.3-0.2-0.7-0.1-1c-0.2-0.3-0.3-0.5-0.5-0.8c-0.6,0-1.3,0-2.2,0c0.7-0.5,1.2-0.7,1.8-0.5
					c-0.3-0.5-0.2-0.9-0.1-1.3c0-0.2,0-0.4,0-0.7c0-1.4,0.2-2.9-1.1-3.9c-0.1-0.1-0.2-0.3-0.2-0.5c-0.3-1.7-1.4-2.7-3-3.1
					c-0.2,0-0.4-0.1-0.6-0.2c-0.8,0.1-1.7,0.1-2.4,0.1c-0.4,0-0.8,0-1.2,0c-0.1,0.3-0.4,0.6-0.8,0.9c-0.2,0.1-0.4,0.2-0.6,0.4
					c-1.2,1.5-1.7,3.1-1.1,4.9c0.2,0.6,0.1,1.2,0.1,1.8c-0.1,0-0.2,0-0.4,0c-0.1-0.5-0.3-1-0.3-1.5c-0.1-1.7-0.8-3.3-1.7-4.7
					c-0.3-0.4-0.8-0.7-1.1-1.1c-0.9-1.4-2.3-1.7-3.7-1.9c-0.6-0.1-1.2,0.5-1.9,0.7c-0.1,0-0.2,0-0.3,0c0-0.5-0.1-1-0.1-1.5
					c-0.3-2.6-3.1-4.7-5.5-4c-2.8,0.8-4.9,2.4-5.7,5.4c-0.2,0.9-0.6,1.8-1,2.8c-0.1,0-0.3,0-0.4,0c-0.1-0.6-0.3-1.3-0.3-1.9
					c0.1-1.5,0.6-2.9,0.5-4.4c-0.1-1.6-0.3-3-1.3-4.2c-1-1.1-2.2-1.8-3.7-1.5c-0.5,0.1-1,0.3-1.5,0.2c-1.6-0.1-2.9,0.6-4,1.7
					c-0.6,0.6-1.1,1.5-1.4,2.3c-0.2,0.7,0.1,1.4,0,2.2c-0.1,1.7,0.1,3.2,1.1,4.6c0.3,0.4,0.2,1.1,0.3,1.6c0.1,0.4,0.2,0.8,0.5,1
					c0.4,0.4,0.9,0.7,1.4,1c0.4,0.2,1,0.4,1.3,0.3c0.8-0.4,2.1-0.4,2.8,0.1c0.6-1.7,1.5-2.4,2.4-2c-0.3,0.4-0.5,0.9-0.8,1.2
					c-0.9,0.8-1,1.4-0.1,2.1c0.2,0.2,0.9,0.3,1,0.2c0.7-0.7,1.8-1.3,1.1-2.9c1,0,1.7,0,2.4,0c-0.1,0.1-0.1,0.2-0.2,0.4
					c0.2,0.4,0.3,0.7,0.5,1.1c0.2-0.4,0.5-0.8,0.7-1.2c0-0.1,0.1-0.2,0.1-0.2c-0.1-0.1-0.2-0.2-0.2-0.3c-0.1-0.2-0.2-0.4-0.3-0.6
					c0,0-0.1,0-0.1,0c-0.1-0.5-0.2-0.9-0.2-1.4c0-0.5,0.1-1,0.4-1.4c0.6-1,0.9-2.2,2.2-2.8c0.7-0.3,1.5-0.8,2.2-1.2
					c0.7-0.4,2.5-0.5,3.1-0.1c1.2,0.6,1.6,1.8,2.1,2.8c0.2,0.5,0.5,1.1,0.3,1.6c-0.2,0.7-0.5,1.5-1.1,1.9c-1.1,0.9-1.5,2.1-1.7,3.5
					c0,0.2-0.1,0.5-0.2,0.7c-0.4,0.6-2.4,0.9-3.1,0.7c-1.7-0.5-3.4-1.7-5.4-0.3c-0.7,0.5-1.2,0.8-0.8,1.7c-1,0-1.8,2-2.7-0.1
					c-0.6,1.1-0.5,2.4-1.5,3.1c-0.6,0.4-0.5,1.4-1.4,1.5c-0.2,0-0.2,0.5-0.3,0.7c0.1,0.1,0.2,0.1,0.2,0.2c0.5-0.2,0.9-0.4,1.5-0.6
					c-0.1,0.7-0.2,1.4-0.3,2c0,0.9-0.3,1.9,0.7,2.3c0.9,0.4,1.9,0.5,2.9,0.6c1.1,0.1,2.2,0.1,2.7,1.4c0.6,1.4,1.5,2.6,1.8,4.1
					c0.4,2,1.5,3.9,0.7,6c-0.1,0.3,0.3,0.9,0.4,1.3c0.1,0,0.3,0,0.4,0c0.2-0.4,0.6-0.9,0.6-1.3c-0.2-2.2-0.5-4.3-0.9-6.5
					c-0.3-1.2-1-2.4-1.5-3.6c-0.6-1.6-0.5-1.6,1-2.6c0,0.5,0,1,0.1,1.4c0.1,0.7,0,1.5,0.2,2.1c0.5,1.4,1.1,2.7,1.1,4.2
					c0,0.4,1.3,1.4,1.6,1.3c0.1,0,0.2-0.1,0.2-0.2c0.2-0.3,0.5-0.7,0.7-1c0.5-0.7,1-1.1,1.9-0.8c-1.1,1.9-2.3,3.6-3.1,5.6
					c-0.5,1.2-1.2,1.4-2.2,1.5c-1.8,0.2-3.5,0.8-4.5,2.5c-0.1,0.1-0.4,0.3-0.5,0.3c-1.5-0.3-3-0.6-4.4-1c-0.3-0.1-0.5-0.5-0.6-0.8
					c-0.1-0.9,0-1.8-0.2-2.6c-0.3-1.2-1.1-2.3-0.1-3.5c0.2-0.2,0.1-0.6,0.2-0.8c-1.7-0.6-1.9-1.3-0.7-2.7c0.1-0.1,0.3-0.3,0.4-0.4
					c0.2-0.2,0.3-0.5,0.4-0.8c0.1-1,0.2-2,0.2-3c0-0.6,0-1.2-0.2-1.6c-1.4-2-3-3.9-5.7-4.3c-1.5-0.2-2.2-1.4-2.1-2.8
					c0.1-1.3,0.4-2.6-0.6-3.7c-0.5-0.6-0.2-1.2,0.5-1.4c0.7-0.2,1.3-0.3,2.1-0.4c0.3-0.6,0.1-1-0.7-1c-0.9-0.1-1.6,0.3-2.3,0.7
					c-0.7,0.5-1.4,1.8-1,2.5c0.5,1,1.1,2,0.4,3.2c0,0.1,0,0.2,0.1,0.3c0.3,0.8,0.5,1.6,0.8,2.4c0.1,0.2,0.3,0.5,0.2,0.6
					c-0.8,0.9-1.6,1.8-2.5,2.7c0-0.1-0.2-0.3-0.1-0.4c0.2-2.1-1.4-3.1-2.8-3.9c-1.1-0.7-2.2-0.1-3.3,0.6c-1.4,0.9-2.8,1.8-3.5,3.4
					c-1.2,3.1-0.9,6.1,0.9,8.9c0.5,0.8,0.1,0.8-0.5,1c-1.6,0.6-3.3,1.2-4.9,1.9c-0.5,0.2-1,0.6-1.2,1.1c-0.3,0.9-0.5,2-0.6,3
					c-0.1,0.7,0.2,1.4,0.2,2.1c0,1.4,0.3,2.8,0.9,4c0.7,1.5,1.8,2.1,3.4,2c0.8-0.1,1.5-0.2,2.6-0.3c-1.2,1.2-1.3,2.5-1.1,3.9
					c0.3,1.8,1.1,2.7,3.2,2c0.7-0.2,1.3-0.8,2-1c0.6-0.2,1.5-0.3,2-0.1c1.3,0.6,3.2,0.1,3.8-1.3c0.6-1.2,0.8-1.5,2.2-1.3
					c0.5,0.1,1.1-0.1,1.5-0.4c1-1,2-2.1,2.9-3.2c0.8-0.9,1.6-1.7,2.8-1.6c1,0.1,1.9,0.6,2.9,0.8c0.5,0.1,1,0.1,1.5,0.2
					c0.2,2.8-0.2,5.8,1.6,8.5c-0.2,0.1-0.3,0.2-0.3,0.1c-1-0.7-2-0.3-3.1-0.2c-1.8,0.2-2.6,0.9-2.9,2.7c-0.1,0.8-0.2,1.6-0.4,2.3
					c-0.1,0.9-0.1,1.7,0.4,2.5c0.6,0.8,0.9,1.8,1.4,2.7c-0.1,0.1-0.2,0.2-0.3,0.3c-0.4-0.4-0.8-0.7-1-1.1c-0.8-1.5-2.6-3-4.9-2.3
					c-1.6,0.5-2.6,1.7-3,3.3c-0.5,1.7-0.8,3.4-1,5.1c-0.1,1-0.5,1.8-1.7,2.3c-0.2-0.8-0.5-1.5-0.4-2.2c0.1-1.7,0.3-3.3,0.4-5
					c0.1-0.5,0.5-1.1,0.3-1.4c-0.8-1.4-0.5-3.1-1.6-4.5c-1.6-2-3.5-2.6-5.4-0.7c-1.5,1.5-2.6,3.4-4.5,4.6c-0.5,0.3-0.9,0.8-1.1,1.3
					c-0.4,0.7-0.6,1.5-0.8,2.3c-0.8,2.3-1.2,3.9,1.1,5.6c0.3,0.2,0.4,0.6,0.7,1c-0.7-0.1-1.3-0.3-1.9-0.2c-1.2,0.2-2.5,0.5-3.7,0.8
					c-1.1,0.3-1.7,1.1-1.9,2.2c-0.1,0.3-0.2,0.6-0.3,1c-0.1,1.5-0.6,3,0,4.5c0.6,1.7,0.8,3.4,1.2,5.2c0.2,1.1,0.3,2.2,0.6,3.2
					c0.3,1.1,2,1.9,3,1.4c1.3-0.6,2.5-1.4,3.8-2.2c-0.4,1.1-0.9,2.2-1.3,3.4c-0.8,2.1-0.5,3.7,0.9,4.6c0.6,0.4,1.4,0.5,2.2,0.6
					c0.8,0.1,1.6,0.2,2.2,0.9c0.5,0.5,1.1,0.9,1.8,1.2c1.4,0.6,2.8-0.3,3.9-0.8c1.1-0.6,2.3-1.7,2.5-3.2c0.1-0.8,0.7-0.9,1.4-1
					c0.9-0.2,2-0.6,2.7-1.3c0.9-0.8,1.4-2,2.1-3c0.2-0.3,0.5-0.5,0.8-0.5c2-0.2,2.8-1.5,3.5-3.1c0.3-0.8,0.5-1.5,0.3-2.3
					c-0.2-0.6,0.1-1.4,0.1-2c0-0.6,0.4-0.7,0.9-0.5c0.8,0.3,1.5,0.6,2.3,1c1.2,0.6,2.3,1.3,3.5,2c0.6,0.3,1.3,0.8,1.9,0.9
					c0.4,0.1,1.1-0.3,1.3-0.6c0.4-0.8,0.6-1.7,0.7-2.5c0.2-1.3,0.1-2.6,0.4-3.8c0.4-1.7,0.8-3.3,0.5-5.1c-0.1-0.5,0.1-0.9,0.3-1.7
					c0.6,0.5,0.9,0.9,1.3,1.2c-0.4,1-0.9,1.8-1.1,2.8c-0.2,0.7-0.2,1.5-0.2,2.2c-0.1,2.4-0.3,4.9-0.3,7.3c0,2.4,0.2,4.7,0.3,7.1
					c0.1,2.3,0.1,4.6,0.3,6.8c0.1,1.7,0.5,3.3,0.6,5c0.2,2.7,0.3,5.4,1.2,8c0.2,0.5,0.4,1,1.1,0.8c0.8-0.3,1.7-0.4,2.8-0.6
					c-0.5,0.4-0.8,0.6-1.1,0.9c-0.6,0.7-1.8,0.8-2,1.9c-0.1,0.6-0.3,1.1-0.3,1.7c-0.1,3.2-0.3,6.4-0.2,9.6c0,1.9,0.5,3.9,0.7,5.9
					c-1.6-0.1-1.3,1.8-2.4,2.7c-0.1-0.7-0.2-1.2-0.4-1.6c-0.2-0.6-0.5-1.2-0.9-1.6c-0.1-0.1-0.2-0.1-0.3-0.2
					c0.1,0.4,0.2,0.9,0.3,1.3c0.1,0.8,0.2,1.7,0.2,2.5c0.1,0.5,0.3,1,0.4,1.5c0.1,0.6,0.2,1.2,0.1,1.8c-0.2,1.5-0.8,2.9-0.1,4.4
					c0.3,0.8,0.7,1.5,1.2,2.2c0.5,0.6,0.6,1.2,0.6,1.9c0,0.2,0,0.4,0,0.6c1,3.4,1.6,6.8,1.9,10.4c0.1,2.4,0.7,4.8,1.1,7.2
					c0.1,0.7,0,1.3-0.1,2c0.2,0.3,0.3,0.6,0.4,1c0.6,1.6,0.8,3.4,0.8,5.2c0.4,1.1,0.8,2.2,1.1,3.3c0.8,3.5,1.5,6.9,2.3,10.4
					c0.3,1.5,0.7,3,1,4.5c0,0,0.1,0,0.1,0c0.5-0.1,1-0.2,1.4-0.3c-0.2-0.9-0.4-1.8-0.6-2.7c-0.6-2.6-1.1-5.3-1.7-7.9
					c-0.2-1-0.5-2-0.7-2.9c-0.4-1.6-0.8-3.1-1.4-4.6c-0.3-0.8-0.7-1.6-1.2-2.3c-0.3-0.4-0.2-0.7-0.2-1.2c0.1-1.7,0.2-3.3,0-5
					c-0.1-1.2-0.5-2.3-0.7-3.4c-0.2-1.6-0.2-3.2-0.4-4.8c-0.2-1.4-0.5-2.7-0.7-4.1c-0.2-1.3-0.2-2.6-0.4-3.9
					c0.5,0.1,0.8,0.1,1.1,0.2c0.8,0.4,1,1,1.1,1.8c0.3,2.1,0.7,4.2,1,6.1c1.4,0.4,1.6-0.4,1.9-1.1c0.1-0.2,0.3-0.3,0.5-0.4
					c0,0.2,0,0.4-0.1,0.6c-0.4,0.9-0.9,1.7-1.1,2.7c-0.2,0.8,0.1,1.8,0.2,2.7c0.2,1.7,0.3,3.4,0.7,5.1c0.2,0.8,0.7,1.5,1.2,2.1
					c0.5,0.6,1.2,0.5,1.6-0.3c0.8-1.3,1.5-2.8,2.4-4.1c1.1-1.6,2.3-3.1,3.5-4.6c0.4-0.6,1-1,1.5-1.6c0.1,0.1,0.3,0.3,0.4,0.4
					c-0.7,0.7-1.6,1.4-2.2,2.3c-0.7,0.9-1.3,2-1.8,3c-1,1.8-1.9,3.6-3,5.4c-0.5,0.8-1.2,1.5-1.8,2.3c-0.2,0.2-0.3,0.5-0.3,0.8
					c0,3.9,0.4,7.7,1.5,11.4c0.3,1.1,0.5,2.3,0.7,3.4c0.3,1.4,0.5,2.7,0.8,4.1c0.6-0.2,1.2-0.4,1.8-0.6c-0.3-0.2-0.6-0.4-0.6-0.7
					c-0.4-1.8-0.8-3.7-1.2-5.5c-0.2-1-0.4-2-0.6-3c-0.2-1.6-0.4-3.2-0.6-4.8c-0.3-1.9-0.5-3.9,0.4-5.6c1.5-2.8,3.3-5.5,5-8.1
					c0.8-1.2,1.8-2.3,2.7-3.5c0.3-0.3,0.4-0.8,0.8-1c1.6-1.1,3-2.4,3.9-4.1c0.1-0.2,0.5-0.3,0.7-0.2c2.5,0.6,3.9-0.2,5.4-2.7
					c0.4-0.6,1-1.4,1.7-1.6c1.8-0.6,2.3-2.1,2.7-3.5c0.4-1.4,0.2-3.1,1.5-4.2c0.8-0.7,1.4-1.5,2.2-2.1c0.9-0.8,1.8-1.9,3.1-2
					c0.4,1.4,0.4,2.9,1.8,3.7c1.2,0.6,2.4,1.1,3.6,1.6c-0.6,0.2-1.4,0.5-2.2,0.9c-0.3,1.5-0.6,2.9-0.8,4.4c-0.2,1.7,0.3,3.2,1.7,4.3
					c0.3,0.3,0.6,0.7,0.8,1.1c0.7,1.1,1.3,2.4,2.2,3.1c2.3,1.9,6.8,0.1,7.3-3.1c0.2-1.2,0.8-2.3,1.2-3.4c0.5,0.6,0.9,1.1,1.1,1.7
					c0.6,1.6,2.2,2.7,3.9,2.4c1.5-0.2,2.9-1,4.4-0.7c0.1,0,0.1-0.1,0.2-0.2c1.3-0.4,2-1.5,2.7-2.6c0.2-0.3,0.6-0.8,0.9-0.7
					c1.9,0.1,3.6,0.8,4.7,2.3c0.2,0.3,0.3,0.8,0.4,1.1c0.3,1.2,0.1,2.5,1.1,3.5c0.3,0.3,0.2,1.2,0.1,1.7c-0.6,2.1,0.4,4.4,2.2,5.6
					c1.5,0.9,4.7-0.1,5.5-1.6c0.3-0.5,0.6-1,0.9-1.5c0.1,0.2,0.1,0.4,0.1,0.5c0,1.1-0.2,2.2-0.1,3.2c0.1,0.9,1.9,1.8,3.1,1.6
					c0.7-0.1,1.4-0.3,2.1-0.3c0.8,0,1.4-0.1,1.9-0.8c0.4-0.4,0.9-0.9,1.5-1c1.7-0.4,2.8-1.6,3.5-3.1c0.4-0.8,0.7-1,1.5-1.1
					c0.8-0.1,1.6-0.6,2.3-1.1c1.8-1.3,1.8-3.6,2.8-5.3c0-0.1,0-0.2,0-0.3c-0.3-1.2-0.3-2.6-1.6-3.4c-1.3-0.8-2.5-1.6-4.1-1
					c-1,0.4-2,0.6-3,0.9c0.3-1,1.5-2.3,2.7-2.7c1.2-0.4,1.2-0.5,0.7-1.7c-0.1-0.1-0.1-0.3-0.1-0.5c0.5-1.7-1.6-3.6-2.9-3.9
					c-0.6-0.1-1.2-0.6-1.8-0.9c0-0.1-0.1-0.2-0.1-0.4c2.3-0.9,2.9-2.6,2.4-4.7c0.5,0,1-0.1,1.5,0c0.5,0.1,1,0.4,1.5,0.5
					c1.7,0.4,3.4-0.7,4-2.3c0.2-0.5,0.8-1,1.2-1.4c0.4-0.3,1-0.5,1.2-0.8c0.6-1,1.1-2.1,1.7-3.2l-0.5-1.3c-0.8-1.1-1.8-1.4-3.2-1.2
					C282.3,146.9,282.4,146.8,282.5,146.8z M211.9,134.2c-1,0.4-2,0.6-2.9,0.2c-0.2,0.1-0.3,0.1-0.5,0.1c-0.1,0-0.7,0.1-0.6,0.1
					c-0.2,0-0.3,0.1-0.5,0.1c-0.2,0.1-0.5,0.2-0.7,0.2c-1.2,0.8-2.5,0.6-3.9,0.2c-1.1-0.3-1.9-2.2-1.9-3.4c0.1-1.7,1-3,1.5-4.5
					c0.1-0.2,0.2-0.5,0.2-0.8c0.1-0.6,0.2-0.8,0.9-0.9c0.7-0.1,1.3-0.7,2-1.1c0.8,1.8,2.6,2.6,4.2,3.6c1.2,0.8,2,2.1,2.4,3.6
					c0,0.2,0.1,0.4,0.2,0.6C213,132.9,212.9,133.7,211.9,134.2z M205.5,122c2.4,0.4,3.3,2.1,4.2,3.9
					C207.7,125.3,206.8,123.6,205.5,122z M207.4,118.7c1.6-1.4,3.2-2.8,4.8-4.3c0.2-0.2,0.5-0.3,0.6-0.4c1.5-0.4,3.8,0.4,4.8,2.3
					c0.5,1,0.9,2,1.5,2.9c0.5,1,0.4,1.7-0.4,2.5c-0.4,0.4-0.8,0.8-0.9,1.2c-0.4,1.3-1.4,2-2.5,2.2c-1.5,0.3-3,0.2-4.3-0.8
					c-0.4-0.3-0.7-0.7-0.9-1.1c-0.5-1.2-1.4-1.8-2.4-2.4C207.1,120.6,206.9,119.1,207.4,118.7z M199,110.7c-0.1-0.2-0.1-0.4-0.1-0.7
					c-0.3-2.2,0.6-4,1.9-5.8c0.6,0.2,1.2,0.4,1.9,0.5c0.8,0.1,1.6,0,2.3-0.2c1.4-0.4,2.7-0.1,3.6,0.9c0.5,0.5,0.9,1.1,1.4,1.6
					c1,1,0.9,2.2,0.4,3.4c-0.6,1.4-1.3,2.7-3,3.3c-0.7,0.2-1.3,1.1-1.9,1.7c-0.3,0.3-0.4,0.6-0.5,0.7c-0.8-0.2-1.5-0.3-2-0.6
					c-0.7-0.4-1.6-0.8-1.7-1.4c-0.1-0.5-0.4-0.9-0.7-1.3c-0.5-0.1-1-0.5-1.3-0.9C199.1,111.5,199,111.1,199,110.7z M198.4,112
					c1.1,1.8,2.1,3.4,3.1,5.1c-1.3,0.1-1.5-0.9-1.9-1.5C199.1,114.6,198.9,113.4,198.4,112z M200.9,120.4c1.1-0.9,1.9-0.8,2.1,0.3
					c0,0,0,0.1,0,0c-0.6,0.2-1.1,0.4-1.6,0.5c-0.2,0-0.5-0.1-0.7-0.2C200.7,120.8,200.7,120.5,200.9,120.4z M200.2,118.7
					c-0.3,1.2-0.6,2.1-0.8,3c-0.4-0.6-1.2-0.6-1.7,0.2c-0.9,1.5-0.9,1.5-2.9,1.1c0.4-0.4,0.6-0.9,1-1.1c0.7-0.4,1.5-0.6,2.2-0.8
					c0.6-0.2,0.9-0.6,0.9-1.2c0-0.4,0.1-0.9,0.3-1.2C199.3,118.5,199.9,118.7,200.2,118.7z M187,117.2c-0.1-0.4,0.1-0.8,0.1-1.2
					c0.1-1.5,0.1-3,0.3-4.4c0.4-2.5,2.8-3.3,4.8-2.7c1.2,0.4,2.5,0.6,3.3,1.7c1,1.6,1.9,3.3,2.9,5c-0.1,0-0.1,0.1-0.2,0.1
					c0.1,0.3,0.2,0.6,0.3,0.9c0.2,0.6,0.1,1-0.2,1.6c-0.6,1.3-1.9,1.5-2.7,2.3c-1,0.9-2.1,1.4-3.4,1.3c-0.7-0.1-1.4-0.3-2-0.6
					C188.1,120.6,187.5,118.9,187,117.2z M188.4,127.1c0-0.2,0-0.3,0.1-0.5c0.4-1.9,1-2.4,2.9-2.2c1.8,0.1,3.6,0.2,5.4,0.3
					c0.5,0,0.9,0.2,1.4,0.4c0.7,0.3,1.2,0.1,1.7-0.4c0.2-0.2,0.5-0.3,0.6-0.5c0.2-0.2,0.3-0.4,0.5-0.6c-0.3,0-0.6-0.1-0.8-0.1
					c-0.3,0-0.6,0.2-1,0.3c0.2-0.5,0.3-1,0.4-1.4c1.2,0.7,1.5,0.7,2.7-0.2c0.1-0.1,0.3,0,0.4-0.1c1.5-0.6,1.9-2.3,0.7-3.3
					c-0.4-0.3-1.1-0.2-1.7-0.3c0.5-0.5,1-1,1.6-1.6c0.1,0,0.2,0.1,0.3,0.1c0,0.5,0.1,1,0.1,1.6c0.4-0.1,0.8-0.1,1.2-0.2
					c-0.3,0.6,0.1,0.7,0.5,1c0.2,0.1,0.6,0.4,0.6,0.6c0,0.3-0.3,0.6-0.6,0.7c-0.9,0.4-1.2,0.9-0.9,1.8c0.2,0.5,0.2,0.9-0.3,1.2
					c-0.5,0.2-0.9,0.4-1.3-0.2c-0.2-0.3-0.6-0.5-1-0.8c-0.4,0.7-0.7,1.3-1,1.9c-0.1,0.2-0.2,0.5-0.4,0.6c-1.8,0.7-1.2,2.2-1.3,3.5
					c-0.1,1.2-0.4,2.4-0.9,3.4c-1,1.7-4.1,2.1-5.9,0.9c-1-0.7-1.7-1.6-2.2-2.7c-0.3-0.7-1-1.3-1.4-2
					C188.5,128,188.5,127.5,188.4,127.1z M201.6,40.9c-1.4,0.1-2.7,0.1-4-0.4c0-0.1,0-0.3,0-0.4c0.7-0.1,1.5-0.3,2.2-0.2
					C200.5,39.9,201,40.5,201.6,40.9z M192.6,36.5c-0.1-0.5-0.1-1,0.2-1.3c0-0.9,0-1.9,0.2-2.8c0.1-0.5,1-1,1.6-1.2
					c1-0.3,2-0.2,3-0.4c1.3-0.2,1.8,0.9,2.5,1.6c0.7,0.8,1.1,1.7,1.6,2.6c0.6,1.2,0,2.5-1.3,2.9c-1.4,0.5-2.9,1-4.3,1.5
					c-0.3,0.1-0.5,0.3-0.8,0.5c-0.2-0.4-0.4-0.8-0.1-1.2c-0.5-0.1-0.9-0.3-1.4-0.6c-0.3-0.2-0.6-0.6-0.8-0.9c-0.1,0-0.1,0-0.2,0
					c0-0.1,0-0.2,0-0.3C192.7,36.8,192.7,36.7,192.6,36.5z M168.1,30.4c-0.1-0.1-0.2-0.3-0.3-0.4c-0.2,0.3-0.4,0.5-0.6,0.6
					c0,0,0,0,0,0l-0.3,0.1c0,0,0,0,0,0l-0.6,0.2c0,0,0-0.1-0.1-0.1c0,0-0.1,0-0.1,0c0,0,0,0,0,0c0,0.1,0,0.2,0,0.3
					c0,0.4-0.3,0.7-0.6,1c-0.1,0.2-0.2,0.4-0.4,0.6c-0.8-0.1-1.6-0.1-2.3-0.2c-0.6-0.1-1.2-0.3-1.7-1c-0.6-1-1.6-1.8-1.9-3.1
					c-0.1-0.5-0.2-1-0.2-1.6c0-0.7,0.2-1.5,0.3-2.2c0-1,0.4-1.7,1.3-2.3c1-0.7,2-1,3.1-0.7c0.2,0,0.5,0,0.7-0.1
					c1.8-0.5,3.6,0.6,4.1,2.5c0.4,1.7,0.7,3.3,0,5C168.3,29.3,168.3,29.8,168.1,30.4z M170.7,46.5c-1.2-0.1-2.4-0.2-3.6-0.4
					c-0.9-0.2-1.4-0.7-1-1.8c0.3-0.7,0.3-1.5,0.5-2.3c0.1,0,0.1,0,0.2,0c-0.1-0.6,0.2-1.1,0.7-1.5c0.4-0.4,0.9-0.7,1.4-0.9
					c0,0,0.1,0,0.1-0.1c0.1-0.1,0.2-0.1,0.2-0.2c0,0,0,0,0,0c0.3-0.2,0.5-0.3,0.8-0.4c-0.1-0.3-0.3-0.6-0.4-0.9c0.1,0,0.2,0,0.3,0
					c0.3-0.3,0.6-0.7,1-0.9c0.4-0.2,0.9-0.2,1.3-0.1c1,0.3,2,0.8,3,1.2c1,0.4,2,0.1,2.8-0.5c0.3-0.2,0.6-0.4,0.9-0.6
					c0.5,1,0.9,1.8,1.2,2.5c-0.9,0.2-1.9,0.2-2.7,0.6c-0.6,0.3-1.1,1-1.4,1.7c-0.5,1-0.9,1.9-2,2.4c-0.3,0.1-0.5,0.3-0.6,0.6
					C172.9,45.9,172,46.6,170.7,46.5z M176.2,54.9c-0.2-1.1-0.3-1.8-0.4-2.9c0.7,0.4,1.2,0.7,1.7,1C177,53.5,176.7,54.1,176.2,54.9z
					 M186.4,82.8c-1.2-0.6-1-1.9-1.5-2.8c0.1-0.1,0.2-0.1,0.3-0.2c0.5,0.9,1,1.9,1.5,2.8C186.6,82.7,186.5,82.8,186.4,82.8z
					 M184.4,70.7c0.5-1.5-0.5-2.7-0.6-4.1c-0.1-1.4,0.2-2.8,1.3-3.7c1.1-0.9,2.3-1.6,3.6-2.3c0.8-0.5,2.3,0.2,2.9,1.1
					c0.9,1.3,1.8,2.5,2.6,3.9c0.7,1.3,1.1,2.7,0.3,4.2c-0.6,1.3-1.8,1.6-3,1.7c-1.5,0.1-3-0.2-4.4,0.6c-0.3,0.2-0.7,0.1-1,0.1
					c-0.7,0-1.4-0.1-2.1-0.2C184,71.7,184.2,71.2,184.4,70.7z M190,73.3c-1.7,1.1-1.9,1.2-2.8,0.8C187.7,73.2,188.7,72.9,190,73.3z
					 M182.6,71.1c0-0.9,0-1.9,0-2.9C183.5,69.2,183.6,70.7,182.6,71.1z M155.8,44.7c0.7-1.6,3-2.1,4.6-0.9c0.6,0.5,1.2,1,1.9,1.5
					c1.8,1.2,1.5,3.6,0.9,4.9c-0.7,1.5-1.7,2.1-3.2,2.4c-1.1,0.3-2,1.3-2.9,1.9c-0.6-0.5-1.3-0.9-1.7-1.5c-0.4-0.5-0.4-1.2-0.6-1.9
					C154.2,48.9,154.9,46.8,155.8,44.7z M160.7,54.5c-0.4,0.8-0.9,1.2-1.8,0.5C159.4,54.8,160,54.7,160.7,54.5z M144.6,47.4
					c0.2-2.4,1.8-3.9,3.6-5c1.7-1.1,4.1-0.1,4.5,2.2c0.1,0.6,0.3,1.2,0.5,1.9c0,0,0,0.1,0,0.1c-0.2,2.2,0.4,4.4-0.2,6.6
					c-0.2,0.8-0.5,0.9-0.9,0.4c-0.2,0.3-0.4,0.5-0.7,0.7c-0.1,0.1-0.3,0.2-0.4,0.2c-0.1,0.1-0.1,0.1-0.2,0.2c0,0-0.1-0.1-0.1-0.1
					c-0.4,0.1-0.8,0.1-1.3,0.1c0.1,0.2,0.3,0.3,0.4,0.5c-2.7,0-3.7-1.5-4.4-3.4c-0.2-0.4-0.4-0.8-0.6-1.1
					C144.1,49.6,144.5,48.5,144.6,47.4z M154.3,62.7c-0.1,0-0.3,0.1-0.4,0.1c0.1,0.7,0.2,1.5,0.4,2.2c0.3,1.2,0.6,2.5,0.8,3.7
					c0.2,1.6-2,3.4-3.5,2.9c-1.1-0.4-2.1-0.4-3.2,0.3c-0.7,0.4-1.7,0.6-2.5,0.6c-0.3,0-0.8-0.5-0.9-0.9c-0.3-0.8-0.5-1.6,0.4-2.2
					c0.3-0.2,0.4-0.5,0.6-0.8c0.4-1,1.7-2.1,3-2.5c0.4-0.2,0.9-0.3,1.4-0.4c0.3-0.4,0.6-0.9,1-1c1.5-0.4,2.1-1.8,3-2.8
					c0.9,0.9,1.9,1.7,1.1,3.2C155,64.2,154.6,63.5,154.3,62.7z M162.6,63.3c-0.3,0.4-0.6,0.7-0.9,1c-0.3,0.5-0.7,0.9-1.2,1.2
					c0,0,0.1,0.1,0.1,0.1c-0.6,0.8-1.3,1.7-2.1,2.6c-0.7,0.8-1.6,0.5-2-0.5c-0.5-1.1-0.2-2,0.1-3c-0.3-0.3-0.5-0.7-0.7-1
					c-0.4-0.6-0.4-1.4,0.1-2c-0.4-0.9,0.2-1.8,0.4-2.7c0.1-0.5,0.1-1.1,0.1-1.6c0-0.2-0.4-0.3-0.6-0.5c-0.2,0.2-0.5,0.5-0.5,0.7
					c0.3,1.2-0.2,1.7-1.2,2.2c-0.5,0.3-0.7,0.9-1,1.4c-0.5,0.7-1.2,0.8-1.7,0.2c-0.5-0.6-0.5-0.6-1,0c-0.1,0.1-0.1,0.2-0.2,0.2
					c-0.7-0.2-1.4-0.3-2.1-0.5c0,0.3-0.1,0.6-0.2,0.9c0.1,0,0.1,0.1,0.2,0.1c-0.8,1-1.6,2.1-2.3,3.1c-0.9,1.4-3.2,1.7-4.4,1.5
					c-0.4-0.1-0.8-0.4-1-0.8c-0.4-0.8-0.7-1.7-0.9-2.6c-0.2-1-0.4-2-0.5-3.1c-0.3-2.1,0.2-2.8,2.1-3.5c0.6-0.2,1.2-0.6,1.7-1
					c0.7-0.6,1.7-0.7,2.3-0.4c1,0.6,1.9,1.6,3,2.5c-0.4,0-0.5,0-0.6,0c-0.2,0-0.4,0.1-0.7,0.1c0.1,0.2,0.2,0.6,0.3,0.6
					c0.8,0.3,1.4,0.7,1.7,1.7c0.1,0.2,0.6,0.6,0.9,0.5c0.4-0.1,0.8-0.4,1.2-0.7c0.1-0.1-0.1-0.6-0.3-0.7c-0.4-0.3-0.8-0.4-1.3-0.6
					c0.5-0.7,0.9-1.2,1.4-2c-2.1,0.4-2.5,0.2-2.9-1.1c1,0,1.9,0.1,2.8,0.1c0.9,0,0.7-2.1,2.4-1.1c-1.3,1.2-1.5,2.8-1.7,4.4
					c0,0.3,0.1,0.9,0.3,0.9c0.4,0.1,0.9,0,1.1-0.2c0.8-0.6,1.5-1.3,1.5-2.5c0.1-1,0.3-2-0.5-2.8c-0.1-0.1,0-0.5,0.1-0.7
					c0.7,0.3,1.4,0.5,2,0.8c1,0.6,2,1.2,3,1.7c0.3,0.1,0.9-0.1,1.3-0.3c0.6-0.4,1.2-1,1.7-1.5c0.7,0.4,0.8,0.9,0.8,1.6
					c0,0.8,0.1,1.6,0.5,2.3C163.8,60.4,163.4,61.9,162.6,63.3z M167.5,65c-1-0.2-2-0.6-3-0.9c-0.2-0.1-0.4-0.3-0.6-0.5
					c0.2,0,0.5,0,0.7,0c1.4,0.4,2.8,0.8,4.2,1.1l0,0.3C168.4,65,168,65.1,167.5,65z M169.7,71c0-1.5-0.1-3.1,0.2-4.6
					c0.3-1.6,1-3,2.8-3.6c1.4-0.5,2.9-0.7,4.4-1c0.2,0,0.4,0,0.6,0.1c0.8,0.8,1.7,1.5,2.3,2.4c0.9,1.4,1.7,2.9,1.5,4.7
					c-0.1,1-0.1,2-0.2,3c-1.7,0-1.3,1.7-1.8,2.6c-1.3-0.2-2.5-0.4-3.8-0.6c-0.4-0.1-0.8-0.2-1.2-0.1c-2.3,0.6-3.4-1-4.6-2.3
					C169.8,71.5,169.7,71.2,169.7,71z M164.6,78.8c0-0.5,0.2-0.9,0.4-1.4c0.6-1.3,1.9-0.9,2.9-1.1c1-0.2,1.9,0.4,2.8,0.9
					c0.8,0.4,1.8,0.4,2.7,0.6c0.3,0.1,0.6,0,0.9,0c0,0,0,0.1,0,0.1c0.2,0,0.4,0.1,0.6,0.2c0-0.1,0-0.2,0-0.4
					c0.8-0.4,1.7-0.9,2.6-1.3c0.6-0.2,1.4,0,1.8-0.3c0.5-0.4,0.8-1.1,1-1.7c0.2-0.8,0.3-1.1,1.2-0.9c0.4,0.1,1-0.4,1.5-0.6
					c0.2-0.1,0.3-0.3,0.6-0.5c-0.2,0.6-0.4,0.9-0.5,1.3c0.1,0.1,0.1,0.1,0.2,0.2c0.4-0.2,0.8-0.4,1.1-0.6c0.6-0.4,0.8-0.2,1,0.4
					c0.1,0.3,0.4,0.5,0.7,0.7c0.1,0.1,0.3,0,0.3,0.1c0.9,1.1,1.9,0.5,2.9,0.1c1.2-0.5,2.4-0.9,3.6-1.3c1.3-0.4,2.4-0.3,3.6-0.1
					c1.2,0.2,1.5,0.7,1.5,1.7c0,0.6,0,1.3,0.3,1.9c0.6,1.3,0.2,2.3-0.4,3.6c-0.1-0.1-0.3-0.2-0.4-0.4c0,0.3-0.1,0.7-0.3,1
					c0.3,0.4,0.2,0.8-0.1,1.1c-0.2,0.3-0.5,0.4-0.7,0.3c-0.2,0.3-0.4,0.5-0.7,0.8c0,0-0.1,0.1-0.1,0.1c0,0,0,0,0.1,0.1
					c-1.1,0.8-2,1.6-3,2.3c-0.4,0.2-1,0.3-1.5,0.2c-1.4-0.3-2.2-1.4-2.7-2.6c-0.4-1-0.6-2.1-1.1-3.1c-0.5-0.9-1.2-1.8-1.9-2.9
					c0.2-0.5,1.6-1,1-2.4c-0.8,1-1.4,1.9-2.1,2.8c-0.3,0.4-0.6,0.9-1,1.3c-0.9,0.9-1.3,0.9-2.2-0.1c-0.8,0.4-0.7,1.2-0.4,1.7
					c0.3,0.6,1,0.8,1.7,0.5c1.2-0.6,1.2-0.5,1.7,0.7c0.2,0.4,0.4,0.6,0.7,1c0.1,0.1,0,0.2,0,0.3c0.1,0.3,0.2,0.6,0.4,0.7
					c1.3,0.7,2,1.9,2.4,3.2c0.4,1,0.6,2.1,0.7,3.2c0.1,0.5-0.3,1.2-0.6,1.7c-1.1,1.9-3.9,3.1-6,2.6c-0.6-0.1-1.3-0.7-1.5-1.2
					c-0.5-1.5-1.7-2.4-2.4-3.7c-0.3-0.6-0.4-1.4-0.4-2.1c0.1-1.9,1.5-3.3,2.4-4.9c0.3-0.5,0.4-1,0.5-1.6c0-0.2-0.2-0.4-0.3-0.6
					c-0.1,0.1-0.3,0.3-0.4,0.5c-0.4,0.8-0.8,1.6-1.3,2.3c-0.1,0.1-0.3,0.2-0.5,0.2c0-0.2-0.2-0.4-0.1-0.5c0.3-1.1,0.4-2.4,1.7-3
					c0.5-0.2,0.6-1.4,0.2-1.9c-0.3-0.5-0.5-1-0.8-1.7c0.1,0,0,0-0.1,0c-0.2,0.1-0.3,0.1-0.6,0.2c0.1,0.7,0.1,1.5,0.2,2.4
					c-0.4,0.6-1,1.3-1.6,2.1c-0.1,0.2-0.2,0.4-0.2,0.6c0.3,2-0.8,3.3-2.3,4.3c-1.5,1-3.2,1.2-5,0.8c-1.4-0.3-2-1.4-2.7-2.3
					c-0.4-0.6-0.5-1.4-0.9-1.9C164.3,81.9,164.5,80.3,164.6,78.8z M140.8,89.5c0.4-1.7,1-3.3,1.5-4.9c0-0.1,0.1-0.2,0.2-0.2
					c1.6-0.3,2.4-1.7,3.2-2.8c0.9-1.2,2.7-2.1,3.9-1.8c0.8,0.2,1.2,0.8,1.5,1.5c0.8,1.6,1.2,3.2,1,4.9c-0.2,2.3-0.3,4.6-0.4,6.9
					c0,0.2-0.2,0.5-0.3,0.7l-0.2-0.1c-0.1,0.1-0.2,0.1-0.3,0.2c-1.5,1.7-3.1,0.9-4.8,0.3c-1.7-0.6-3.2-1.5-4.6-2.7
					C140.8,91,140.6,90.2,140.8,89.5z M152.1,95.2c-0.6,0.6-0.9,1-1.3,1.4c-0.5,0.7-1.3,1.3-1.1,2.4c0.1,0.7-0.4,1.2-1.1,1.2
					c0.2-1.9,0.4-3.7,2.2-4.7C151.1,95.3,151.5,95.3,152.1,95.2z M163.4,102.3c0,0.4,0,0.9,0.1,1.3c0.1,0.6,0.3,1.1,0.5,1.7
					c0.1,0.3,0.1,0.6,0.3,0.8c0.5,0.7,0.3,1.3-0.4,1.6c-0.7,0.4-1.5,0.6-2.2,1c-1.1,0.5-1.9,1.3-2.3,2.5c-0.4,1.4-1.3,2.1-2.7,2.3
					c-1.8,0.2-2.7-1.3-3.1-2.9c-0.3-1.6-0.4-3.3-0.7-5c-0.1-0.8-0.5-1.6-0.8-2.4c-0.2-0.4-1.1-0.3-1-1.1c0,0-0.4-0.1-0.5-0.1
					c-0.5,0.1-0.9,0.3-1.6,0.5c0,0.2,0.1,0.8,0.2,1.6c0.8-0.5,1.3-0.8,2-1.1c0.5,2.9,0.9,5.9,1.5,8.8c0.2,0.9,0.6,1.7,1.1,2.4
					c0.7,1.1,0.8,1.9-0.2,2.6c-1.2,0.8-2.6,1.4-3.9,1.8c-1.1,0.3-1.9-0.7-2.8-1.3c-0.6-0.3-1.1-0.7-1.7-0.9
					c-0.6-0.2-1.2-0.3-1.8-0.5c-0.8-0.3-1-1.5-0.5-2.4c0.5-0.9,0.8-2,1.2-3c0.2-0.4,0.3-0.8,0.6-1.1c1.1-1.4,2.2-2.8,3.4-4.2
					c0.6-0.7,0.6-1.4,0.3-2.1c-0.3-0.8-0.9-0.9-1.7-0.9c-0.3,0-0.7,0-1.1,0.1c0,0,0-0.1,0-0.1c0,0-0.1,0-0.1,0.1
					c-0.1,0.1-0.3,0.2-0.4,0.2c0.1,0,0.1,0.1,0.2,0.1c-0.2,0.2-0.4,0.5-0.6,0.8c-0.5,0.8-1,1.6-1.4,2.4c-1,2.1-2.9,4.4-5.9,3.8
					c-0.2-1.1-0.5-2.3-0.6-3.6c-0.2-1.8-0.7-3.5-1.3-5.2c-0.4-1-0.3-2.3-0.2-3.4c0-0.4,0.6-0.9,1-1.2c1-0.7,2.1-1.3,3.5-1.3
					c1.4,0,2.5,0.6,3.6,1.3c1.4,0.8,2.9,1.5,4.4,2.2c-0.1,0.8-0.2,1.8-0.2,2.8c0,0.7,1.1,1,2,0.4c1.1-0.6,2.1-1.4,2.6-2.6
					c0.6-1.3,1.5-2.5,2.1-3.7c0.4-0.8,0.5-1.9,1.1-2.6c1.4-1.6,0.8-3.6,1.4-5.3c0.3-0.9,0.6-1.8,1.1-2.6c1.3-1.8,3.7-1.6,5,0.2
					c0.9,1.3,2.1,2.4,3.2,3.6c0.9,0.9,0.9,1.5,0.2,2.6c-0.6,0.9-1,1.9-1.6,2.8c-0.8,1.4-2.2,2.1-3.7,2.4c-1.4,0.3-2.7,0.6-4.1,0.7
					c-0.6,0-1.3-0.4-1.9-0.6c0.3-0.6,0.6-1.1,0.9-1.6c-1.1,0.1-1.5,0.6-1.6,1.7c-0.1,1.3,0.4,1.4,2.7,2c-1.1,0.6-1.1,0.6-2.1-0.2
					c-0.6-0.5-0.9-0.1-1.2,0.4c-0.3,0.5-0.7,1.1-1.1,1.6c-0.3,0.5-0.5,1-0.7,1.4c0.1,0.1,0.2,0.1,0.3,0.2c0.6-0.4,1.2-0.8,1.9-1.2
					c0.3-0.2,0.6-0.4,0.9-0.4c1.3,0.2,2.3-0.2,3.4-0.7c1.2-0.6,2.6-0.4,3.7,0.2c0.5,0.3,0.8,0.9,1.1,1.5
					C163.4,101.7,163.5,102,163.4,102.3z M144.2,107.5c0.3-1.8,1.5-2.9,3-3.7C147.3,104.5,145.3,107,144.2,107.5z M176.2,89.5
					c-1.4,1.8-0.2,3.6-0.5,5.4c-0.3,1.8-0.2,3.6-0.4,5.4c-0.1,1.3-0.4,2.6-0.6,4.2c-0.8-0.5-1.4-0.8-2-1.2c-0.1-0.1-0.2-0.2-0.3-0.2
					c-1.8-0.6-3.5-1.2-5.3-1.8c-0.2-0.1-0.3-0.2-0.5-0.2c-1.2,0.2-1.7-0.6-2.3-1.4c-0.3-0.5-0.9-0.7-1.4-1.1
					c-0.3-0.3-0.6-0.5-0.9-0.8c0.3-0.2,0.7-0.3,1-0.5c1-0.9,2.7-1.1,2.8-2.9c0.1-0.5,0.6-1,0.8-1.5c0.5-1.2,1-2.4,1.6-3.7
					c3.5,0.1,3.7,0.8,8.3-2.9C176.4,87.4,176.7,88.8,176.2,89.5z M199.2,153.5C199.2,153.5,199.3,153.4,199.2,153.5
					c-0.1-1.9,0.6-3.6,1-5.3c0.4-1.5,1.5-2.3,2.4-3.3c0.9-1,3.6-0.4,4.2,0.9c0.6,1.2,1.3,2.4,2.3,3.3c0.8,0.7,1.5,1.6,2.1,2.6
					c0.3,0.6,0.4,1.4,0.5,2.1c0.1,1.2-1.7,3.5-2.8,4c-1.7,0.8-3.3,0.4-5,0c-1-0.2-2.1-0.1-3.1-0.1c-0.4-0.6-0.9-1.2-1.3-1.9
					c-0.1-0.2-0.1-0.4-0.1-0.6C199.1,154.7,198.9,154,199.2,153.5z M200.6,169.1c-0.8-1.5-1.5-3-2.3-4.5
					C199.4,165,200.7,167.5,200.6,169.1z M189,156.1c1.8,0.2,3,1.5,4.4,2.4C192,158.9,189.3,157.3,189,156.1z M197.7,160.1
					c-0.2,0.7-0.7,0.9-1.4,0.9c-0.3-1,0.1-1.4,0.9-1.4C197.3,159.6,197.7,160,197.7,160.1z M186.1,143.7c0.2-0.2,0.5-0.4,0.7-0.4
					c1.5,0.1,2.7-0.8,4-1.3c0.7-0.3,1.6-0.3,2.4,0.3c1.7,1.3,2.9,2.8,3.3,4.9c0.3,1.7,1,3.4-0.1,5.1c-0.1,1-0.2,2.1-0.4,3.1
					c0,0.1-0.2,0.3-0.4,0.3c-0.6,0.3-1.3,0.6-2.2,1c-0.9-0.5-2-1.2-3.2-1.7c-2.5-0.9-4.2-2.7-5.3-4.9
					C183.8,147.8,184,145.4,186.1,143.7z M183.1,167.7c-0.4-0.1-0.7-0.6-1-0.9c-1-1.1-2.1-2.2-3-3.4c-0.9-1.2-0.3-2.3,0.2-3.4
					c0.2-0.4,0.3-0.9,0.3-1.4c-0.2-1.6,0.3-3,1.3-4.2c0.2-0.3,1.1-0.1,1.6-0.1c2,0,3.5,0.9,4.7,2.4c0.2,0.2,0.4,0.4,0.6,0.5
					c1.2,0.9,2.3,1.8,3.5,2.8c0.1,0.1,0.4,0.2,0.5,0.3c0.2,0.2,0.6,0.4,0.6,0.6c0,0.7-0.1,1.3-0.8,1.9c-1.1,1-1.9,2.3-3,3.4
					c-0.6,0.6-1.3,1.1-2,1.7C185.4,167.9,184.2,167.9,183.1,167.7z M193.1,163.7c0.3,1.6-1.3,3.3-3,3.3
					C190.3,165.4,191.6,164,193.1,163.7z M185.8,174.3c-0.2-0.2-0.4-0.3-0.5-0.6c-0.2-0.7-0.3-1.3-0.3-2c0-0.5,0-1.2,0.3-1.6
					c0.3-0.4,1-0.4,1.4-0.5C186.3,171.2,186.1,172.7,185.8,174.3z M189.1,187.3c-0.5-1.6-1.1-3.1-1.5-4.6c-0.3-0.9-0.4-1.9-0.5-2.9
					c-0.1-0.6,1-2.2,1.6-2.4c0.1,0,0.2-0.1,0.3,0c0.9,0.3,1.8,0.5,2.7,0.8c0.8,0.3,1.5,0.8,2.3,1.2
					C192.3,181.9,190.7,184.6,189.1,187.3z M200,174.4c-0.5,0.8-0.6,1.9-1.6,2.3c-1.7,0.8-3.5,1-5.4,0.4c-0.8-0.3-1.6-0.7-2.4-1
					c-0.7-0.3-1.4-0.5-1.9-0.8c-0.6-0.4-1-1-1.6-1.5c-0.1-0.1-0.3-0.3-0.2-0.4c0.5-1,0.4-2.2,1.1-3.2c0.7-1.1,1.7-1.4,2.8-1.6
					c0.1,0,0.3,0,0.4-0.1c0.8-0.9,1.7-1.9,2.5-2.8c0.5-0.6,0.8-1.2,1.3-2c0.1,1.6,1,1.6,2,1.6c0.4,2,1.2,3.8,2.5,5.5
					C200.4,171.7,200.8,173,200,174.4z M201.5,175.2c0.6-1.8,0.3-1.9,1.5-1.1C202.4,174.5,201.9,174.8,201.5,175.2z M212,167.5
					c-0.3,0.6-1.2,1.1-1.9,1.4c-1,0.5-1.6,1.1-1.9,2.2c-0.6,2-3.2,2.9-4.5,1.7c-0.8-0.7-1.4-1.9-1.8-2.9c-0.3-0.7,0-1.6-0.1-2.4
					c0-0.4-0.3-0.8-0.5-1.2c-0.2-0.4-0.4-0.8-0.6-1.2c-0.7-0.3-0.9-0.9-0.8-1.5c-0.2-0.3-0.3-0.6-0.5-0.9c0.6-0.5,1.2-1.2,2-1.6
					c0.4-0.2,1,0.2,1.5,0.3c1.1,0.3,2.1,0.9,3.1,0.8c0.9-0.1,1.8-0.2,2.7-0.1C211,162.4,213.3,164.8,212,167.5z M240.5,156
					c0.8-1,1.7-1.9,2.2-3c0.8-1.8,2.1-2.6,4-2.7c1.9-0.1,3,0.8,3.8,2.3c0.5,0.9,0.8,1.8,1.7,2.4c0.2,0.2,0.2,0.6,0.3,0.9
					c0.5,1.5,0.3,2.2-1.1,3.1c-0.3,0.2-0.6,0.3-0.8,0.6c-1.6,1.8-3.6,1.6-5.6,1c-1.3-0.4-2.7-0.7-4.1-1.1c-0.4-0.1-0.8-0.1-0.7-0.7
					c0.1-0.2,0-0.6-0.2-0.8C239.3,157.2,240,156.7,240.5,156z M245.4,162.5c-2,0.1-3.5-0.3-4.1-1.2
					C242.8,161.2,244.4,161.7,245.4,162.5z M236.6,143.8c1.6,0.3,2.7,1.3,3.6,2.5c0.5,0.7,0.9,1.5,1.1,2.4c0.1,0.5,0.1,1.2-0.2,1.6
					c-0.8,1.2-1.8,2.3-2.8,3.5c0-0.1,0-0.1,0-0.2c0,0.1-0.1,0.1-0.1,0.2c-0.1,0.1-0.2,0.3-0.3,0.4c0.1,0.6,0,1-0.2,1.3
					c-0.9,0.1-1.6,0.3-2.2,0.3c-0.3,0-0.6-0.3-0.7-0.6c-0.6-1.2-1.1-2.3-1.7-3.5c-0.1-0.2-0.2-0.4-0.4-0.6c-1.6-1.2-1.4-2.8-0.9-4.5
					c0.2-0.7,0-1.5,0.7-2.1C233.8,143.5,235.1,143.5,236.6,143.8z M238.3,161.4c0.1,0.1-0.4,0.8-0.7,1c-0.3,0.2-0.9,0.1-1-0.1
					c-0.2-0.2-0.3-0.8-0.1-1.1c0.4-0.8,1.2-1.4,0.6-2.5c0.6-0.1,1-0.2,1.4-0.3c0.2,0,0.5,0.2,0.8,0.3c-0.1,0.2-0.2,0.5-0.3,0.7
					C238.4,160,237.6,160.5,238.3,161.4z M230.5,150.3c0.5,1.1,1.4,2.2,2.1,3.2c0.6,0.7,1.1,1.4,0.8,2.5c-1.3-1.1-2.3-2.2-3-3.6
					c-0.2-0.5-0.7-1-1.2-1.4c-0.7-0.6-0.6-1.2-0.2-1.8c0.3-0.5,0.6-1,0.9-1.5c0.1,0,0.1,0.1,0.2,0.1
					C230.3,148.5,230.2,149.5,230.5,150.3z M246.2,138.2c-0.3,0.3-0.7,0.6-1,0.8c-0.5,0.2-1,0.4-1.3-0.1c-0.6,0.1-1.1,0.1-1.5-0.2
					c-1,0.5-1.9,1.1-2.9,1.1c-1.5,0.1-3-0.2-3.8-1.9c-0.3-0.7-0.9-1.3-1.4-1.8c-0.9-0.9-0.9-1.7,0.2-2.3c0.6-0.4,1.2-0.6,1.8-1.1
					c0.6-0.4,1.2-0.9,1.6-1.5c0.9-1.3,2.3-1,3.6-1.5c0.7,1.5,1.8,2.5,3.2,3.4c0.8,0.5,1.4,1.2,2,1.9
					C247.3,135.6,246.9,137.6,246.2,138.2z M237.9,125.7c0.1-0.6,0.5-1.1,0.9-1.8c0.5,0.7,0.8,1.1,1,1.3c-0.3,0.5-0.7,1-1,1.6
					c-0.4,0.9-1.6,1.9-2.5,1.7c-0.2,0-0.4-0.2-0.5-0.3c0.1-0.2,0.2-0.5,0.4-0.6C237.2,127.2,237.8,126.7,237.9,125.7z M233.5,124.4
					c-0.2-0.4-0.5-0.7-0.8-1.2c1.1-0.4,1.9,0.2,2.8,0.4c0.9,0.2,1.1,0.7,1.3,1.4c0.1,0.5,0.1,0.7-0.6,0.7
					C235,125.8,234,125.6,233.5,124.4z M257.9,129c0.3,0.3,0.5,1.1,0.3,1.4c-0.4,0.8-0.7,1.8-1.9,1.6c-1.2-0.2-2,0.2-2.8,1
					c-1,1.1-3.2,1-4.5,0.3c-0.9-0.5-1.4-1.2-2-1.8c-0.9-0.8-1.9-1.6-2.9-2.4c0.7-0.7,1.3-1.1,2.5-1.1c2.2,0,4.5-0.5,6.7-0.7
					C255,127.1,256.7,127.5,257.9,129z M244.5,121c0.4-1.9,1.6-2.9,2.8-4.1c0.7-0.6,1.6-1,2.5-1.4c0.6-0.3,2.2,0.7,2.7,1.5
					c0.3,0.5,0.5,1.1,0.9,1.5c0.5,0.6,1,1.1,1.5,1.7c0.1,0.2,0.3,0.4,0.4,0.6c0,0.8,0.1,1.6-0.1,2.3c-0.3,1.9-1.1,2.5-3,2.2
					c-1.5-0.2-3-0.6-4.7-0.9c0,0,0.1-0.1,0.1-0.1c0,0-0.1,0-0.1,0c-0.1,0-0.2-0.1-0.3-0.1c0,0-0.1,0-0.1,0c-0.3,0.4-0.9,0.5-1.3,0.7
					c-0.7,0.3-1.3,0.6-2,0.9C243.6,124,244.1,122.6,244.5,121z M243.8,125.7c0.1,0.3,0.1,0.5,0.2,0.8c1-0.3,1.9-0.9,2.9-0.9
					c1-0.1,2,0.4,2.9,0.6c0,0.1,0,0.2,0,0.3c-0.5,0.1-1,0.2-1.5,0.2c-1.2,0.1-2.3,0-3.5,0.1c-0.2,0-0.5,0.2-0.6,0.3
					c-0.2,0.5-0.4,1-1.1,1c-0.1,0-0.2,0.4-0.2,0.6c0,0.3,0.1,0.5,0.3,1.1c-0.7-0.8-1.1-1.3-1.6-2c-0.8,1.4-1.3,1.5-2,0.7
					c-0.4,0.2-0.8,0.3-1.2,0.4c0-0.1-0.1-0.2-0.1-0.3c0.5-0.2,1.1-0.4,1.6-0.6c1-0.3,1.5-1,1.4-1.9c-0.1-1.2,0.4-1.1,1.1-0.9
					c0,0.3,0,0.7,0,1c0.3-0.1,0.7-0.2,1-0.4C243.6,125.9,243.7,125.8,243.8,125.7z M230.1,118.3c0.1-0.9,0.2-1.9,0.2-2.8
					c0-1,0.5-1.8,1.5-1.9c1.1-0.2,1.8-0.8,2.6-1.5c1.1-1.1,1.5-1.1,2.9-0.3c1.6,0.9,2.7,2.1,3.7,3.7c0.7,1.1,1.2,2.2,1.1,3.4
					c-0.1,0.7-0.5,1.5-0.7,2.2c-0.3,0.8-0.6,1.7-1,2.9c-0.7-1.2-1.4-1.2-2.3-0.9c-0.4,0.1-1-0.1-1.4-0.3c-1.3-0.6-2.5-1.1-4-1.1
					C231.1,121.7,229.8,119.8,230.1,118.3z M230.2,134.1c-1,0.1-2.9-1.4-3.2-2.4c-0.4-1.4-1.3-2.4-2.6-3.1c-1.7-0.9-2.1-3-0.8-4.2
					c0.2-0.2,0.8-0.2,1.2-0.3c1.5-0.2,3.1-0.3,4.6-0.4c0.7,0,1.3,0.2,1.7,0.9c0.7,1.2,2.7,2.1,4.5,2.4c-0.1,0.9-1.6,1.8,0.1,2.7
					c-0.7,0.7-1.5,1.3-2.1,1.9c-0.5,0.6-0.9,1.4-1.5,1.8C231.6,133.9,230.9,134,230.2,134.1z M227.6,148.4c0.6-1.2,1.2-2.5,1.2-3.9
					c0-0.2,0.2-0.4,0.4-0.5c0.7-0.7,1.4-1.2,1.8-2.2c0.5-1.1,1.2-2.1,1.9-3.1c0.2-0.3,0.6-0.5,0.9-0.7l0.2,0.2
					c-2.7,3.5-4.3,7.5-6.2,11.4c-0.1,0-0.2-0.1-0.4-0.1C227.5,149.2,227.4,148.8,227.6,148.4z M219.1,156.9
					c-0.9,0.4-1.6,1.1-2.4,1.8c-1.3,1.1-2.5,2.2-3.8,3.3c-0.2,0.1-0.4,0.1-0.7,0.2c0-0.2,0-0.6,0.1-0.7c1.1-1.2,2.2-2.4,3.4-3.4
					c1.2-1,2.6-1.9,4-2.8c0.2-0.1,0.4-0.2,0.9-0.4C220.2,155.8,220,156.5,219.1,156.9z M221.4,158.7c-0.1-0.7,0.4-1.5,0.7-2.2
					c0.2-0.5,0.4-0.8,0-1.3c-1.1-1.6,0.3-4.5,2.2-4.7c2.1-0.2,3.5,0.8,4.6,2.4c1,1.5,2.1,2.8,3.6,3.9c0.3,0.2,0.4,0.5,0.8,0.9
					c-1.4,0.3-2,1.2-2.6,2.1c-0.2,0.3-0.7,0.5-1.1,0.7c-0.9,0.4-1.8,0.8-2.8,1.1c-0.6,0.2-1.3,0.5-1.9,0.4
					C222.8,161.5,221.7,160.8,221.4,158.7z M234.9,166.5c0.2,1.1,0.2,2.2,0,3.2c-0.5,1.7-1.1,3.3-1.8,4.9c-0.3,0.6-0.9,1.1-1.5,1.4
					c-1.7,0.8-3.2,0.4-4.4-1.1c-1.2-1.4-2.2-2.8-3.4-4.2c-0.1-0.2-0.3-0.4-0.3-0.6c0.2-1,0.4-2.1,0.8-3c0.4-1,1.1-1.6,2.2-2.1
					c1.3-0.5,2.4-1.3,3.6-2.1c0.8-0.5,1.3-0.6,2.2-0.1c-0.4,1.5-0.2,1.8,1.7,2.1c0,0.1-0.1,0.2-0.1,0.3c0.2,0.1,0.4,0.3,0.5,0.5
					C234.8,166,234.9,166.3,234.9,166.5z M233.3,163.3c0.1-0.3,0.3-0.7,0.4-1c0-0.2-0.2-0.4-0.4-0.5c-0.1-0.1-0.3,0-0.3-0.1
					c-0.1-0.8-0.4-1.6-0.2-2.3c0.2-0.7,1.1-1.2,2-1.1c0.3,0,0.7-0.3,0.7-0.4c0-0.6,0.1-1,0.8-1c0.7,0.1,0.7,0.7,0.7,1.2
					c0,0.1,0,0.1,0,0.3c-1.6-0.1-2.9,0.5-3.1,1.5c-0.2,0.8,0.6,1.8,1.6,2.1C235,163.4,234.3,163.9,233.3,163.3z M247.9,169.6
					c-0.7,0.7-1.2,1.6-1.9,2.4c-0.2,0.2-0.4,0.5-0.6,0.6c-1.3,0.3-2.7,0.8-4,0.9c-2.2,0.2-4.3-1.2-4.3-4.2c0-1.7-0.1-3.3-0.1-5
					c0-0.2,0.1-0.6,0.3-0.7c1.2-0.2,1.5-1.2,2-2.3c0.3,0.2,0.4,0.3,0.5,0.4c1,1.6,2.6,2.1,4.3,2.3c1.1,0.1,2,0.4,2.8,1.1
					c0.5,0.4,1.2,0.7,1.5,1.3C249.2,167.7,249,168.6,247.9,169.6z M261.5,135.7c0.4-1.1,2.2-1.4,3.6-0.9c2.8,0.9,4.4,3.1,5.4,5.7
					c0.1,0.3,0.1,0.6,0.1,0.9c-0.1,1-0.2,2-0.5,3.1l-0.8-1.3c-0.2,0.3-0.4,0.5-0.8,0.6c0,0.2,0,0.5,0,0.7l-0.4,0
					c-0.1-0.2-0.2-0.4-0.3-0.5c-0.5,0-1.1-0.2-1.6-0.5c-1.1-0.2-2-0.2-2.9-0.5c-0.5-0.2-1.2-0.5-1.1-1.4c0-0.5-0.4-1-0.7-1.5
					C260.6,138.5,261,137.1,261.5,135.7z M267,146.2c-1.4,0-2.5-0.6-3.3-1.8C265.8,144.2,266.7,144.7,267,146.2z M265.5,150.6
					c-0.1-0.1-0.1-0.1-0.2-0.2c-0.5,0.3-0.9,0.5-1.4,0.8c-1.1,0.6-2,0.4-2.7-0.8c-0.5-0.9-1.1-1.8-2.3-2c-0.3,0-0.6-0.2-0.8-0.4
					c-0.9-0.4-1.3-1.4-1.1-2.4c0.4-1.4,1.1-1.9,2.3-1.9c1.3,0,2.4,0.3,3.3,1.4c1,1.2,2.2,1.9,3.7,2.3c0.2,0,0.4,0.7,0.3,0.7
					c-0.2,0.2-0.4,0.3-0.5,0.5c0,0,0,0.1,0,0.1c0,0.3-0.1,0.6-0.2,0.9c0,0.1,0,0.2,0,0.2C265.9,150.2,265.6,150.4,265.5,150.6z
					 M258.3,168.8c-1.4-0.4-1.9-1.2-1.3-2.9c0.5-1.2,0.4-2.4,0.4-3.6c-0.1-1.6,1.8-2.9,3.3-2.2c0.5,0.2,1,0.4,1.6,0.6
					c1.5,0.5,2.1,1.8,2.5,3.1c0.7,2.2,1.2,4.4,1.7,6.4c-0.7,0-1.3-0.1-1.9-0.1c-0.4,0-0.8-0.1-1.2-0.2
					C261.6,169.6,260,169.2,258.3,168.8z M268.9,172.3c0.2-0.2,0.4-0.3,0.9-0.6c0.3,0.4,0.6,0.8,0.9,1.2c-0.4,0-0.8,0-1.2,0
					c0.1,0.4,0.2,0.9,0.4,1.3c-0.8,0.1-1.5,0.6-2.5,0.7c-0.9,0.1-1.7,0.8-2.5,1.3l0.2-0.9c-0.3,0-0.5,0.1-0.8,0.1
					c-0.4,0-0.8,0-1.2,0c0.1-0.3,0.3-0.7,0.4-1c0.1-0.1,0.2-0.3,0.2-0.3c-0.4-1.3,0.9-1.5,1.3-2.2c0.1-0.1,0.6-0.1,1.1-0.1
					c-0.6,0.5-1.1,0.8-1.5,1.3c-0.2,0.2-0.3,0.9-0.1,1c0.3,0.3,0.9,0.6,1.3,0.6c0.8,0,1.6-0.4,1.8-1.2c0.1-0.7-0.3-1.4-1.3-1.3
					l0-0.3c0.6-0.3,1.1-0.6,1.7-0.8c0.1,0,0.4,0.3,0.6,0.5C268.8,171.8,268.8,172,268.9,172.3z M267.2,167.1l-2.2-6.5
					c1.4,0.3,2.9,0.7,4.2,1c-0.5,0.8-1.3,1.5-1.6,2.5C267.3,165,267.4,166,267.2,167.1z M273.2,178c-1.7-0.1-3.4-1.5-3-2.7
					C270.4,177.1,272.5,176.6,273.2,178z M255.3,172.6l-0.2,0.3c-0.6-0.5-1.2-0.9-1.8-1.4C254.3,171.4,255,171.7,255.3,172.6z
					 M263,181.8c-0.3,0.6-0.8,1.1-1.3,1.6c-0.3,0.2-0.8,0.3-1.2,0.3c-1-0.1-2.1,0-3-0.7c-1-0.7-1.4-2.1-0.9-3.2
					c0.4-0.9,0.4-1.8-0.3-2.7c-1.4-1.8-0.6-3.6,1.7-3.9c1.6-0.2,3.3-0.2,4.9-0.3c0.2,0,0.4,0.2,0.6,0.3c-0.4,0.5-0.8,1-1,1.6
					c-0.2,0.4-0.3,1-0.3,1.4c0.2,1.1,0.6,1.3,1.6,0.9c0.5-0.2,0.9-0.5,1.3-0.7c0,0.1,0.1,0.1,0.1,0.2
					C264.4,178.2,263.8,180,263,181.8z M274.6,182.4c-0.6,0.8-1.2,1.4-2.3,1.6c-0.7,0.1-1.2,0.8-1.9,1.1c-1.5,0.7-3.1,1.4-4.7,0.4
					c-0.8-0.5-1.2-1.5-0.8-2.5c0.4-1.1,0.8-2.2,1.2-3.3c0-0.1,0-0.1,0.1-0.2c0.8-1.1,1.7-2.2,2.4-3.1c0.8,0.7,1.6,1.4,2.4,2.1
					c0.2,0.2,0.5,0.3,0.8,0.4c0.8,0.4,1.7,0.8,2.5,1.3C275.2,180.8,275.3,181.6,274.6,182.4z M276.7,171.9c1.4-0.5,2.4,0.2,3.4,0.9
					c1.1,0.7,1.5,1.7,0.6,2.9c-0.2,0.3-0.2,0.7-0.3,1c-0.1,1.6-1.5,3.1-3.1,3.2c-0.7,0-1.3-0.2-1.7-0.9c-0.3-0.4-0.6-0.8-0.9-1.2
					c-0.6-0.6-1.2-1.1-1.9-1.6c-0.3-0.2-0.4-0.5-0.5-0.8l0,0c-0.1,0-0.3,0.1-0.4,0.1c-0.2,0.1-0.4,0.2-0.6,0.3
					c-0.1-0.3-0.3-0.8-0.2-0.9c0.8-0.8,0.2-1.3-0.3-1.9c0.9-0.1,1.9-0.2,2.8-0.4C274.6,172.3,275.7,172.2,276.7,171.9z M274.8,165
					c0.4,0.3,0.9,0.7,1.1,1.1c0.1,0.2,0,0.8-0.2,1c-1,1.1-2,2.1-3,3.1c-0.2,0.2-0.5,0.4-0.7,0.5c-0.9,0.2-1.5,0.1-2.1-0.6
					c-1.4-1.6-2-3.4-1.6-5.5c0.1-0.5,0.4-1.1,0.8-1.3c0.8-0.3,1.7-0.7,2.6-0.1C272.9,163.8,273.9,164.3,274.8,165z M276.9,149.7
					c1.2,0.3,2.3,0.4,3.3-0.5c1-0.9,2.2-0.8,3.4-0.7c1.1,0.1,1.4,1,0.8,1.9c-0.6,0.9-1.2,1.6-2.2,2.1c-0.7,0.4-1.1,1.4-1.5,2.2
					c-0.4,0.9-1,1-1.8,1c-1.7-0.1-2.9-0.8-3.8-2.3c0,0,0,0,0,0c-0.2-0.3-0.3-0.5-0.4-0.8c0,0,0-0.1,0-0.1c-0.1,0.1-0.3,0.2-0.4,0.3
					c-1.4-1.1-1.6-1.1-3.1,0c-0.3,0.2-0.6,0.3-1,0.4c-1,0.2-0.9-0.4-0.9-1.1c-0.8,0.5-1.2,1.5-0.7,2c0.6,0.8,1.8,0.6,3.2-0.5
					c0.6,0.9,1.2,1.8,1.8,2.8c0.8,1.3,0.1,3.1-1.3,3.6c-0.8,0.3-1.7,0.5-2.5,0.4c-0.2,0-0.5,0-0.7-0.1c-0.2,0-0.3-0.1-0.5-0.2
					c-0.2-0.1-0.5-0.1-0.8-0.1c-0.2,0-0.4-0.1-0.6-0.1c-0.8-0.1-1.4-0.5-1.7-1.3c-0.1-0.2-0.1-0.4,0-0.6c-0.2-0.3-0.5-0.6-0.6-0.9
					c0,0,0,0,0-0.1c-0.5,0.3-0.9,0.2-1.9-0.4c-0.7-0.4-0.6-1-0.3-1.7c0-0.1,0-0.2,0-0.3c0.9-0.3,1.8-0.7,2.7-0.9
					c1.6-0.2,2.1-1.7,3.2-2.4c0.6-0.4,0.9-0.9,1.7-1c0.7-0.1,1.8-0.8,1.6-2c0-0.4,0.9-0.9-0.1-1.3c-0.9-0.3-1.7-0.3-2.4,0.4
					c-0.9,0.8-0.9,0.9-0.3,2.8c-0.6,0-1.1,0.1-1.7,0c-0.7-0.1-0.8-0.9-0.5-1.4c0.5-0.9,1.1-1.7,1.5-2.7c0.3-0.8,0.7-1.1,1.4-0.5
					c0.8,0.7,1-0.1,1.4-0.1c0.5,0.1,0.9,0.4,1.3,0.3c1.4-0.4,1.6-0.3,2.3,1.1c0.7-0.2,0.9-0.5,0.7-1c-0.1-0.2-0.2-0.3-0.3-0.5
					c-0.3-0.3-0.8-0.6-1-1c-0.3-0.5-0.5-1.1-0.6-1.6c-0.1-0.7-0.1-1.5,0.1-2.2c0.9-2.6,1.2-2.7,3.8-1.9c1.8,0.5,3,1.5,3.5,3.4
					c0.2,0.8,0.8,1.6,1.3,2.3c0.2,0.3,0.3,0.6,0.3,0.6c-0.9,0.6-1.7,1.1-2.4,1.7c-1,0.8-2.2,0.8-3.3,0.8c-0.8,0-1.5-0.1-2.3-0.1
					C274.9,148.5,275.9,149.4,276.9,149.7z"/>
				<path class="st1" d="M174.9,114.1c0.3,2,0.3,4,0.4,6c0.2,3.2,0.4,6.3,0.6,9.5c0.2,3.1,0.3,6.3,0.5,9.4c0.1,2.4,0.4,4.8,0.5,7.2
					c0,1.4-0.1,2.8-0.2,4.4c-0.1-0.1-0.2-0.1-0.3-0.1c0.1,0.3,0.2,0.6,0.2,0.9c0.4-0.1,0.7-0.2,1.1-0.4c0.9-0.3,1.2-0.8,1.1-1.8
					c-0.1-0.6-0.2-1.2-0.2-1.8c-0.1-1.4,0-2.8-0.1-4.2c-0.1-1.5-0.3-3.1-0.4-4.6c-0.2-3.2-0.4-6.4-0.5-9.7c-0.1-2.3-0.2-4.7-0.4-7
					c-0.2-2.6,0.1-5.3-0.7-7.9c-0.4-1.3-0.5-2.7-0.6-4c-0.1-1.1-0.8-1.9-1.5-2.5c-1.6-1.7-3.7-2.8-6-3.3c-0.6-0.1-1.2,0-1.8-0.1
					c-0.1,0.1-0.1,0.2-0.2,0.4c0.4,0.4,0.7,0.9,1.2,1.1c1,0.5,2.1,0.6,3,1.2c1.3,0.8,3,1.1,3.4,3
					C174.1,111.1,174.7,112.6,174.9,114.1z"/>
				<path class="st1" d="M166.5,36.4c0.3,0.4,0.4,0.8-0.4,1.2c-0.5,0.2-0.9,0.4-1.4,0.6c-1-0.9-1.2-2.1-0.6-3.1
					c0.1-0.2,0.3-0.2,0.5-0.3c0,0.2,0.2,0.5,0.1,0.6c-0.7,0.8,0.3,0.9,0.5,1.1C165.4,36.6,165.9,36.5,166.5,36.4z"/>
				<path class="st1" d="M184.4,75.7c-0.5,0.9-1.1,1.8-1.7,2.8c-0.4,0.5-1.4,0.5-1.8,0.1c-1-1.1-0.8-2.7,0.6-3.5
					C182.6,74.5,183.5,74.6,184.4,75.7z"/>
				<path class="st1" d="M191.5,40.2c-0.8-0.8-1.7-1.4-2.6-2.1c0,0.3-0.1,0.7-0.3,1c0.2,0.2,0.3,0.5,0.4,0.7
					c0.2,0.1,0.4,0.2,0.6,0.3c-0.1,0-0.2-0.1-0.3-0.1c-0.2,0.5-0.3,1-0.5,1.6c-0.4,1.2-0.1,1.9,1.1,2.4c0.8,0.3,1.3,0,1.8-1.1
					C192.2,41.9,192.5,41.3,191.5,40.2z"/>
				<path class="st1" d="M191.6,45.2c-0.2,0.2-0.5,0.4-0.7,0.6c-0.1,0.1,0,0.4-0.2,0.6c-0.2,0.2-0.5,0.4-0.8,0.6
					c-0.1-0.2-0.3-0.5-0.4-0.7c-0.1-0.2-0.3-0.5-0.6-1c-0.3,0.8-0.7,1.4-0.5,1.7c0.4,0.6,0.4,1.2,0.3,1.8c0.2-0.1,0.3-0.2,0.5-0.2
					c0,0,0-0.1,0-0.1c0.1,0,0.2,0,0.2,0c0.3-0.1,0.6-0.1,0.9-0.2c0.2,0,0.3,0,0.5,0c0.1-0.1,0.1-0.2,0.3-0.4
					c0.4-0.5,0.7-1.2,0.9-1.8C192.1,45.9,191.7,45.5,191.6,45.2z"/>
				<path class="st1" d="M274.8,151.2c0.2-0.3,0.4-0.5,0.7-0.6c-0.2-0.1-0.4-0.2-0.6-0.3l-0.8-2.4c-0.8,0.3-0.7,0.9-0.6,1.4
					c0.3,0.9-0.2,1.1-0.9,1.1c-0.2,0-0.4-0.1-0.8-0.1c0,0.5,0.1,0.9,0.1,1.5l2.6-0.9C274.6,151,274.7,151.1,274.8,151.2z"/>
			</g>
		</g>
		<path class="st1" d="M182.3,186.3c0,0,0.4,5.7,2,10.6c1.5,4.9,1.7,2.7,1.7,2.7l-3-14.9L182.3,186.3z"/>
		<path class="st1" d="M178.8,149.5l-0.4,7l-0.9-1.5c0,0-1.4-5.3-0.7-6.7S178.8,149.5,178.8,149.5z"/>
		<path class="st1" d="M203.3,41c0,0,2.6,2.8,2.2,4.4c-0.5,1.6,0.4-0.6,0.4-0.6s-1.2-4.4-2.6-4.8S203.3,41,203.3,41z"/>
	</g>
	<polygon class="st1" points="194.1,242.1 187.8,212.7 189.4,212.4 195.4,240.8 	"/>
	<polyline class="st1" points="191.3,211.8 196.1,238.6 198.1,236.1 193.1,211.2 	"/>
</g>
</svg>
