<?xml version="1.0" encoding="utf-8"?>
<!-- Generator: Adobe Illustrator 23.0.0, SVG Export Plug-In . SVG Version: 6.00 Build 0)  -->
<svg version="1.1" id="Layer_1" xmlns="http://www.w3.org/2000/svg" xmlns:xlink="http://www.w3.org/1999/xlink" x="0px" y="0px"
	 viewBox="0 0 122.4 56.16" style="enable-background:new 0 0 122.4 56.16;" xml:space="preserve">
<style type="text/css">
	.st0{fill:#FFFFFF;}
</style>
<g>
	<path class="st0" d="M20.01,19.55l-1.78-0.86c-2.74-1.29-3.96-2.11-3.96-4.26c0-1.98,1.52-3.4,3.8-3.4c2.08,0,3.53,0.79,4.52,2.48
		l1.65-1.06c-1.39-2.24-3.3-3.3-6.21-3.3c-3.37,0-5.87,2.15-5.87,5.35c0,3.14,1.98,4.62,5.21,6.14l1.82,0.86
		c2.71,1.25,4.22,2.34,4.22,4.82c0,2.34-1.82,3.86-4.88,3.86c-2.64,0-4.69-1.29-5.87-3.53l-1.81,0.96c1.45,2.74,4.06,4.52,7.72,4.52
		c4.19,0,7-2.18,7-5.87C25.55,22.88,23.61,21.23,20.01,19.55z"/>
	<path class="st0" d="M39.68,9.15c-6.37,0-11.52,4.85-11.52,11.49c0,6.27,4.62,10.96,10.5,11.45v2.86h-1.91
		c-1.71,0-3.09,1.39-3.09,3.09v5.87c0,1.71,1.39,3.09,3.09,3.09h5.87c1.71,0,3.09-1.39,3.09-3.09v-5.87c0-1.71-1.39-3.09-3.09-3.09
		h-1.91v-2.86c5.87-0.5,10.5-5.18,10.5-11.45C51.2,14,46.05,9.15,39.68,9.15z M43.71,38.05v5.87c0,0.6-0.49,1.09-1.09,1.09h-5.87
		c-0.6,0-1.09-0.49-1.09-1.09v-5.87c0-0.6,0.49-1.09,1.09-1.09h5.87C43.22,36.95,43.71,37.44,43.71,38.05z M40.71,30.14v-4.09h-2.05
		v4.09c-4.82-0.46-8.25-4.36-8.25-9.51c0-5.45,3.93-9.5,9.27-9.5s9.27,4.06,9.27,9.5C48.96,25.78,45.53,29.68,40.71,30.14z"/>
	<path class="st0" d="M69.75,16.11c0-3.8-2.64-6.7-7.49-6.7h-6.7v22.44h2.15v-9.18h4.49h0.53l5.68,9.18h2.41l-5.91-9.51
		C68.03,21.53,69.75,19.15,69.75,16.11z M62.13,20.8H57.7v-9.47h4.42c3.63,0,5.38,1.88,5.38,4.79C67.51,18.99,65.79,20.8,62.13,20.8
		z"/>
	<path class="st0" d="M79.52,18.84c-3.75,0-6.75,2.85-6.75,6.71s3,6.71,6.75,6.71s6.75-2.85,6.75-6.71S83.28,18.84,79.52,18.84z
		 M79.52,30.4c-2.71,0-4.62-2.08-4.62-4.85s1.9-4.85,4.62-4.85c2.71,0,4.62,2.08,4.62,4.85S82.24,30.4,79.52,30.4z"/>
	<path class="st0" d="M95.33,18.84c-3.75,0-6.75,2.85-6.75,6.71s3,6.71,6.75,6.71c3.75,0,6.75-2.85,6.75-6.71
		S99.09,18.84,95.33,18.84z M95.33,30.4c-2.71,0-4.62-2.08-4.62-4.85s1.9-4.85,4.62-4.85c2.71,0,4.62,2.08,4.62,4.85
		S98.05,30.4,95.33,30.4z"/>
	<polygon class="st0" points="103.44,19.01 103.44,20.84 107.33,20.84 107.33,32.1 109.38,32.1 109.38,20.84 113.27,20.84 
		113.27,19.01 	"/>
</g>
</svg>
