<?xml version="1.0" encoding="utf-8"?>
<!-- Generator: Adobe Illustrator 21.1.0, SVG Export Plug-In . SVG Version: 6.00 Build 0)  -->
<svg version="1.1" id="Layer_1" xmlns="http://www.w3.org/2000/svg" xmlns:xlink="http://www.w3.org/1999/xlink" x="0px" y="0px"
	 viewBox="0 0 360 360" style="enable-background:new 0 0 360 360;" xml:space="preserve">
<style type="text/css">
	.st0{fill:#46464A;}
	.st1{fill:#FFFFFF;}
</style>
<g>
	<g id="TIKmc8.tif">
		<g>
			<path class="st0" d="M180.8,325.3c-0.1-1.4-0.3-2.7-0.5-4c-1,0.8-1.9,1.8-2.8,2.7c0,0.7,0,1.4,0.1,2.2c0.1-0.1,0.3-0.2,0.4-0.3
				c0.4,6,0.8,11.8,1.2,17.3c-3.1,1.1-5.9,2-8.4,2.9c0-7.2,0-14.9,0.1-22.7c0-0.4,0.3-0.9,0.7-1.4c0-0.6,0-1.1,0-1.7
				c-0.7-0.4-1.5-0.8-2.2-1.2c0.2,2.1,0.3,4.2,0.3,6.3c0.1,1,0.1,2.1,0,3.3c-0.8,7.2-1,14.5-1.4,21.7h0.7c4.1-1.7,8.3-3.4,12.5-5.2
				c0-5.8,0-11.9,0-18C181,326.7,180.9,326.1,180.8,325.3z"/>
			<path class="st0" d="M309.3,213.6c-4.5-0.8-9.4-1.4-13.8-0.8c-17.2,2.5-34.3,5.4-51.4,8.6c-7,1.3-13.7,3.5-20.6,5.3v-3.4
				c2.7-0.7,5.4-1,7.7-1.9c7.4-3,14.1-7.1,15.6-15.7c1.6-9.6-2.2-20-15.5-19.5c-3.2,0.1-6.4,1.4-9.4,2.1c1-3.8,2.2-7.8,3-11.9
				c1.6-9.5-2.5-14.9-12.1-16.3c-7.7-1.1-14.8,1.1-21.9,3.6c-7.2,2.4-11.2,7.5-12.1,14.6c-0.7,5.6-0.1,11.3-0.1,17
				c-0.3,0.1-0.6,0.1-0.9,0.2c-0.3-1-0.8-2-0.8-2.9c-0.2-7.2-0.4-14.4-0.5-21.6c-0.5-0.3-0.9-0.9-0.9-1.7c0.2-4.3,0.8-7.9,3.9-11.2
				c1.2-1.3,2.9-2.3,4-3.7c1.6-2,1.7-4.9,2.2-7.3c0.9-4.8,2.8-7.6,6.4-10.8c2.7-2.5,5.2-5.1,7.5-8c2-7.9,0.9-15-2.9-21.6
				c-0.3-0.4-0.2-1.3,0-1.9c-0.2-0.1-0.3-0.2-0.4-0.4c-0.5-0.5-0.9-1.1-1.4-1.6c-0.1,0.1-0.2,0.3-0.4,0.4
				c-6.2-6.5-12.8-3.7-19.4-0.2c-1-6.2,0.8-13.3,4.3-17.3c7.7,4.9,15.7,7.8,25.1,6.6c-0.2,0.2-0.4,0.5-0.6,0.7
				c2.2-0.7,4.4-1.5,6.4-2.8c1.7-1.1,3.3-2.5,4.8-3.9c-0.4,0.2-0.7,0.3-1.1,0.5c1.9-3.7,3.9-7.4,5.9-11.3c2.3-0.2,5.2-0.2,7.9-0.8
				c8.2-1.9,15.2-5.4,17.9-14.3c2.9-9.9-1.6-18-11.7-20c-3.4-0.7-7.1-0.1-10.3-0.1c1.5-3.5,3.5-7.7,5-12c2.4-7.4-0.1-12.5-7.2-15.8
				c-1.2-0.6-2.5-1-3.8-1.4c-7.3-2.1-14.6-1-21.9,0.5c-7,1.4-11.4,5.7-13.4,12.2c-1.6,5.5-2.2,11.3-3.2,16.5c-3-0.3-5.9-0.5-9.4-0.9
				c-0.7,0.7-1.5,1.4-2.4,2c-0.1,0.1-0.2,0.1-0.3,0.2c-0.1,0.3-0.3,0.5-0.4,0.8c-0.2-0.1-0.4-0.1-0.7-0.2c-0.7,0.4-1.4,0.7-2.1,1.1
				c-0.2,0.6-0.5,1.1-0.9,1.4c-4.4,3.7-7.9,8.1-10,13.4c-0.1,4.1,0.1,8.2,0.7,12.2c0.1,0.7,0.1,1.4,0.1,2.2c1,1,2.1,1.9,3.1,2.9
				l-0.1-1c0.3-0.2,0.5-0.4,0.8-0.6c3.4,4,6.8,8.1,10.1,12c-0.1-1.6-0.2-3.8-0.3-6.1c2.1-0.6,3.3-0.3,3.1,2.2c-0.1,2.3,0,4.6,0,7
				c0.3,0.1,0.7,0.3,1,0.4c1.2-1,2.4-1.8,3.4-2.9c1-1,1.7-2.3,2.8-3.9c0.5,1.4,0.7,1.7,0.6,1.8c-4.7,5.3-5.7,11.6-5.8,18.4
				c0,1.7-1.5,3.3-2.3,4.9c-0.4-0.1-0.7-0.3-1.1-0.4c-0.7-5.1-1.2-10.3-2.4-15.3c-0.7-2.9-2.6-5.5-4-8.3c0.9,2.8,1.7,5.5,2.6,8.3
				c-0.3,0.2-0.6,0.4-1,0.6c-4.4-4.3-9.7-6.1-15.9-5.7c0,0,0,0,0,0c0,0-0.1,0-0.1,0c-0.2,0-0.4,0-0.5,0c-0.8,0.3-1.6,0.5-2.3,0.7
				c-0.1,0.1-0.3,0.2-0.4,0.2c-4.5,2-9.1,4-13.7,5.8c-2.8,1.1-4.7,2.8-5.2,5.8c-1,5.5-0.6,10.9,2.5,15.8c1.8,2.7,3.8,5.3,5.8,8
				c-7.5-0.9-14.2,0.6-20.5,4.2c-4.2,2.5-6.5,6.3-7.3,11c-1.2,8,3.2,13.8,8.1,19c6.5,7,16.6,8.1,24.5,2.8c3.7-2.4,7-5.4,10.3-8.1
				c1.3,10.7,3.7,13.4,15.7,16.7v25c-4.9-0.9-8.3-3.8-10-8.7c-0.5-1.6-1.4-3.1-2.3-4.6c-4.9-9-12.9-13.1-22.8-13.9
				c-1.7-0.1-4.2,1-5.1,2.4c-2.4,3.7-1.9,7.9-0.8,12c0.3,1.1,0,2.4,0,3.6c-0.3,0.1-0.6,0.2-0.9,0.2c-8.7-14.2-21.7-23.8-35.2-34.4
				c-0.5,3-1.3,5-1.2,7.1c0.2,3.4,0.6,6.8,1.4,10.1c4.1,17.2,10.5,33.3,21,47.7c1.3,1.8,1.7,3.3,0.6,5.5c-1.6,3.5,0.1,5.5,4.1,5.6
				c0.9,0,2.2,0.2,2.6,0.8c4.5,6.4,8.8,12.8,13.4,19.6c-5.9-1.8-11.4-3.5-16.9-5.1c-13.7-4-27.4-7.9-41.8-7
				c-6.9,0.5-13.8,2.3-20.6,4.2c-4.4,1.3-4.6,4-0.9,6.8c2.3,1.7,4.8,3,7.4,4.2c25.7,11.8,52.5,20.3,79.7,27.7
				c5.6,1.5,11.6,2,17.5,2.5c5.4,0.4,9,3.9,13.2,6.4c0.2,0.1,0.3,0.6,0.3,0.9c0,3.4,0,6.9,0,10.8c-4.3-2.8-8.6-5-12.1-8.1
				c-4.1-3.8-8.5-6.8-13.7-8.6c-10.5-3.7-21.4-5.1-32.5-4.9c-2.5,0-4.9,0-7.2-0.7c-1.7,0.1-3.5,0-5.2-0.1l0,0.1
				c-2.9,0-5.9,0.1-8.8-0.1c-0.4,0-0.7-0.2-1.1-0.4c0,0-0.1,0-0.1,0c-0.6,0.1-1.2,0.2-1.8,0.3c-0.2,0-0.4,0.1-0.5,0.1
				c0.1,0.1,0.1,0.2,0.2,0.3c-3.6,0.3-6.4,0.6-9.2,0.6c-0.3,0-0.6-0.1-0.8-0.3c-0.4,0-0.8,0.1-1.2,0.1c-3.8,0.5-7.6,1.2-11.4,2.1
				c-3.6,1.2-7.1,2.5-10.7,3.7c-1.4,0.6-2.8,1.3-4.2,2.1c0.1,0,0.1,0.1,0.2,0.1c-2,1.6-3.7,2.8-5.2,4.2c-3.7,3.5-3.3,5.7,1.3,7.9
				c10.7,5.1,22.1,7.4,33.8,8.4c6.1,0.5,12.2,0.9,18.3,1.4c1,0.1,2,0.3,2.9,0.7c0.9-0.1,1.9,0,2.8,0.1c1-0.2,2.1-0.3,3.2-0.2
				c-0.1,0-0.1,0-0.2-0.1c7.4-0.5,14.9-0.4,22.2-1.4c1.3-0.4,2.6-0.7,3.9-0.9c3.8-0.6,7.5-0.9,11.2-1.8c2.7-0.7,5.6-1.1,8.3-1.4
				c0.5-0.2,1-0.5,1.5-0.7c0,0,0,0,0,0c3.7-2.8,3.7-2.8,8.2-0.2c1.6,0.9,3.1,1.9,4.6,2.9c4.4,3.1,5,4.4,3.8,9.5
				c-0.1,0.4-0.1,0.8-0.2,1.3c0.1,0.4,0.1,0.9,0.2,1.3c0.5,0.2,1,0.4,1.4,0.6c0.1-2.7,0.2-5.1,0.3-8c1.5,0.9,2.7,1.5,3.8,2.2
				c0.1-0.2,0.2-0.3,0.4-0.5c-2.2-1.9-4.2-4-6.5-5.6c-3.6-2.4-7.1-4.9-10.7-7.2c-0.1,0-0.1,0-0.2,0c-1,0-2,0.1-3,0.3
				c-0.4,0.3-1,0.5-1.5,0.4c-5,1.5-9.9,3.3-14.9,4.4c-4.5,1-9.2,1.7-13.8,1.8c-20.7,0.6-41.4,1.1-61.8-3c-5.9-1.2-11.5-3.3-17-7
				c-0.6-0.1-1.1-0.5-1.5-1c-0.1,0-0.1-0.1-0.2-0.1h0.1c-0.5-0.9-0.5-2.1,0-3l-0.4-0.4c0.3-0.1,0.7-0.2,1.1-0.3
				c0.3-0.2,0.6-0.3,1-0.4c0.1-0.1,0.2-0.1,0.4-0.2c8.3-5.9,17.5-9.1,27.6-9.5c13.4-0.5,26.8-0.8,40.2-0.6
				c10.6,0.1,21.1,1.5,30.9,6.1c3.2,1.5,6.1,3.9,9,6c6.4,4.5,12.8,9,19.3,13.4c0.3,0.2,0.8,0.1,2.4,0.3c-5.7-4.9-4.7-10.6-4.2-16.3
				c0.1-1.5-1.8-3.7-3.4-4.8c-3.9-2.6-8.1-3.9-13-4.3c-7.6-0.7-15.3-2.2-22.7-4.3c-22-6.4-44.1-12.6-65-22.2
				c-4.2-1.9-8.4-3.9-12.6-6.1c-1.7-0.9-3.2-2.3-4.7-3.5c0.1-0.4,0.3-0.7,0.4-1.1c0-0.2,0.1-0.4,0.2-0.5c0.1-0.2,0.3-0.3,0.5-0.4
				c0,0,0,0,0,0c0.4-0.3,0.9-0.5,1.4-0.7c0.1,0,0.1-0.1,0.2-0.1c0.3-0.2,0.6-0.3,1-0.5c0,0,0,0,0,0c0,0,0,0,0,0c0,0,0.1,0,0.1-0.1
				c0-0.1,0-0.1,0-0.2c4.6-0.9,9.1-2,13.7-2.5c16.4-1.9,32,2.6,47.5,7.1c5.3,1.5,10.6,3.3,15.9,5.1c1.5,0.5,2.9,1.7,4.3,2.6
				c5.7,3.9,11.2,8.1,17,11.8c3.9,2.6,5.5,6.3,7.2,11.2c0.6,1,1,2.1,1.2,3.2c0.1,0.1,0.2,0.2,0.3,0.3c3.2,1.6,6.4,3.3,9.5,4.9
				c1.1,0.5,2.2,1,3.3,1.6c0.1-0.5,0.3-0.8,0.2-0.8c-3.6-2.7-3.4-6.5-3.4-10.4c0.1-12.5,0-25,0-37.8c1.4,0.2,3.2,0.4,5.4,0.6
				c0,3.7,0,7.3,0,10.9c0,4.2,0.1,8.4,0.1,12.6c0,4.4,1,9-3,12.7c0.4,0.3,0.8,0.5,1.2,0.8c2.1-1.9,4.6-3.5,6.2-5.7
				c4.1-5.5,8.2-11,11.5-16.9c3-5.2,6.5-7.8,12.9-5.5c-1.4,1.8-3.3,3.5-4.2,5.6c-2.3,5.4-6.4,8.8-11.5,11.3
				c-0.8,0.4-1.4,1.1-1.7,2.3c2.4-1.1,4.9-2.1,7.3-3.4c0.9-0.5,1.8-0.8,2.7-0.9c0.1-0.4,0.4-0.7,0.9-0.9c0.4-0.1,0.8-0.2,1.1-0.2
				c0.2-0.1,0.3-0.1,0.5-0.2c-0.1-0.7,0.2-1.6,0.8-2.4c0.2-0.2,0.4-0.5,0.5-0.7c-0.4,0.1-0.8,0.3-1.3,0.4
				c3.5-4.8,5.6-10.4,11.7-13.4c4.2-2.1,7-6.8,10.5-10.3c0.8-0.8,1.5-2.1,2.5-2.4c7.9-2.3,15.9-4.4,23.9-6.5c0.4-0.1,0.8,0,1.2,0.1
				c0.5-0.1,1.1-0.2,1.7-0.2c0.2,0,0.3,0,0.4,0.1c1.4-0.6,2.8-1.3,4.3-1.5c12.5-2.2,25-4.5,37.6-6.2c5.4-0.7,11-0.1,17.2-0.1
				c-0.2,0.4-0.4,0.7-0.6,1c0.3,0.4,0.5,1,0.5,1.5c0.2,0,0.5,0,0.7-0.1c0.2,0.3,0.3,0.5,0.5,0.8c-2.6,2.3-4.8,5.1-7.7,6.8
				c-9.4,5.5-18.8,11-28.5,15.9c-9.7,4.9-19.8,9-29.8,13.4c-16.9,7.4-34.5,11.4-53,10.9c-8.4-0.2-16.7,8.2-18.6,14.5
				c0.9-0.2,1.5-0.4,2.2-0.6c2.5,5.7-0.7,10.5-3.2,15.4c0.4,0.2,0.8,0.4,1.2,0.7c4.8-5.7,9.4-11.5,14.4-17.1
				c2.2-2.5,4.6-5.1,7.5-6.6c8-4.4,16.8-6.5,25.7-7.2c15-1.2,30.1-1.6,45.2-2.4l0.2,0.9c4.2-0.8,8.7,0,13,0.6c2.4,0,4.7,0,7-0.2
				c0,0.3,0,0.6,0,0.9l-0.2,0.1c2.3,0.4,4.6,0.8,6.9,1.1c0.2,0,0.3,0,0.5,0c0.5-0.5,1.3-0.8,2.2-0.7c1.2,0.2,2.4,0.5,3.6,0.8
				c0.9,0,1.7,0,2.6,0.1c-5-1.3-9.9-2.4-14.9-3.4c-5.2-1-10.6-0.8-15.7-1.1c-3.2,1-7.2,1.2-10.4,0.1c-0.6-0.1-1.2-0.2-1.8-0.3
				c-4.3,0.5-8.6,0.7-12.9,0.5c0,0-0.1,0-0.1,0c-3.8,0.2-7.7,0.4-11.5,0.4c-0.9,0-0.9-1.4,0-1.4c0.1,0,0.1,0,0.2,0
				c0.4-0.4,1-0.5,1.6-0.5c11.5-5,23-10.1,34.5-15.1c1.4-0.8,2.8-1.5,4.2-2.1c2.8-1.3,5.8-2.8,8.9-3.7c0,0,0,0,0,0
				c2-0.8,3.7-1.5,5.5-2.3c2.2-1.6,4.4-3.3,6.8-4.5c0.3-0.4,0.7-0.7,1.1-1c4.3-3.3,8.9-6.3,13-9.8
				C315,217.1,314.4,214.5,309.3,213.6z M209.9,85.3c-6.7,5.5-19.8,5.1-26.6-0.2c-2.7-2.2-4.2-6.3-2.1-9.2
				C186,69,191.4,62.6,196.6,56c0.5-0.6,1.5-0.9,2.7-1.6c-0.6,2.9-1.2,5.3-1.5,7.7c-0.2,1.7,0.2,3.4,0.2,5.1c0,1.7,0.2,3.5-0.3,5
				c-0.7,2.2-0.8,4,1.5,5.2c1.7,0.9,3.4,1.5,4.8-0.6c1.3-2,1.6-3.9-0.3-5.9c-4.6-4.7-5-9.4-1.4-15.9c7.4,2.5,11.5,7.8,13.1,15
				C216.9,76.2,214.6,81.5,209.9,85.3z M199.6,73.9c0-0.9,1.1-1.8,1.9-2.4c0.3-0.2,1.9,0.5,1.9,0.7c-0.2,1.5-0.7,3-1,4.5l-1.3,0.2
				C200.5,75.9,199.6,74.9,199.6,73.9z M226,42.1c3.2-1.1,7.2-0.4,10.7,0.4c5.2,1.2,8.2,6.7,7.4,12.2c-1.7,12.5-8,17.9-23.9,18
				c-1.9-3.7-3.4-6.8-5.1-10.2c4,0.1,8-3.3,12.9-1c1.2,0.6,3.6-1.1,5.3-2c0.2-0.1,0.2-1.6,0-1.7c-1.7-0.7-3.5-1.5-5.3-1.7
				c-0.9-0.1-2.1,0.7-3,1.3c-4.8,3.1-10.3,3-14.9,0c-1.5-1-3.2-1.6-5.4-2.7c1.4-0.1,2.3-0.2,3.2-0.2c5.1-0.1,9.8-1.4,14.2-4
				c1.4-0.8,3.3-0.7,5-1.1c2.2-0.5,4.7-0.7,6.6-1.8c2.2-1.2,1.5-2.7-0.6-3.6c-3.1-1.3-5.4,0.1-7.8,1.9c-5.9,4.4-12.5,6.5-20.3,6.6
				c0.4-0.7,0.5-1.3,0.8-1.4C212.5,47.9,219.1,44.5,226,42.1z M225.4,58.3c2.7-0.4,4.7-0.7,6.6-1C230.5,60.6,228.5,60.9,225.4,58.3z
				 M225.4,46.6c3.1-0.9,5.4-1.5,8.3-2.3C231.6,48.4,229.7,49,225.4,46.6z M193.2,14.2c8.2-3.4,16.7-2.8,25.1-1
				c3.9,0.8,6.5,3.5,7.4,7.3c0.5,2.2,0.6,4.9,0,7c-1.3,4.4-3.1,8.8-5.1,12.9c-0.7,1.4-2.6,2.1-4.3,2.8c0-5.8,7.9-7.3,6.2-13.6
				c-4.7,1.3-6,3.4-7.1,8.1c-1.2,5.4-5.2,8.8-9.9,10.7c1.5-3.5,3-7.1,4.6-10.8c0.3-0.6,0.9-1,1.4-1.4c0.3-0.3,0.9-0.5,1-0.9
				c0.5-2,0.9-4,1.1-6c0-0.2-1.9-1-2.1-0.8c-1.2,1.4-2.4,2.8-3.1,4.5c-1.4,3.7-2.3,7.5-3.5,11.2c-0.1,0.5-0.7,0.8-0.6,0.7
				c0.5-5.9,1.1-12.1,1.8-19.7c3.1-1.7,7.6-4.2,12.2-6.6c-0.1-0.2-0.1-0.4-0.2-0.6c-4.2,1.6-8.5,3.1-12.4,4.5c0.7-2.2,1.5-5,2.4-7.7
				c-0.4-0.2-0.9-0.4-1.3-0.5c-1.2,2.6-2.4,5.2-3.5,7.6c-2.4-1.9-4.8-3.8-7.2-5.7c-0.1,0.2-0.2,0.3-0.3,0.5c1.7,2,4.3,3.9,4.7,6.1
				c0.4,2.2-1.5,4.8-2.7,8.3c2-1.8,3.4-3,5.2-4.5c1.1,8.2-0.7,15.5-2.3,22.9c-6.2-1.3-3-8.2-5.8-10.3c0.2-3.5,0.8-6.4,0.5-9.3
				c-0.2-2.3-2.4-3.6-4.5-3c-1,0.3-2,2.5-2.2,3.9c-0.5,3.5,1,6.3,3.4,8.9c1.1,1.2,1.6,3.1,2.2,4.7c0.8,2.2,1.6,4.4,2.4,6.8
				c-4.1-0.3-7.2-2.9-10.3-5.4c-0.1-0.1-0.2-0.2-0.2-0.2c2-5.1-2.5-8.4-3.4-12.5C181,25,185.6,17.4,193.2,14.2z M209.5,33.8
				c0.5-1.5,1-3,1.5-4.5c0.7,0.2,1.4,0.4,2,0.6c-0.4,1.5-0.8,3-1.4,4.4C211.6,34.4,210.2,33.9,209.5,33.8z M192.4,36.3
				c-2-1.3-3.5-5.4-2.6-7.3c0.2-0.5,1-1.1,1.4-1.1c0.8,0.2,1.7,0.7,2.1,1.3C194.7,31.3,194.2,34.3,192.4,36.3z M182,37.4
				c0.9,0.9,1.9,1.8,2.5,2.9c0.3,0.6,0,1.5-0.1,3c-1.2-1-2.1-1.4-2.5-2.1c-0.5-1-0.7-2.2-1-3.3C180.9,37.8,181.9,37.3,182,37.4z
				 M155.9,67.8c-2.8-4.7-1.9-11.3,2.8-16.3c3-3.2,6.4-6.1,10-8.6c4.4-3.1,7.8-1.8,11.9,0.7c4.9,3,7.6,9.7,14.9,8.8
				c0.1,0.4,0.2,0.8,0.3,1.2c-2.2,1.9-4.2,4-6.5,5.7c-0.7,0.6-2.1,0.3-3.1,0.5c-3.2,0.5-6.4,0.9-9.5,1.7c-0.8,0.2-1.3,1.6-2,2.4
				c1,0.7,2.2,2.2,3.1,2c2.6-0.3,5.1-1.3,7.6-2.1c0.9-0.3,1.6-1.1,2.7-1.3c-4.1,5.3-6.6,12.1-14,14
				C168.8,77.9,159.1,73.2,155.9,67.8z M184.6,62.5c-2.2,0.9-4.3,1.7-6.7,2.6c0-3.3,1.7-4.1,6.4-3.5
				C184.4,61.9,184.5,62.2,184.6,62.5z M173.3,85.3c-0.3-0.1-0.6-0.2-0.8-0.3c-0.2-1.8-0.3-3.6-0.5-5.6c2.1-0.2,3.8-0.3,6.5-0.5
				C176.4,81.6,174.9,83.4,173.3,85.3z M190,166.2c7.4-3.8,15.4-4.6,23.6-3.9c4.8,0.4,9,4.7,8.7,9.8c-0.3,5.9-1.8,11.8-3.2,17.6
				c-0.3,1.1-2.4,1.9-3.9,3c-0.4-6.2,7-8.9,4.6-14.9c-3.2,1-6.2,4.1-6,6.9c0.6,6.1-2.5,10.1-6.9,13.6c-0.4,0.4-0.9,0.7-1.7,0.9
				c3.5-4.4,2.1-10.6,5.9-14.9c0.4-0.5,0.8-1.4,0.7-1.9c-0.6-1.5-1.4-3-2.2-4.4c-0.4,0.4-0.8,0.9-1.2,1.3c0.6,0.1,1.3,0.1,1.9,0.2
				c-0.3,1.6-0.5,3.2-0.8,4.7c0,0.1-1.3-0.1-1.9-0.2c0.2-1.5,0.4-3,0.6-4.5c-0.7,0.7-1.4,1.5-1.6,2.3c-0.6,3.3-0.4,6.8-0.8,10.1
				c-0.2,1.5-1,2.9-1.8,4.3c-0.3-6.4,1.2-12.9-2.6-19.3c4.2-3.3,8.4-6.5,12.6-9.7c-0.1-0.2-0.2-0.4-0.3-0.6c-4,2.2-7.9,4.5-11.7,6.6
				c0.3-2.3,0.6-5.1,1-8c-0.4-0.1-0.8-0.2-1.3-0.2c-0.8,2.7-1.6,5.5-2.3,8c-2.7-1.5-5.4-3-8.1-4.5c-0.4,0.3-0.7,0.7-1.1,1
				c7.3,2.1,9.3,6.2,4.1,12.9c0.6-0.1,1.2-0.1,1.9-0.2c1.1-1.4,2.1-2.8,3.5-4.7c2.8,8,1.9,15.6,1.4,23.1c-6.2-0.6-4.2-7.6-7.8-9.5
				c0-2.9,0.4-5.7-0.1-8.4c-0.5-2.6-2.9-3.8-5.3-2.8c-1,0.4-1.6,3-1.5,4.5c0.2,3.5,2.1,6.1,5,8.1c1,0.6,1.9,1.7,2.4,2.7
				c1.2,2.5,2.2,5,3.4,7.8c-3.9,0.3-7.3-1.7-10.7-3.9c-0.5-0.3-0.5-1.7-0.5-2.5c0.2-2.9-1-4.7-3.2-6.6c-1.7-1.5-2.7-4.4-2.8-6.8
				C179.4,175.5,183.1,169.7,190,166.2z M190.9,189.5c-3.2-1.4-3.4-4.2-3.6-7c0-0.4,0.8-1.2,1.2-1.2c0.8,0.1,1.9,0.3,2.3,0.9
				C192.1,184.4,192.9,186.8,190.9,189.5z M181.3,192.1c1,0.9,1.9,2,2.7,3.1c0.2,0.3-0.1,1-0.2,2c-1-0.6-1.6-0.7-1.9-1.1
				c-0.8-1-1.4-2.2-2.1-3.3C180.3,192.6,181.1,192,181.3,192.1z M176.6,103.9c2.7-1.7,6.3-2.3,9.6-2.8c3.3-0.4,5.9,1.1,7.1,4.5
				c2.1,6,6,11.5,5,18.5c-0.5,3.4-1.8,6.1-4.6,7.9c-3.6,2.3-7.4,4.3-10.6,6.2c-4.4-3.4-8.4-6.4-12.1-9.2c2.3-1.9,4.8-4.6,7.8-6.3
				c2.4-1.3,2.7-3.1,2.8-5.3c0-0.8-0.8-2.1-1.4-2.2c-0.9-0.2-2.5,0.2-2.9,0.8c-0.7,1.3-1.4,3.2-1,4.4c0.8,2.2-0.1,3.2-1.5,4.3
				c-3.8,3.1-7,3.4-13.8,0.9c1.4-0.8,2.4-1.6,3.6-2.1c4.5-2,7.6-5.6,10.5-9.4c1-1.2,1.9-2.8-0.4-3.9c0,0,0,0,0,0
				c-1.9-1.8-3.6-0.2-4.3,1.1c-0.8,1.6-0.7,3.7-1,5.6c0.4,0.3,0.9,0.5,1.3,0.8l-11.1,6.7c-0.3-0.2-0.6-0.4-0.9-0.7
				c1.9-3.4,3.3-7.3,5.9-10.2C168.3,109.8,172.3,106.5,176.6,103.9z M177.6,120.7c0.3-1.5,0.7-3,1.1-4.5c0-0.1,1.1,0.2,1.7,0.3
				c-0.3,1.5-0.6,3.1-1,4.6L177.6,120.7z M171.1,115.2c-0.6-3.1,0.3-4.2,3.9-4.8C175.1,114.1,174.4,114.9,171.1,115.2z M148.8,129.1
				c-6.5,2.5-11,1-14.6-5C139.7,123.8,144.8,125,148.8,129.1z M135.9,159c-5.4,2.5-14.5,1.2-18.7-3.4c-3-3.3-5.6-7.2-7.3-11.3
				c-3-7.5,3.1-17,11.9-19.5c2-0.6,4.1-0.7,6.7-1.2c-1,4.5,1.6,4.9,4.6,5.2c1.5,0.2,2.9,1,4.4,1.3c2.6,0.5,5.3,0.9,7.9,1.1
				c1.2,0.1,2.5-0.3,4.5-0.5c-1.5,2.6-2.5,4.8-3.9,6.7c-0.8,1-2.2,1.8-3.4,2.3c-3.6,1.4-6.9,2.9-7.9,7.1c4,2.1,8,0.6,9.9-3.2
				c1.5-3,3.5-5.7,5.5-8.3C150.8,147.4,146.7,154.1,135.9,159z M144.1,141.3c-1.5,4.3-3.9,5.7-8.2,3.7c2.9-1.8,5.2-3.3,7.6-4.8
				C143.7,140.6,143.9,141,144.1,141.3z M142.2,115.5c-0.2-1.4-1.4-2.6-2.3-3.8c0,0,0,0,0,0c0,0,0,0-0.1,0c0,0,0-0.1-0.1-0.1l0,0.1
				c-0.9-0.3-1.8-0.5-2.7-0.8c-0.1,0.3-0.2,0.6-0.3,1c1.5-0.1,2.3-0.1,3-0.2c0.6,1.6,1.2,3.2,1.8,4.8c-0.5,0.3-1.1,0.6-1.6,0.9
				c-1-1.5-2-2.9-3.4-4.9c-0.2,0.5-0.2,1-0.1,1.5c0.3,1.1,1,2.8,1.9,3c2.9,0.8,3.3,3.1,3.9,5.7c-0.6,0-1.2,0.1-1.7-0.1
				c-8.1-2.6-14.6-13-12.9-21.3c0.4-1.7,1.6-3.8,3-4.6c5-2.7,10.1-5.2,15.4-7.2c5.3-2,10.7-1.3,14.9,2.9c4.9,4.9,6,11.1,4.3,17.7
				c-0.3,1.1-1.6,2-3.2,2.8c0.2-1.8,0.4-3.6,0.7-5.4l-0.1,0c-0.2-1.8-0.3-3.6-0.6-5.4c0-0.1-2.6,0-2.6,0.2c-0.2,1.9-0.7,4.1-0.1,5.8
				c2.4,6.1,0.8,12.8-4.2,16.4v-15.7c1,0.1,1.8,0.2,3,0.3c-0.6-0.9-0.8-1.6-1.3-1.9c-2-1-2-2.5-2-4.5c0.1-2.4-0.6-4.8-0.9-7.2
				c-0.3,0-0.6,0-0.9,0.1c-0.1,2.5-0.2,4.9-0.4,7.8c-4.7-2-6.1-5.9-7.8-9.8c-1.5,4.4,1,7.1,3.9,9.3c-2.6,0.9-5.2,1.8-7.7,2.8l0.4,1
				c1.7-0.5,3.4-1,5.1-1.3c4.2-0.8,6.5,0.5,6.9,4.9c0.4,4.5-0.2,9.1-0.7,13.7c-3.4-3.7-3.8-6.2-2.6-10.6c0.4-1.4,0.3-3.4-0.4-4.6
				c-0.6-1-2.5-1.2-3.8-1.8c-0.3,1.1-1.2,2.3-0.9,3.2c1.7,5.2,3.7,10.4,5.6,15.5C146.5,125.4,143,121.1,142.2,115.5z M160.2,107.7
				c-0.1-1.6-0.2-3.2-0.3-4.8c0.5-0.1,1.1-0.2,1.6-0.2c0.4,1.6,0.8,3.3,1.1,4.9C161.9,107.6,161,107.6,160.2,107.7z M149.2,113.5
				l-1.3,0.2c-0.3-0.2-0.7-0.4-0.7-0.6c-0.3-1.7-0.5-3.3-0.7-5c0.5,0,1.4-0.1,1.5,0.1C148.4,110,148.8,111.8,149.2,113.5z
				 M165,165.7c-5.1,0.3-10.4-3.6-11.8-8.5c-2.1-7.1-2-16,0-24.3c2.5,2.7,5.2,5.4,7.7,8.3c0.8,0.9,0.8,2.5,1,3.8
				c0.3,1.9,0.9,3.5,3.3,3.6c2.4,0.1,4-1.3,3.9-3.3c-0.1-1.4-1.5-3.5-2.7-3.9c-6.1-2-8.8-7.1-12-11.4c1.7-4,4.2-3.4,6.9-2.7
				c8,2,14.5,6.5,20,12.3c5,5.3,4.3,11.5-1.6,15.8c-1.2,0.8-2.9,0.9-4.5,1.3C174.3,161.6,170.1,165.4,165,165.7z M162.4,142.5
				c0.4-0.2,0.9-0.5,1.3-0.7c2.2,0.3,3.8,1.3,3.6,3.8c-0.1,0.5-1.5,0.9-2.2,1.4C164.2,145.5,163.3,144,162.4,142.5z M168.1,184.3
				c0-3.7,0.3-7.6-0.3-11.2c-0.7-4.6,1.1-7.1,5.5-8.4c0.5,10,0.9,19.9,1.3,29.9c-1.9,0.5-3.7,1-6.5,1.8
				C168.2,192.1,168.2,188.2,168.1,184.3z M167.2,196.9c0,0.4,0,0.8,0.1,1.2c-1.2,0.1-2.5,0.8-3.5,0.4c-3.1-1.3-4.7,0-5.9,2.7
				c-4.8,11.3-13.3,19-23.9,24.7c-1.7,0.9-3.6,1.3-5.7,1.4c5.5-11.6,13.3-21.1,22.8-29.4c-0.2-0.6-0.5-1.2-0.9-2.3
				c2.6,0.3,4.8,0.6,7.1,0.8c0.8,0.1,2,0.2,2.5-0.2C162.7,193.5,164.9,195.7,167.2,196.9z M163.9,232.3c2.2,1,2.9,2.1,3,4.5
				c0.2,8.7,0.8,17.5,1.2,26.2c0,0.7,0,1.5,0,2.8c-2.5-2.1-3.7-4-4.6-6.9c-2.2-7.5-5-14.8-8.1-21.9c-2.6-5.9-6.2-11.3-8.8-16.1
				c4.3-6.6,8.2-12.7,12.2-18.8c1.2-1.8,2.5-3.6,4.7-2.1c-2.6,4.8-5.6,9.3-7.4,14.1C153.1,221.9,156.3,228.9,163.9,232.3z
				 M168.5,270.1c-0.3,0.2-0.7,0.5-1,0.7c-1.8-2.4-3.6-4.9-5.4-7.3c0.4-0.2,0.8-0.5,1.2-0.7L168.5,270.1z M134.3,167.7
				c9.3,3.6,16,9.5,19.7,19c1.1,2.7,3.8,4.8,6.2,7.7c-0.2,0.1-0.9,1-1.6,1c-3.7-0.3-7.7-0.1-10.9-1.5c-3.4-1.5-5.7-5.2-8.9-7.2
				c-4.6-2.8-6.3-7.2-8.2-11.6c-1-2.2-2.8-4.1-4.3-6.4C129,166.7,131.5,166.7,134.3,167.7z M145.6,196c-4.9-0.6-9.9-0.6-14.6-1.9
				c-2.3-0.6-4.9-2.9-5.1-6.3C132.8,186.8,136.6,188.2,145.6,196z M126.3,183.1c1.7,0.6,3.4,1.3,5,1.9
				C125.6,186.6,125.6,186.5,126.3,183.1z M126.5,170.8c1.2,2.1,3.1,3.9,3.3,5.9c0.5,4.4,2.7,7.3,7,10c-1.6-0.2-2.4,0-2.7-0.3
				c-2-2.2-4.2-3.7-7.2-4.6C124.9,181.3,124.6,173.6,126.5,170.8z M141.2,196.6c-4.9,2.9-13.3,2.4-16.4-1.5
				C130.7,195.6,135.7,196.1,141.2,196.6z M125.6,202.7c0.9-1.9,0.9-1.9,6.4,0H125.6z M126.7,203.9c-2,2.8-3.9,2.8-7.2-0.4
				C122.3,203.7,124.4,203.8,126.7,203.9z M123.6,186.9c0.6,0.4,0.6,1.8,0.9,2.8c-1,0.4-1.8,0.7-3,1.1c0.7,1.4,1.4,2.7,2,3.9
				c-4-0.1-10.9-8.2-12.5-15.1C115.4,182.1,119.6,184.4,123.6,186.9z M90.8,167.3c0-0.1-0.1-0.1-0.1-0.2c-0.9-2.2-1-4.6-1-7
				c-0.4-1.5-0.7-2.9-0.7-4.5c0-0.4,0.2-0.6,0.4-0.8c0.3-0.5,1-0.8,1.5-0.4c4.9,2.1,25.5,21.8,30.2,29.2c-3.1-1.8-5.6-3.4-8.1-4.7
				c-1-0.5-2.3-0.4-3.4-0.6c0,1.3-0.5,2.8,0,3.8c0.7,1.5,1.6,3,2.5,4.5c1.1,1.6,2.2,3.1,3.4,4.6c0,0,0,0,0.1-0.1
				c2.1,2.5,4.2,4.9,6.9,8.1c-1-0.1-1.8-0.4-2.4-0.7c-2.6,1.9-2.1,4.8-1.2,7.5c1.2,0.4,2.5,0.9,3.9,1.4c-3.6,2.7-7,5.3-10.6,8.1
				C101.5,200.8,93.6,185.1,90.8,167.3z M115.4,223.7c-1.1,0.2-2.5-0.5-3.7-0.8c0.3-1.4,0.2-3.1,1-4c7.5-8.8,16.9-14.6,28-17.7
				c1.6-0.4,3.2-0.7,4.8-1.1c0.1,0.4,0.3,0.8,0.4,1.1c-3,1.2-6,2.5-9.1,3.7c-2.5,1-5,1.7-7.3,3c-0.7,0.4-0.6,2.1-0.8,3.2
				c1,0,2.2,0.3,2.9-0.2c2.1-1.3,3.9-3.1,5.9-4.5c1.1-0.8,2.5-1.3,4-2.1C136,215.7,126.9,221.4,115.4,223.7z M143.5,255.9
				c-8.6-5.7-14.6-13.8-19.9-22.5c-1.7-2.7-3.4-5.3-5.5-8.5c3.4-1.2,6.7-2.3,9.9-3.4c0.3,1.1,0.4,1.2,0.4,1.3
				c-0.4,1.9-0.8,3.7-1.2,5.6c2.1-0.2,4.1-0.4,6.2-0.7c0.6-0.1,1.2-0.4,2.1-0.8c0,0,0,0,0,0c0.5-0.2,0.9-0.5,1.4-0.6
				c2-1.2,3.9-2.4,5.7-3.5c0,0,0,0,0,0c0-0.1,0.1-0.1,0.1-0.2c1-1.1,1.8-1.4,2.7,0.2c5.1,9.7,10.3,19.4,15.4,29.2
				c0.6,1.2,0.9,2.6,1.1,3.9c0.9,5-1.9,7.8-6.8,6C151.1,260.5,147.2,258.3,143.5,255.9z M168.4,279.6c-3.3-1.6-6.7-2.3-7.5-6.8
				c-0.5-2.6-2.1-4.9-3.3-7.6C162.5,264.9,169.4,273.8,168.4,279.6z M159.9,226.1c-3.5-4.3-3.5-11.1,0.5-16.9
				c2.4-3.5,5.3-6.8,8.4-9.8c3.8-3.7,7.2-2.8,11.8-1c5.4,2.1,9.1,8.5,16.3,6.5c-2.6,4.3-3.9,9-10.3,8.7c-2.5-0.1-5.1,2.1-7.5,3.4
				c-0.6,0.3-1.3,1.9-1.1,2.2c0.6,0.8,1.9,1.9,2.6,1.7c2.7-0.8,5.4-1.9,7.9-3.3c0.8-0.4,1.1-1.8,1.6-2.8l1.4,1.2
				c-3.8,5.6-5,13.1-12.4,16C173.8,234.1,163.7,230.9,159.9,226.1z M187.6,216.3c-1.7,1-3.4,2.1-5.1,3c-0.4,0.2-1.2-0.2-1.8-0.3
				c0.2-0.6,0.2-1.6,0.6-1.8c1.9-0.9,3.8-1.5,5.8-2.2C187.2,215.4,187.4,215.9,187.6,216.3z M178.8,265.3c-0.3-0.2-0.5-0.4-0.8-0.5
				c0-8.2,0.1-16.3,0-24.5c-0.1-5.3-0.2-5.3,5.4-6.5c0.5,6.3,5.4,7.5,10.2,8.7C188.6,250.3,183.7,257.8,178.8,265.3z M218.8,230.6
				c-3.1,6.4-8.5,9.8-15.4,10.2c-4.1,0.2-8.4-0.5-12.4-1.6c-4.1-1-6.5-5.5-4.7-9.2c3.6-7.4,7.8-14.6,11.8-21.8
				c0.4-0.8,1.4-1.2,2.3-2c0,2.9-0.1,5.4,0,7.8c0.1,1.6,0.3,3.3,1.1,4.6c1.2,1.8,1.3,3.4,0.6,5.4c-0.8,2.1-0.3,3.9,2,4.7
				c1.8,0.6,3.6,1.1,4.7-1.1c1.1-2.1,1.2-4.1-0.9-5.8c-5.5-4.3-6.7-8.9-4.1-15.5C213.6,206.7,224.1,219.5,218.8,230.6z M204.6,223.5
				c0.4-0.6,1.6-0.8,2.4-1.1c0.2,1.7,0.4,3.3,0.6,5.5C203.9,226.9,203.5,225.4,204.6,223.5z M217.5,211.5c2-0.8,4.6-2,7.2-2.9
				c1.2-0.4,2.7-0.7,3.9-0.4c3.5,0.8,5.6-0.7,7.1-3.6c-3.4-2.8-6-2.8-8.8-0.2c-4.4,4.1-9.7,5-15.2,2.6c-1.4-0.6-3-1-5.3-1.7
				c1.5-0.4,2.5-0.4,3.3-0.8c4.3-2,8.5-4.1,12.8-6.1c1.6-0.8,3.3-1.7,5.1-1.9c3.4-0.4,6.1-1.3,7.3-4.8c-3.5-2.6-6.3-2-9.5,1.4
				c-5.1,5.5-11.4,8.7-19.3,9.3c0.6-0.6,1.1-1.4,1.8-1.9c4.4-3.1,8.7-6.2,13.1-9.1c4-2.7,8.5-3.6,13.3-3.4
				c6.4,0.4,10.7,5.2,10.8,11.7c0.1,12.4-5.3,18.2-20.6,20.9C221.8,217.1,219.6,214.3,217.5,211.5z M227.3,205.6
				c2.5-0.8,4.2-1.4,6-2l0.4,1.1C232.3,207,230.6,207.7,227.3,205.6z M226,193.6c2.1-0.9,4.3-1.8,6.4-2.8c0.2,0.4,0.3,0.8,0.5,1.2
				C231.3,194.5,229.3,195.9,226,193.6z M184.6,281c-1.3,1.7-2.9,3.1-4.9,5.2c-0.6-5.6-2.1-10.4,1.9-14.7c4.7-5.1,10.5-5.1,16.8-3.9
				C191.3,269.6,188.5,275.9,184.6,281z"/>
			<path class="st0" d="M317,268.3c-4.6-1.2-9.2-2.4-13.8-3.6c0,0.3,0.1,0.5,0.1,0.8c1.9,0.7,3.8,2.1,5.8,2.3c0.3,0,0.6,0.1,0.8,0.3
				c1.2,0.2,2.5,0.5,3.7,0.9c0,0,0,0,0.1,0c0,0,0.1,0,0.1,0c0.3,0,0.6,0,0.8,0c1,0,1.6,0.5,2,1.2c0.2,0.1,0.5,0.2,0.7,0.3
				c-0.2,0-0.3,0.1-0.5,0.1c0.4,1.4-0.3,3.2-2.2,3.1c-0.1,0-0.1,0-0.2,0c-2.3,2.1-4.7,3.3-7.2,4c-1,0.9-2,1.7-3,2.2
				c-3.7,2.1-7.8,3.4-12,4.2c-0.4,0.1-0.7,0.1-1.1,0c-1.2,0.3-2.4,0.7-3.6,0.9c-7.8,1.7-15.8,1.9-23.6,3.9c-0.3,0.1-0.6,0.1-0.9,0.1
				c-0.1,0-0.2,0.1-0.2,0.1c-4.9,1.2-9.8,1.4-14.8,1.5c-5.6,0.1-11.2,0.4-16.8,0.3c-1.1,0-2.2-0.1-3.4-0.2c-2.8,0-5.7-0.4-8.5-1.1
				c-1.5-0.2-2.9-0.4-4.4-0.6c-2.1-0.3-4.3-0.4-6.3-1.1c-0.2-0.1-0.5-0.2-0.7-0.3c-6.3-0.4-11.5-2.4-16.6-4.6c0-0.2-0.1-0.3-0.1-0.5
				c-0.3-0.3-0.6-0.6-0.8-1.1c-5.9,5.1-11.5,10.5-17.3,15.8c0.3,0.3,0.5,0.7,0.8,1c0.8-0.3,1.6-0.6,3-1.1c-0.5,5.5,0.8,11,0.3,16.4
				c0.1,0.2,0.1,0.5,0.1,0.8c0,2.1,0.1,4.2,0.1,6.2c0.9-0.7,1.8-1.5,2.5-2.4c-0.1-1-0.3-1.9-0.4-2.9c-0.1,0-0.1,0.1-0.2,0.1
				c0-0.6,0-1.1,0-1.7c-0.1-0.7-0.1-1.4-0.2-2.1c0-0.6,0-1.1,0.1-1.7c0-5-0.1-10.1,0.2-15.1c0.1-1.2,1.8-2.5,2.9-3.6
				c2.4-2.3,4.6-5.6,7.3-6.3c2.8-0.6,6.2,1.6,9.8,2.7c-0.1,0.1-0.1,0.1-0.2,0.2c0.9,0.2,1.9,0.4,2.8,0.7c0.1,0,0.2,0,0.3,0
				c3.9,0.6,7.8,1.3,12.4,2.1c0,0-0.1,0-0.1,0.1c0.8,0.2,1.7,0.4,2.5,0.6c0.5,0.1,1.1,0.3,1.7,0.4c0.3,0,0.6,0,0.8,0
				c4,0,7.9,0.3,11.9,0.8c2.4-0.1,4.8-0.1,7.2,0c1.6-0.6,3.4-1,5.4-1.1c17.6-1.3,35.1-3.1,52.1-7.6c8.8-2.3,16.7-6.3,23.2-12.8V270
				C318.7,269.4,317.9,268.6,317,268.3z"/>
		</g>
	</g>
	<polyline class="st0" points="169.3,319.1 168.8,314.5 170.3,315.1 171.5,320.3 	"/>
	<polyline class="st0" points="177.4,320.9 177.5,324 180.3,321.3 179.9,318.5 	"/>
	<polygon class="st0" points="260.1,260 272.2,260.2 267.3,262 256.6,261.6 	"/>
	<polygon class="st0" points="280.3,262.6 289,263.6 294.5,264.5 309.9,268.2 309.9,266.5 294.3,262.6 285.5,260.9 	"/>
</g>
<path class="st1" d="M0,140"/>
</svg>
