<?xml version="1.0" encoding="utf-8"?>
<!-- Generator: Adobe Illustrator 21.1.0, SVG Export Plug-In . SVG Version: 6.00 Build 0)  -->
<svg version="1.1" id="Layer_1" xmlns="http://www.w3.org/2000/svg" xmlns:xlink="http://www.w3.org/1999/xlink" x="0px" y="0px"
	 viewBox="0 0 360 360" style="enable-background:new 0 0 360 360;" xml:space="preserve">
<style type="text/css">
	.st0{fill:#464646;}
</style>
<path class="st0" d="M175,149.9"/>
<g id="_x35_Nw1j5_1_">
	<g>
		<path class="st0" d="M267.8,99.1c1.1,0,1.7,0,2.3,0c5.8-0.5,11.7-1.2,17.5-1.6c2.4-0.1,4.8,0.3,7.2,0.8c1.9,0.4,2.6,2,1.6,3.7
			c-1,1.6-2.2,3.2-3.6,4.3c-1.9,1.4-4.2,2.5-6.4,3.4c-10.5,4.5-20.9,9.4-31.9,12.5c-1.2,0.3-2.4,0.9-3.5,1.8c2-0.3,4.1-0.6,6.1-0.9
			c11.8-1.5,23.7-3.1,35.6-4.5c2.6-0.3,5.3-0.3,7.9,0.2c4.2,0.8,5.3,3.7,3.1,7.3c-1.1,1.8-2.7,3.3-4.2,4.9c-0.7,0.7-1.5,1.3-2.5,2.3
			c1.1,0.3,1.8,0.5,2.5,0.6c0.8,0.2,1.8,0.1,2.5,0.4c0.8,0.4,1.7,1.1,1.9,1.8c0.2,0.6-0.4,1.7-1,2.1c-1.5,0.8-3.1,1.4-4.7,2
			c-1.4,0.5-2.8,0.9-4.8,1.5c1.2,0.8,1.8,1.2,2.4,1.6c1.6,1.1,3.3,2,4.7,3.3c2.2,2.1,2.1,3.7-0.7,5c-2.5,1.2-5.4,2.1-8.1,2.2
			c-9.9,0.4-19.9,0.4-29.8,0.6c-0.3,0-0.7,0.1-1.2,0.5c1.4,0.7,2.8,1.5,4.2,2.2c9.3,4.2,18.2,9,26.3,15.3c1.4,1.1,2.5,2.7,3.6,4.1
			c0.8,1.1,0.4,2.2-1,2.7c-0.9,0.4-1.8,0.8-2.8,1.1c-0.9,0.3-1.9,0.3-3.3,0.5c0.7,0.9,1.3,1.6,1.8,2.3c1.7,2.7,3.3,5.5,4.8,8.3
			c0.9,1.6,0.1,3.1-1.2,3.9c-2.3,1.3-4.8,2.3-7.6,1.5c-4.4-1.3-8.4-3.1-12.2-5.6c-5.3-3.5-10.8-6.7-16.2-10.1
			c-0.5-0.3-1.1-0.5-1.8-0.5c3.1,3.5,6.2,7,9.4,10.4c3.1,3.2,4.9,6.9,5.4,11.4c0.2,2-0.3,3.4-2.2,4.1c-1.7,0.6-2.2,1.6-1.8,3.3
			c0.4,1.9,0.7,3.8-1.1,5.3c-0.4,0.3-0.3,1.3-0.7,1.8c-0.5,0.8-1.2,1.8-2,1.9c-0.9,0.1-2.1-0.4-2.7-1.1c-1.6-2-2.8-4.3-4.4-6.3
			c-1.8-2.3-4.1-3.6-7.7-3.7c1.1,5.2,2.1,10.2,3.1,15.1c-3.6-4.5-8.4-7.3-14.1-9.9c0.4,2.9,0.8,5.4,1.2,7.9c0.2,1.6,0.5,3.1,0.6,4.7
			c0.1,2-0.5,3.7-2.6,4.4c-2,0.7-5.2-0.1-6.3-1.5c-0.6-0.7-1.3-1.4-2-1.7c-3.8-1.3-6.4-3.9-8.5-7.2c-0.9-1.5-1.9-2.9-3.3-4.3
			c-0.1,1.6-0.1,3.2-0.3,4.8c-0.3,2.6-1.2,4.8-3.7,6.1c-3.5,1.8-6.3,1.2-8.6-2c-0.9-1.3-1.7-2.6-2.8-4.5c-0.8,3.8-1.4,7-2,10.2
			c-0.5,2.5-0.7,5-1.4,7.4c-0.9,3-2.6,5.7-5.9,6.1c-2.9,0.4-5.1-1.7-6.5-3.9c-1.7-2.5-2.7-5.5-4-8.3c-0.2,0.7-0.5,1.8-0.6,2.8
			c-2.2,18.1-2.7,36.3-2,54.5c0.5,14.4,1.3,28.7,2,43.1c0.1,2.1,0.2,4.3,0.4,6.4c-0.2,0-0.4,0-0.5,0.1c-0.6-4.6-1.5-9.1-1.8-13.7
			c-1.1-22.9-2.3-45.9-3-68.8c-0.4-11.3,1.1-22.6,3.1-33.7c0.3-1.9,0.2-3.9,0.3-5.8c-0.3,0-0.6-0.1-0.9-0.1
			c-0.4,2.7-0.9,5.4-1.3,8.2c-0.4,2.8-0.6,5.7-0.9,8.5c-0.3,2.8-0.6,5.6-0.9,8.3c-0.3,2.8-0.6,5.6-1.2,8.4
			c-0.1-13,1.3-25.9,3.5-38.7c-5,15.2-5.3,31-6.6,46.7c-0.9-12.8,0.4-25.6,2.3-38.6c-2.1,1.1-2.7,2.6-2.8,4.5
			c-0.3,6.5-0.6,13-0.9,19.5c0,0.7-0.1,1.5-0.2,2.2c-0.2,0-0.4,0-0.5,0c0-6.9,0-13.9,0-21c-1.9,0.9-2.7,2.4-2.7,4.3
			c-0.2,15.7-0.4,31.4-0.4,47c0,13.8,0.2,27.6-1.8,41.4c-1,6.9-2.3,13.7-3.7,20.5c0.6-17.9,1.4-35.7,1.7-53.6
			c0.3-17.9,0.1-35.9,0.1-53.9c-2.5,0-4.1,1.3-5.5,2.8c-1.4,1.5-2.7,3.2-4.1,4.7c-1.9,2-3.2,1.6-3.8-1.1c-2.4-10.1-1.9-20,1.5-29.8
			c0.2-0.7,0.5-1.4,0.2-2.4c-1.1,1.6-2.3,3.2-3.3,4.9c-2.2,3.4-5.2,5.5-9.2,6.1c-3.6,0.5-5.8-1-6.3-4.7c-0.3-2-0.2-4-0.2-6
			c0-0.7,0-1.4,0-2.5c-1.7,0.9-3.1,1.6-4.5,2.3c-2.4,1.2-4.9,2.4-7.3,3.6c-0.8,0.4-1.7,0.9-2.6,0.9c-2.2,0-4.3-0.2-6.5-0.3
			c0.1-1.9-0.1-3.9,0.4-5.8c1.4-5.3,4.6-9.8,7.8-14.2c1.1-1.5,2.2-3,3-4.9c-3.6,0.8-7.2,1.6-10.7,2.5c-4.2,1.1-8.4,2.5-12.6,3.4
			c-1.9,0.4-4,0.2-5.9-0.3c-3.4-1-4.5-4-2.2-6.7c2.6-3.2,5.4-6.4,8.7-8.8c4.7-3.4,9.9-6,14.9-9c0.6-0.4,1.2-0.7,1.7-1.5
			c-0.7,0-1.5-0.2-2.2-0.1c-6.4,0.6-12.8,1.4-19.2,1.9c-2.1,0.2-4.3-0.2-6.3-0.8c-2.1-0.6-2.6-2.2-1.6-4.2c0.8-1.6,1.7-3.2,2.5-4.8
			c1.1-2.2,0.9-2.6-1.4-2.9c-3-0.4-4.9-2-6.2-4.7c-0.9-1.9-0.6-3.5,1.1-4.7c1.4-1.1,2.8-2.1,4.5-3.5c-2.3-0.8-4.3-1.3-6.1-2
			c-3.7-1.5-7.4-3-11-4.8c-3.4-1.7-3.5-4.6-0.5-6.9c1-0.7,2.3-1.3,3.5-1.5c7.8-1.2,15.7-2.3,23.6-3.4c0.5-0.1,1.1-0.1,1.8-0.6
			c-0.6-0.3-1.2-0.6-1.8-0.8c-4.5-1.6-8.9-3.2-13.4-4.6c-4.4-1.4-8.2-3.8-11.3-7.1c-2.4-2.5-2.1-5,0.7-7.1c2.3-1.7,5-2.1,7.8-2
			c7.2,0.2,14.4,0.6,21.6,1c1.3,0.1,2.7,0.1,4.2-0.3c-0.8-0.5-1.6-1-2.4-1.5c-4-2.1-8-4.2-12-6.3c-5.1-2.7-9.4-6.3-11.5-12
			c-1.2-3.3-0.5-4.4,3-4.3c1.8,0.1,3.5,0.6,5.2,1c7.2,1.9,14.3,3.9,21.7,5.6c-0.4-0.4-0.8-0.9-1.2-1.3c-3-3.2-6.1-6.2-9-9.5
			c-3-3.4-5.1-7.3-5.8-11.8c-0.2-1,0-2.8,0.7-3.2c1.1-0.6,2.8-0.8,3.9-0.3c4.6,1.8,9.2,4,14.2,5.8c-0.7-1.1-1.3-2.3-2.1-3.4
			c-1.9-2.9-4-5.7-5.7-8.8c-0.8-1.4-1.1-3.3-0.9-4.9c0.5-3.9,3.3-5.4,6.8-3.7c2.6,1.2,5.1,2.9,7.6,4.4c1.4,0.8,2.8,1.8,4.7,3.1
			c-0.4-1.2-0.6-1.8-0.8-2.4c-1.1-3.3-2.4-6.6-3.3-10c-0.8-2.8-1.2-5.8,1.5-7.9c2.7-2.1,5.4-0.7,7.8,0.7c1.8,1,3.3,2.4,5,3.7
			c0.5,0.4,1.1,0.8,2.1,1.5c-0.2-2-0.5-3.3-0.4-4.7c0.1-1.4,0.2-2.9,0.8-4.1c1.4-2.7,3-3.2,5.8-2c4.5,1.9,7.9,5.1,10.8,8.9
			c2.7,3.5,5.3,7,8,10.5c0.2,0,0.5-0.1,0.7-0.1c0-3.3-0.4-6.6,0.1-9.8c0.7-4.7,1.8-9.2,3-13.8c0.6-2.2,1.8-4.3,4.3-4.5
			c2.4-0.2,4,1.5,5.3,3.4c3.1,4.6,4.8,9.9,6.6,15.1c1.3,4,2.7,8,4.3,12.4c0.3-0.9,0.5-1.3,0.7-1.7c2.7-7.3,5.2-14.7,8.1-21.9
			c0.9-2.2,2.7-4.2,4.4-5.9c1.7-1.7,3.6-1.3,4.8,0.8c0.9,1.4,1.5,3,2.4,4.8c1-1.5,1.8-2.9,2.7-4.2c0.4-0.6,0.9-1.4,1.6-1.7
			c3.4-1.5,5.1-1,5.7,3.2c0.8,5.8,1.6,11.6,1.8,17.5c0.2,6.6-0.2,13.3-0.3,20c0,0.7,0,1.3,0.5,2.2c0.4-0.6,0.8-1.2,1.1-1.9
			c4-9,10.5-16.1,16.8-23.5c2.2-2.6,4.9-4.3,8.5-4.4c1.5,0,2.3,0.6,1.9,2.2c-1.4,6.1-2.7,12.1-4,18.2c-0.1,0.7-0.4,1.3-0.7,2.6
			c1.9-1.6,3.3-2.9,4.8-4.1c2.1-1.6,4.2-3.2,6.3-4.8c2.1-1.5,4.6-2,7.2-1.4c2.5,0.5,3.2,1.8,2.2,4.2c-1.8,4.3-3.7,8.5-5.6,12.8
			c-0.5,1.2-1.2,2.4-1.5,4c1-0.7,2.1-1.3,3.1-2c4.5-3.1,9.4-5.2,14.9-5.6c5.7-0.5,7.1,1.2,4.6,6.3c-1.4,2.9-3,5.7-5,8.2
			c-4.9,6.3-10,12.4-15,18.5c-0.3,0.4-0.6,0.8-0.7,1.5c0.9-0.4,1.9-0.8,2.8-1.2c5.8-2.9,11.5-6.1,17.5-8.6c3.1-1.3,6.6-1.7,10-2
			c2.9-0.2,4.1,1.7,2.7,4.2c-1.6,2.7-3.5,5.2-5.8,7.3c-3.6,3.3-7.7,6.2-11.6,9.3C269.4,97.7,268.8,98.3,267.8,99.1z M155.4,123.5
			c-0.2,1-0.4,1.5-0.4,2.1c0.1,1.1,0,2.8,0.7,3.2c1.2,0.7,1.2,1.4,0.8,2.4c-0.7,1.7-0.2,2.8,1.3,3.8c0.8,0.6,1.3,1.8,1.4,2.9
			c0.2,1.5,0.5,2.7,2.1,3.4c0.7,0.3,1.6,1,1.8,1.7c0.5,2,1.3,3.4,3.6,3.5c0.3,0,0.6,0.6,0.7,0.9c0.6,2,2.2,2.8,4.1,2.8
			c1.3,0,2.1,0.5,2.6,1.7c0.8,1.6,2.2,2.8,4.1,2.4c1.4-0.3,2.3,0.2,3,1.3c1,1.5,2.3,1.7,3.9,0.9c0.7-0.4,1.6-0.7,2.2-0.5
			c2.6,1.1,5,0.7,7.7-0.1c3.3-1,6.8-1.3,10.3-1.9c0.5-0.1,1.1-0.5,1.4-0.9c1.4-1.8,2.6-3.8,3.9-5.6c1.4-1.9,2.7-4,5.3-4.7
			c0.6-0.1,1.3-1.5,1.4-2.3c0-1.3,0.6-1.7,1.6-2.4c1.1-0.7,2.5-1.9,2.6-3.1c0.2-2.3,1.7-3.8,2.3-5.6c1.1-3.1,1.6-6.5,1-9.9
			c-0.2-1.2-0.5-2.3-0.7-3.5c-0.2-1.2-0.3-2.6-0.8-3.7c-0.2-0.3-1.7-0.1-2.8-0.1c0.4-0.8,0.7-1.6,1.2-2.3c1.2-2.1,1.1-2.5-0.9-3.7
			c-0.4-0.3-0.7-0.8-1-1.1c-2-1.9-3.7-4.9-6-5.5c-2.9-0.7-4.4-2.9-5.6-4.5c-1.9-2.4-3.6-3.4-6.6-2.7c-0.1-2.5-1.2-3.3-3.4-2.2
			c-0.4,0.2-1.3,0-1.5-0.3c-1-1.3-2.3-1.6-3.8-1.3c-0.5,0.1-1.2-0.4-1.5-0.8c-1.1-1.2-2.3-1.3-3.7-0.6c-0.8,0.4-1.6,0.9-2.6,1.4
			c-0.2-2.2-1.4-2.6-3.2-1.9c-0.6,0.2-1.2,0.6-1.8,0.7c-0.5,0.1-1.3,0.1-1.5-0.2c-1.3-1.9-2.5-0.6-3.6,0.2c-1,0.8-2,1.7-3.1,2.8
			c-0.7-2-1.9-1.8-3-1c-3.8,2.6-7.8,5-10.3,9.1c-0.3,0.5-0.9,0.9-1.3,1.4c-0.8,1.1-1.6,2.2-2.3,3.3c-0.4,0.6-0.5,1.3-0.9,1.9
			c-3.3,4.8-4,10-2.6,15.6C151.9,122.3,152.5,124.2,155.4,123.5z M178.9,159.8c-0.2-0.2-0.4-0.3-0.6-0.5c-1.4,1.9-2.9,3.7-4,5.7
			c-4.3,7.4-8.6,14.9-12.6,22.4c-4.9,9.1-9.7,18.2-12.1,28.3c-1.4,6.1-1.5,12.1,0,18.6c7.9-7.4,17-13.2,21.6-23.3
			c5.4-11.8,9.2-26.4,7.7-30.4c-2.8,6-5.5,11.9-8.2,17.8c-0.2-0.1-0.4-0.2-0.5-0.3c1.3-3.1,2.7-6.1,4-9.2c1.3-3,2.7-6,4-9
			c1.3-3.1,2.5-6.3,3.5-9.5c1-3.1,1.8-6.3,2.7-9.4c-0.2,0-0.3-0.1-0.5-0.1c-4.3,9.4-8.5,18.8-12.8,28.3c-0.2-0.1-0.4-0.2-0.5-0.2
			c3.9-9.9,9.1-19.3,12.1-29.6c-1.9-1-2.2,0.4-2.6,1.4c-6.9,14.2-13.7,28.3-20.6,42.5c-0.3,0.6-0.6,1.2-1,1.8
			c-0.1-0.1-0.3-0.2-0.4-0.3C164.8,189.8,171.8,174.8,178.9,159.8z M222.8,150.8c-0.1,0.2-0.3,0.3-0.4,0.5c2.4,2.2,4.6,4.6,7.2,6.5
			c7.9,5.8,15.8,11.7,23.9,17.1c10.3,6.9,21,13.4,32.6,18c1.1,0.4,2.3,0.7,3.5,0.8c1.8,0.1,2.7-1.2,2.2-3c-0.2-0.7-0.5-1.4-1-1.9
			c-2.4-2.9-5-5.7-7.4-8.5c-0.6-0.7-0.9-1.8-1.3-2.7c0.8-0.2,1.7-0.4,2.5-0.5c1-0.1,1.9,0,2.9,0c0-0.2,0-0.5,0.1-0.7
			c-21.6-11.6-42.7-24.2-65.9-32.8c-0.1,0.2-0.2,0.3-0.3,0.5c7.8,5,15.6,10,23.4,15c-0.8,0.1-1.5-0.3-2.1-0.6
			c-7.5-4.4-15-8.8-22.6-13.2c-0.8-0.4-1.7-0.5-2.6-0.7c-0.1,0.3-0.2,0.6-0.3,0.8c14.4,9.6,28.8,19.2,43.2,28.8
			c-0.1,0.2-0.3,0.5-0.4,0.7C247.7,166.9,235.2,158.9,222.8,150.8z M229.7,191.8c-0.3,0.2-0.5,0.4-0.8,0.5
			c-3.8-6.2-7.5-12.3-11.3-18.5c-2.8-4.6-5.5-9.2-8.4-13.7c-0.8-1.3-2.2-2.3-3.3-3.5c-0.3,0.2-0.5,0.4-0.8,0.6
			c3.7,6.8,7.3,13.6,11,20.4c-0.1,0.1-0.3,0.2-0.4,0.2c-3.9-6.7-7.8-13.4-11.8-20.1c-0.2,0.1-0.4,0.2-0.7,0.3c1.3,3.7,2.7,7.3,4,11
			c-0.1,0.1-0.3,0.1-0.4,0.2c-0.9-1.8-1.8-3.6-2.9-5.9c0.7,19,24.9,48.2,41.9,51.2c0.2-3.7-2.1-10.1-5.5-14.1
			c-7.2-8.5-12.6-18-16.6-28.4c-2.6-6.9-6.7-12.7-11.5-18.2c-0.5-0.6-1.2-0.9-1.9-1.3c-0.2,0.2-0.4,0.4-0.5,0.5
			c1.7,2.6,3.4,5.3,5.1,7.9c-0.1,0-0.1,0.1-0.2,0.1c-1.9-2.2-3.7-4.3-5.6-6.5c-0.2,0.1-0.5,0.2-0.7,0.3c0.1,0.6,0.1,1.3,0.5,1.9
			c4.1,6.9,8.3,13.7,12.4,20.6C224.1,182.3,226.9,187,229.7,191.8z M148.3,116c0.1-0.2,0.2-0.4,0.3-0.6c-0.7-0.5-1.3-1.2-2.1-1.4
			c-3.2-1-6.5-1.8-9.7-2.7c-13-3.8-25.9-8.3-39.5-9.8c-7.6-0.8-15.3-1.4-22.9,0.2c-1.3,0.3-2.5,1.2-3.7,1.8c0.8,1.2,1.4,2.6,2.5,3.6
			c3.4,3.1,7.5,4.9,11.9,6.2c19.5,6.1,39.7,6.5,59.8,7.9c0.5,0,1-0.2,1.5-0.2c0-0.2,0-0.4,0-0.6c-8-1.8-16-3.5-24-5.3
			c0-0.1,0.1-0.3,0.1-0.4c7.8,1.3,15.7,2.6,23.5,4c0.1-0.4,0.1-0.8,0.2-1.1c-14.1-3-28.1-6-42.2-9c0-0.2,0.1-0.4,0.1-0.6
			C118.9,110.4,133.6,113.2,148.3,116z M156.8,138.7c-1.1-2.2-2.1-2.7-4.7-2.2c-3.5,0.7-7,1.5-10.5,2.3c-3.2,0.7-6.4,1.3-9.6,2
			c-0.1-0.3-0.1-0.5-0.2-0.8c7.1-1.7,14.3-3.4,21.4-5c0-0.2,0-0.4,0-0.7c-0.8-0.1-1.6-0.4-2.4-0.4c-3.5,0.3-7,0.3-10.5,1
			c-13.5,2.7-26.3,7.8-38.7,13.7c-5,2.3-9.4,5.5-13,9.6c-0.5,0.6-0.9,1.3-1.3,2c0.1,0.2,0.2,0.4,0.3,0.6c1.9-0.1,3.8-0.2,5.7-0.5
			c8.7-1,17.3-2.7,26-3c7.3-0.3,13.3-2.8,19.1-6.6c0.4-0.3,0.8-0.7,1.2-1c-0.1-0.1-0.1-0.2-0.2-0.3c-1.9,0.5-3.9,0.9-5.8,1.4
			c0.5-0.6,1-0.9,1.6-1c5.1-1.6,10.1-3.1,15.2-4.7c2.2-0.7,4.3-1.5,6.4-2.4c0.5-0.2,0.7-1,1.1-1.5c-0.6-0.3-1.2-0.6-1.8-0.7
			c-0.5-0.1-1.1,0.2-1.7,0.3c-13.4,2.8-26.7,5.6-40.1,8.3c-1.9,0.4-3.9,0.8-5.8,1.2c-0.1-0.3-0.1-0.7-0.2-1
			C124.3,145.7,140.5,142.2,156.8,138.7z M223.2,162.5c0.3,0.5,0.5,0.9,0.8,1.4c2.5,4.7,5.1,9.4,7.4,14.3
			c5.6,11.9,12.2,22.8,23.6,30.2c2.1,1.4,3.7,3.5,5.4,5.5c0.8,1,1.4,1,2.3,0.4c1.9-1.2,1.7-3,1.3-4.8c-0.5-2-0.4-3.6,1.7-5
			c2.4-1.6,2.6-3,0.8-5.2c-2.3-2.9-4.7-5.8-7.3-8.4c-5.5-5.4-11.3-10.5-16.7-16c-5-5.1-9.4-10.6-14.3-15.7c-2.7-2.9-5.8-5.4-8.7-8.1
			c-0.1,0.1-0.1,0.1-0.2,0.2c5.8,7.2,11.6,14.4,17.4,21.7c-0.2,0.1-0.3,0.3-0.5,0.4c-1.9-2.3-3.7-4.6-5.6-6.8
			c-1.9-2.3-3.8-4.5-5.7-6.7c-1.9-2.1-3.9-4.1-5.8-6.2c8.4,10.1,16.1,20.6,21.6,32.5C235.1,178,230.4,169.4,223.2,162.5z
			 M170.6,153.2c-10.7,12.5-19,26.6-28.6,39.7c-0.2-0.2-0.5-0.3-0.7-0.5c8.9-12.9,17.8-25.7,26.6-38.6c-1.3,0.6-2.5,1.3-3.4,2.2
			c-5.4,5.6-11.1,10.8-15.9,16.8c-7.7,9.6-12.5,20.9-16.5,32.6c-0.2,0.6-0.3,1.3-0.4,1.9c-0.5,3.6,2.5,6,5.8,4.7
			c1.1-0.4,2.2-1.2,3-2c2-2.1,4.1-4.3,5.7-6.7c3.7-5.4,7.2-10.8,10.5-16.4c4.6-7.7,9-15.4,13.4-23.2c1-1.8,1.6-3.9,2.3-5.8
			c-0.3-0.1-0.6-0.3-0.8-0.4c-5.2,8-10.5,16-15.7,24c-0.2-0.1-0.3-0.2-0.5-0.3c0.3-0.6,0.7-1.2,1-1.8c4.8-7.6,9.6-15.3,14.3-22.9
			C171.3,155.4,172.3,154.5,170.6,153.2z M156,150.7c-6.9,3.2-13.8,6.4-20.7,9.5c0-0.1-0.1-0.2-0.1-0.3c8.5-4.3,17.1-8.7,25.6-13
			c-0.1-0.2-0.2-0.4-0.3-0.6c-1,0.2-2,0.2-2.9,0.6c-7.7,2.9-15.5,5.6-23,8.9c-11.8,5.2-23.4,10.7-34.1,18.1c-3.3,2.3-6.1,5.2-8.9,8
			c-0.6,0.6-0.8,1.9-0.6,2.7c0.2,0.6,1.4,1.2,2.2,1.2c2-0.1,4-0.3,5.9-0.8c8.5-2.5,16.9-5.2,25.4-7.9c3.3-1,5.8-3.2,7.6-6.3
			c-4.1,1.7-8.1,3.5-12.2,5.2c8-4.9,17.5-7.1,23.6-15.2c-2.3,0.9-4.5,1.8-6.8,2.8C143.5,159.7,150.5,156.5,156,150.7z M169.5,68.5
			c0.1,0,0.2-0.1,0.3-0.1c1.7,5,3.4,10,5.1,15c0.3-0.1,0.6-0.2,1-0.3c-1.2-6.1-2.5-12.2-3.7-18.3c-1.2-6.1-2.4-12.1-3.7-18.2
			c0.2,0,0.3-0.1,0.5-0.1c2.8,11.9,5.6,23.7,8.4,35.6c0.3-0.1,0.6-0.1,0.9-0.2c-2.5-14.8-4.9-29.6-7.4-44.3c0.2,0,0.4-0.1,0.6-0.1
			c2.9,14.7,5.8,29.5,8.7,44.2c0-11.4-1.8-22.6-3.6-33.9c0.2,0,0.4-0.1,0.6-0.1c0.9,4.7,1.9,9.4,2.9,14.6c1.3-4.2,1.7-8,0.9-11.8
			c-2.4-11.2-6.4-21.9-11.4-32.3c-0.6-1.2-1.7-2.2-3-3.8c-0.9,2-1.8,3.4-2.2,4.8c-2.4,9.1-2,18.5-1.2,27.7
			c1.1,12.4,5.2,24.2,8.4,36.1c0.2,0.7,0.7,1.2,1.1,1.8c0.2-0.1,0.5-0.2,0.7-0.3C172.1,79.2,170.8,73.9,169.5,68.5z M222.5,102
			c0.2,0.2,0.4,0.4,0.6,0.6c11.1-7.9,20.8-17.5,31.2-26.4c0.2,0.2,0.4,0.4,0.6,0.6c-10.3,9.2-20.6,18.5-31,27.8
			c0.6,1.6,1.6,1.4,2.8,0.5c4.3-3.5,8.6-7.1,13-10.6c1.3-1.1,2.6-2.1,3.9-3.1c0.3,0.3,0.5,0.5,0.8,0.8c-0.8,0.6-1.7,1-2.4,1.7
			c-0.7,0.7-1.3,1.5-2,2.3c0.1,0.1,0.3,0.2,0.4,0.4C254.9,86.4,264.5,72,274,56.8c-5.7,0.5-10.3,2.2-14.6,4.8
			c-13.2,8.1-24.6,18.2-34,30.5c-0.2,0.3-0.4,0.7-0.6,1.1c0.3,0.2,0.5,0.5,0.8,0.7c2.1-2.5,4.3-5,6.4-7.6c0.2,0.2,0.4,0.4,0.6,0.5
			c-3.9,4.7-9,8.5-12.1,13.9c0.1,0.1,0.3,0.3,0.4,0.4c8.3-7.6,16.7-15.2,25-22.8c0.1,0.2,0.3,0.3,0.4,0.5
			C238.5,86.6,230.5,94.3,222.5,102z M187,169.2c-0.2,0-0.4-0.1-0.6-0.1c-0.3,0.7-0.6,1.4-0.8,2.1c-5.5,17.3-7.5,34.8-4.1,52.7
			c1.1,5.8,2.6,11.3,6.7,15.8c1.8,2,3.6,1.8,4.9-0.7c0.4-0.9,0.8-1.9,0.9-2.8c0.9-6.1,2-12.3,2.6-18.5c0.3-2.7,0-5.6-0.7-8.2
			c-1.3-4.6-3.2-9-4.8-13.5c-0.2-0.5-0.5-0.9-0.7-1.4c-0.1,0-0.3,0.1-0.4,0.1c0,5.7,0,11.4,0,17.1c-0.4-1.6-0.7-3.2-0.7-4.9
			c-0.4-8.8-0.8-17.6-1.3-26.4c0-0.8-0.3-1.6-0.5-2.4c-0.3,0-0.5,0.1-0.8,0.1c0,8.1,0,16.2,0,24.3c-0.3,0-0.6,0-0.9,0
			C185.8,191.3,185.4,180.2,187,169.2z M209.1,16.7c-0.9,1.1-1.5,1.6-1.8,2.2c-1.1,2.3-2.2,4.6-3,7.1c-3.8,12.2-5.7,24.8-7.3,37.4
			c-0.8,6.7-1.3,13.5-1.9,20.3c-0.1,1.3-0.1,2.5,1.9,2.7c0.5-5.7,1-11.4,1.5-17.1c0.3,1.1,0.3,2.1,0.3,3.2
			c-0.1,4.4-0.1,8.9-0.1,13.3c0,0.6,0.5,1.1,0.8,1.7c0.5-0.5,1-1,1.3-1.6c0.2-0.3,0.1-0.8,0.1-1.3c0.8-7.8,1.5-15.5,2.3-23.3
			c0.3-3.1,0.7-6.2,1-9.3c0.2,0,0.5,0,0.7,0.1c-1,11.9-2,23.8-2.9,35.7c0.3,0.1,0.6,0.2,0.9,0.3c0.5-0.8,1.3-1.6,1.4-2.4
			c0.6-3.2,0.9-6.5,1.3-9.8c0.6-4.4,1.1-8.8,1.7-13.3c0.2,0,0.4,0,0.6,0.1c-0.4,5.1-0.8,10.3-1.2,15.7c2.6-4.3,4.7-11.9,4.8-17.7
			c0.3-13.5,0-26.9-1.7-40.3C209.7,19.5,209.4,18.4,209.1,16.7z M138.1,25.1c-1.2,2.1-1.5,4.3-1.1,6.5c3.6,20.3,13.2,37.7,26,53.6
			c0.4,0.6,1.1,1,1.6,1.4c0.2-0.1,0.4-0.3,0.5-0.4c-4.3-7.8-8.6-15.6-12.9-23.4c0.1-0.1,0.3-0.2,0.4-0.2c4.8,7.8,9.6,15.7,14.4,23.5
			c0.3-0.1,0.5-0.2,0.8-0.2c-0.1-0.8,0-1.7-0.4-2.4c-5.1-10.3-10.3-20.6-15.4-30.9c-0.5-1-0.9-1.9-1.4-2.9c0.2-0.1,0.4-0.2,0.6-0.3
			c4,7.1,7.9,14.1,12.2,21.7c-0.7-7-3.9-12.4-6-18.3c0.9,1.4,1.8,2.8,2.6,4.2c0.7-4.6-0.7-8.7-3.2-12.2c-3.7-5.2-7.6-10.2-11.5-15.2
			C143.6,27.2,141.2,25.8,138.1,25.1z M227.6,129.9c0.1,0.2,0.1,0.5,0.2,0.7c8.6,0.4,17.2-1,25.8-1.1c-9.5,1-19,2-28.6,3
			c0,0.2,0,0.4-0.1,0.7c1.2,0.3,2.4,0.8,3.6,0.7c8.1-0.4,16.1-0.9,24.2-1.5c5-0.4,10-1,15-1.5c0,0.3,0.1,0.5,0.1,0.8
			c-14.2,1.4-28.4,2.9-42.6,4.3c0.9,0.5,1.8,0.8,2.7,0.8c10,0.8,19.8,0.5,29.7-1.1c7.9-1.2,15.9-1.6,23.9-2.3
			c6.8-0.6,13.1-2.3,18.2-7.2c0.9-0.9,1.6-2,2.4-3c-0.1-0.2-0.2-0.4-0.4-0.6c-2.2-0.3-4.5-0.9-6.7-0.7c-9.6,0.7-19.2,1.6-28.8,2.6
			c-12.3,1.4-24.6,3-36.8,4.6C228.8,129.2,228.3,129.7,227.6,129.9z M295.9,138.5c0-0.2,0-0.4-0.1-0.6c-0.9-0.1-1.8-0.1-2.7-0.2
			c-10.8-1.2-21.6,0.2-32.3,1.4c-10.7,1.2-21.4,2.8-32.3,2c-0.4,0-0.8,0.1-1.2,0.1c0,0.3,0,0.6,0,0.9c10,1.5,20.1,0.7,30.2,0.8
			c-7.9,0.3-15.8,0.7-23.7,1c0,0.2-0.1,0.5-0.1,0.7c1.9,0.3,3.8,0.9,5.7,0.9c5.3-0.1,10.6-0.4,15.9-0.7c4.5-0.3,9-0.6,13.4-1
			c0,0.2,0,0.3,0,0.5c-8.9,1-17.8,2-26.7,2.9c0,0.2,0,0.4,0,0.5c6.9,0,13.8,0,20.7,0c0,0.2,0,0.4,0,0.6c-5.5,0.3-11,0.6-16.5,1
			c0,0.3-0.1,0.5-0.1,0.8c1.6,0.3,3.2,0.9,4.8,0.9c3.6,0,7.3-0.4,10.9-0.3c7.3,0,14.6,0.4,21.9,0.3c3.8,0,7.6-0.4,11.3-0.8
			c1.1-0.1,2.1-1.2,3.1-1.9c-0.8-0.9-1.4-1.9-2.4-2.5c-1.4-1-3-1.6-4.4-2.6c-0.6-0.5-1.2-1.5-1.2-2.2c0-0.5,1-1.2,1.7-1.5
			C293.3,139.1,294.6,138.9,295.9,138.5z M195.6,159.2c-1.5,3.5-1.3,7.1-0.9,10.7c0.5,3.7,1.1,7.4,1.6,11c0.5,3.5,1,7,1.5,10.6
			c-3.3-10.5-4.7-21.2-4.9-32.2c-0.5,0.7-0.9,1.5-1,2.2c-0.2,2.6-0.4,5.1-0.5,7.7c-0.4,19.1,6,36.4,14,53.2c1.1,2.4,2.3,2.4,3.9,0.3
			c2.9-3.7,3-7.9,2.2-12.3c-2.1-11.7-5.7-22.9-10.2-33.8c-0.9-2.2-1.1-4.7-1.8-7c-0.3-1.1-0.7-2.1-1.1-3.1c-0.2,0.1-0.4,0.1-0.6,0.2
			c0.8,6.2,1.7,12.5,2.5,18.7c-0.2,0-0.4,0.1-0.6,0.1C198.3,176.8,197,168,195.6,159.2z M240.7,31.2c-0.3-0.2-0.6-0.4-0.9-0.6
			c-1.7,1.5-3.7,2.8-5.2,4.5c-13.6,15.2-21.7,33.3-27.2,52.7c-0.2,0.8,0.2,1.9,0.4,2.9c0.2,0,0.5,0,0.7,0c3.7-7.7,7.5-15.4,11.2-23
			c0.2,0.7,0.1,1.2-0.1,1.7c-3.2,7.3-6.5,14.6-9.7,22c-0.2,0.6,0,1.4,0,2c0.5-0.4,1.3-0.8,1.6-1.3c1.7-3.2,3.2-6.5,4.8-9.8
			c1.4-2.9,2.8-5.7,4.2-8.6c0.1,0.1,0.2,0.1,0.4,0.2c-0.4,1.1-0.8,2.2-1.2,3.3c0.8-0.6,1.3-1.4,1.8-2.1c3.1-4.5,6.3-8.9,9.2-13.5
			c1.9-3.1,3.9-6.2,5-9.6c1.8-5.4,3-11,4.4-16.6C240.5,34,240.6,32.6,240.7,31.2z M157.6,87.3c0.2-0.2,0.4-0.4,0.6-0.5
			c-5.5-7.6-11.4-15-15.5-23.5c3.5,4.9,7,9.9,10.5,14.8c0.2-0.2,0.5-0.3,0.7-0.5c-1.4-2.3-2.9-4.7-4.3-7
			c-5.5-8.7-10.4-17.6-13.1-27.6c-1.8-6.6-6.8-10.6-12.7-13.5c-3.1-1.6-4.7-0.2-4.2,3.2c0.1,0.9,0.4,1.8,0.7,2.7
			c3.8,11.6,10.1,21.9,16.7,32.1c5.3,8.2,11.6,15.8,19.3,22.1c0.8,0.6,1.6,1.1,2.5,1.6c-5.1-6.2-10.6-11.9-14.7-18.7
			C148.5,77.4,153,82.3,157.6,87.3z M150.9,100.5c0.1-0.2,0.1-0.3,0.2-0.5c-12.7-6.8-25.3-13.9-36.4-23.3c2.8,1.5,5.5,3.2,8.1,5
			c9.2,6.5,18.9,12.1,29.1,16.8c1.3,0.6,2.4,1,2.9-1.1c-1-0.5-2-1.1-3.1-1.5c-10.7-4.2-19.8-10.9-27.3-19.6
			c-4.7-5.4-10-9.8-16.4-12.9c-3.1-1.5-6.1-3.1-9.2-4.5c-1.3-0.6-2.8-1-4.8-1.7c0.4,1.7,0.4,3,1,3.9c1.9,3.2,3.7,6.5,6.2,9.2
			c11,12.2,24.3,21.2,39.7,27C144.3,98.6,147.6,99.5,150.9,100.5z M81.7,77.5c1,1.2,1.9,2.5,3,3.5c5.6,5.5,11.7,10.4,19,13.4
			c9.8,4.1,19.8,7.9,29.8,11.6c4.2,1.5,8.6,2.5,12.9,3.7c0.1-0.2,0.1-0.3,0.2-0.5c-4.1-1.7-8.2-3.4-12.4-5.1
			c0.1-0.2,0.1-0.4,0.2-0.5c5.1,1.7,10.2,3.4,15.2,5.1c0.1-0.3,0.3-0.6,0.4-0.8c-0.7-0.5-1.4-1-2.2-1.4
			c-15.2-6.3-30.4-12.5-45.6-18.7c-0.8-0.3-1.5-0.8-2.3-1.2c4.4,1.2,8.7,2.9,12.9,4.6c11.6,4.6,23.2,9.3,34.9,13.9
			c0.8,0.3,1.7,0.1,2.6,0.2c0-0.3,0.1-0.6,0.1-0.8c-0.7-0.3-1.3-0.7-2-1c-2.9-1.2-5.9-2.1-8.8-3.5c-10.8-5.1-21.6-10.2-32.3-15.4
			C99.3,80.6,90.7,78.6,81.7,77.5z M166.1,150.4c-0.1-0.2-0.2-0.4-0.4-0.6c-0.6,0.3-1.2,0.6-1.7,1c-3.1,2.2-6.2,4.4-9.2,6.6
			c-13.7,10.1-26.5,21.2-37,34.7c-2.5,3.2-4.3,7.1-6.1,10.8c-0.9,1.9-0.1,2.8,2,2.2c2.5-0.7,4.9-1.7,7.2-2.8
			c5.6-2.8,10.7-6.1,14.1-11.8c4.2-7.1,8.9-14,13.4-20.9c0.3-0.5,0.6-1,0.9-1.5c-0.1-0.1-0.2-0.2-0.3-0.2
			c-3.8,3.6-7.5,7.1-11.3,10.7c-0.2-0.2-0.4-0.4-0.6-0.6C146.8,168.7,156.4,159.6,166.1,150.4z M136.9,73.5c0.1-0.1,0.3-0.3,0.4-0.4
			c-3.8-6-7.6-11.9-11.5-17.9c-0.3-0.5-0.8-1-1.3-1.4c-4.4-3.9-9.1-7.4-14.6-9.7c-1.4-0.6-3.1-0.7-4.9-1.1c0.2,1.1,0.3,1.6,0.4,2
			c0.6,1.5,1.2,3.1,1.9,4.5c5.4,10.6,13.1,19.6,21.5,28c5.7,5.6,11.8,10.9,19,14.6c1.8,0.9,3.7,1.6,5.6,2.3c0.1-0.2,0.2-0.4,0.2-0.5
			c-2.4-1.3-4.8-2.6-7.2-3.9c0.1-0.2,0.2-0.4,0.2-0.6c1.6,0.6,3.1,1.1,4.7,1.7c-7.9-6.8-16.6-12.5-23.6-20.3
			c5.7,4.4,11.3,8.9,17,13.3c0.2-0.2,0.4-0.4,0.5-0.6c-8.3-7.8-16.5-15.7-24.8-23.5c0.1-0.2,0.3-0.3,0.4-0.5
			C126.3,64.2,131.6,68.8,136.9,73.5z M228.9,111.6c0.1,0.2,0.2,0.3,0.3,0.5c11.4-4.8,21.4-12.3,32.6-17.4
			c-3.6,2.4-7.2,4.6-10.9,6.8c-7.1,4.1-14.3,8.2-21.4,12.3c-1.5,0.8-2.9,1.8-2.8,3.4c7.1-3.5,14.2-7.1,21.5-10.4
			c7.8-3.6,15.7-7,22.1-12.9c4.5-4.1,9-8.1,13.5-12.3c0.6-0.6,0.9-1.4,1.4-2.2c-2.3-0.9-3.3-0.7-6.1,0.4
			c-18,7.2-34.4,17.1-49.8,28.8c-0.6,0.4-1,0.9-1.6,1.4c0.1,0.2,0.2,0.3,0.4,0.5c6.1-3.2,12.2-6.4,18.3-9.6c0.1,0.1,0.1,0.2,0.2,0.3
			C240.6,104.6,234.8,108.1,228.9,111.6z M186.3,68c0.3,0,0.5,0,0.8,0c0,2,0,4,0,6.1c0,3,0,6,0.1,9c0,0.5,0.7,1,1.1,1.4
			c0.4-0.4,0.9-0.8,1.1-1.3c0.2-0.3,0.1-0.8,0.1-1.3c0.4-13.7,0.8-27.3,3.3-40.8c0.1-0.4,0.1-0.7,0.2-1.1c0.1-0.3,0.3-0.6,0.4-0.9
			c-0.7,14-3.1,27.9-2.2,42c0.2-0.2,0.3-0.5,0.3-0.7c0.9-16.9,3.7-33.5,8.9-49.7c1.6-4.9-0.2-9.5-2.4-14.1c-1.8,2.8-3.5,5.6-4.7,8.6
			c-4.9,12.5-7.7,25.6-9,38.9c-0.5,5.1-0.2,10.3-0.1,15.4c0,1.3,0.8,2.5,1.2,3.8c0.3-0.1,0.7-0.1,1-0.2
			C186.3,78.1,186.3,73,186.3,68z M130.8,125.2c0-0.4,0-0.7-0.1-1.1c-1.2-0.1-2.3-0.3-3.5-0.3c-7.3-0.5-14.7-1.9-22-1.4
			c-10.3,0.6-20.6,2.5-30.8,4c-1.7,0.2-3.1,1.6-5.2,2.6c6,3.6,11.8,5.3,17.9,6.4c5.9,1.1,11.2-0.4,16.4-2.9c1.2-0.6,2.6-1.1,4-1.3
			c2.9-0.6,5.8-0.9,8.7-1.5c2.8-0.6,5.6-1.5,8.4-2.2c0-0.1-0.1-0.3-0.1-0.4c-8.3,0.2-16.6,0.4-25,0.7c0-0.2,0-0.3,0-0.5
			C110,126.5,120.4,125.8,130.8,125.2z M228.7,120.4c0.1,0.3,0.2,0.6,0.3,0.9c4.8-2.3,9.5-4.5,14.3-6.8c0.1,0.2,0.2,0.3,0.3,0.5
			c-3.5,1.9-6.9,3.9-10.4,5.8c0.1,0.2,0.2,0.4,0.3,0.6c6-2.4,12-4.8,18.1-7.2c6.1-2.3,12.2-4.6,18.3-6.8c0.1,0.2,0.1,0.4,0.2,0.5
			c-13.2,5.3-26.3,10.6-39.5,16c6.4,1,55.2-16.8,61.5-22C268,99.2,247.8,108.2,228.7,120.4z M219.8,89c9.6-11,17-23.6,26.5-34.6
			c0.1,0.1,0.3,0.2,0.4,0.3c-7.2,10.2-14.5,20.4-21.7,30.6c5.7-5,11.1-10,16.5-15.1c1.6-1.5,3.2-3.2,4.3-5.1
			c3.6-6.3,7-12.8,10.5-19.2c0.4-0.7,0.4-1.5,0.6-2.5c-0.7,0.1-1.1,0.1-1.4,0.3c-3.7,2.4-7.8,4.4-11,7.3
			c-11.7,10.6-19.8,23.8-27,37.6c-0.1,0.3-0.1,0.7-0.1,1c0.1,0,0.2,0.1,0.4,0.1c2.4-3.7,4.7-7.4,7.1-11c0.1,0.1,0.2,0.1,0.4,0.2
			C223.4,82.4,221.6,85.7,219.8,89z M82.9,146.4c0.9,0.4,1.5,0.8,2.2,0.9c5.6,1.2,10.9,0.2,16-2.4c8.2-4.2,16.6-7.6,25.4-10.2
			c0.6-0.2,1.2-0.5,1.8-0.7c0-0.2-0.1-0.3-0.1-0.5c-1.8,0.2-3.5,0.5-5.3,0.7c0-0.3-0.1-0.5-0.1-0.8c9.4-1.7,18.7-3.4,28.1-5.1
			c0.1-0.2,0.1-0.4,0.2-0.6c-1-0.3-2-1.1-2.9-1c-5.6,0.4-11.3,0.6-16.8,1.5c-14.4,2.4-28.4,6.4-41.7,12.6
			C87,142.1,84.7,143.7,82.9,146.4z M223.2,204.8c-0.1,0.1-0.3,0.3-0.4,0.4c1.3,3,2.5,6.1,3.8,9.1c-1.8-2.6-3.1-5.3-4.6-8
			c-1.5-2.7-3-5.4-5.9-7.1c2.1,4.4,4.2,8.8,6.4,13.1c-0.2,0.1-0.3,0.1-0.5,0.2c-4.1-7.3-8.3-14.5-12.4-21.8
			c-0.2,0.1-0.4,0.2-0.6,0.4c2.8,9.6,6.3,18.9,12.8,26.8c3,3.7,6.2,7.4,10.7,9.3c0.8,0.3,2.1,0.6,2.5,0.2c0.7-0.7,1.2-1.9,1.1-2.8
			c-0.7-3.5-1.5-7-2.6-10.4c-0.4-1.4-1.2-2.9-2.3-3.8C228.6,208.5,225.8,206.7,223.2,204.8z M138.8,131.9c0,0.2,0,0.4,0,0.5
			c4.4-0.4,8.8-0.8,13.2-1.2c0-0.4-0.1-0.8-0.1-1.2C147.5,130,143.2,131,138.8,131.9z"/>
		<path class="st0" d="M164.7,335.2c0.9-13.5,1.7-26.9,2.6-40.7c0.2,1.7,0.7,3.2,0.6,4.6c-0.8,12-1.7,24.1-2.6,36.1
			C165.1,335.2,164.9,335.2,164.7,335.2z"/>
		<path class="st0" d="M172.5,314c0-6.5,0-12.9,0-19.4c0.1,0,0.3,0,0.4,0c0,6.5,0,12.9,0,19.4C172.7,314,172.6,314,172.5,314z"/>
		<path class="st0" d="M167.6,273.6c0,2.8,0,5.6,0,8.4c-0.1,0-0.2,0-0.3,0c0-2.8,0-5.6,0-8.4C167.4,273.6,167.5,273.6,167.6,273.6z"
			/>
		<path class="st0" d="M219.2,133.2c-0.2-2.1-0.3-4-0.5-5.8C220.6,128.8,220.8,130.9,219.2,133.2z"/>
		<path class="st0" d="M166.7,104.3c1.4-2.2,2.9-2.6,5-1.7C170,103.2,168.6,103.6,166.7,104.3z"/>
		<path class="st0" d="M153.8,117.8c-0.2-1.4-0.4-2.8-0.7-4.2c0.3,0,0.6-0.1,0.8-0.1c0.3,1.4,0.5,2.8,0.8,4.1
			C154.5,117.7,154.2,117.7,153.8,117.8z"/>
		<path class="st0" d="M158.8,111.2c-0.6-2.5-0.5-2.8,2-3.9c-0.5,0.9-0.8,1.5-1,2C159.5,109.8,159.2,110.4,158.8,111.2z"/>
		<path class="st0" d="M159,124.6c0.5,1.2,1.1,2.4,1.6,3.6C158.9,127.6,157.7,126.7,159,124.6z"/>
		<path class="st0" d="M199.3,107.3c2.7,0.2,3.1,0.6,2.8,3.1C201.1,109.4,200.3,108.5,199.3,107.3z"/>
		<path class="st0" d="M221.9,124.6c-0.2-1.4-0.3-2.7-0.5-4.1c0.3,0,0.5-0.1,0.8-0.1c0.2,1.4,0.4,2.8,0.6,4.2
			C222.5,124.6,222.2,124.6,221.9,124.6z"/>
		<path class="st0" d="M172.6,93c1.4,0,2.8,0,4.2,0c0,0.2,0,0.4,0,0.6c-1.4,0-2.8,0-4.2,0C172.6,93.4,172.6,93.2,172.6,93z"/>
		<path class="st0" d="M203.3,119.6c0.3-1.5,0.4-2.6,0.6-3.7C205.4,117.3,205.3,117.6,203.3,119.6z"/>
		<path class="st0" d="M200.1,150.3c1-0.9,1.9-1.8,2.9-2.8c0.2,0.2,0.5,0.4,0.7,0.6c-0.9,1-1.8,2-2.7,3
			C200.6,150.9,200.3,150.6,200.1,150.3z"/>
	</g>
</g>
<path class="st0" d="M178,332.5c-0.1-1.3,0-2.7,0.1-4c0.1-1.3,0.3-2.7,0.5-4c0.4-2.6,1.1-5.2,2-7.8c1.8-5.1,4.4-9.8,7.8-14.1
	c1.7-2.1,3.6-4,5.6-5.8c2-1.8,4.2-3.4,6.5-4.9l1.7-1.1c0.6-0.3,1.2-0.7,1.8-1c1.2-0.7,2.4-1.2,3.6-1.8l3.6-1.7l1.8-0.9l0.9-0.4
	l0.9-0.5l1.7-0.9l1.7-1c1.1-0.6,2.2-1.4,3.4-2.1l1.6-1.1l0.8-0.6l0.8-0.6c0.5-0.4,1.1-0.8,1.6-1.1l1.6-1.2c4.2-3.2,8-6.8,11.4-10.7
	c3.4-4,6.5-8.2,8.9-12.8c1.2-2.3,2.2-4.7,3-7.1c0.4-1.2,0.7-2.5,0.9-3.7c0.2-1.2,0.4-2.5,0.4-3.7l3,0c0,2.9-0.3,5.8-0.5,8.6
	c-0.3,2.8-0.6,5.7-1.1,8.5c-0.9,5.7-2,11.3-3.5,16.8c-1.5,5.5-3.4,10.9-5.7,16.2c-1.1,2.6-2.4,5.2-3.7,7.7c-1.4,2.5-2.9,5-4.5,7.4
	c-1.6,2.4-3.3,4.7-5.2,6.9c-1.9,2.2-3.9,4.3-6,6.2c-4.2,3.9-9,7.2-14.2,9.7c-2.6,1.3-5.2,2.3-8,3.2c-2.7,0.9-5.5,1.6-8.3,2.1
	c-1.4,0.2-2.8,0.5-4.2,0.6c-0.7,0.1-1.4,0.2-2.1,0.2l-2.1,0.2c-0.7,0.1-1.4,0.1-2.1,0.1c-0.7,0-1.4,0.1-2.1,0.1L178,332.5z
	 M178,332.5l4.3-0.1c0.7,0,1.4-0.1,2.1-0.2c0.7-0.1,1.4-0.1,2.1-0.2l2.1-0.3c0.7-0.1,1.4-0.2,2.1-0.3c1.4-0.2,2.8-0.5,4.1-0.8
	c2.7-0.7,5.4-1.4,8.1-2.4c2.6-1,5.2-2.1,7.7-3.5c4.9-2.7,9.5-6,13.5-9.9c2-1.9,3.9-4,5.7-6.1c1.8-2.2,3.4-4.4,4.9-6.8
	c6-9.4,10.2-19.9,13.1-30.8c1.4-5.4,2.6-10.9,3.4-16.5c0.4-2.8,0.8-5.6,1-8.4c0.1-1.4,0.2-2.8,0.3-4.2c0.1-1.4,0.2-2.8,0.2-4.2l3,0
	c0,2.9-0.6,5.6-1.5,8.3c-0.8,2.6-2,5.2-3.2,7.6c-2.5,4.8-5.7,9.3-9.4,13.3c-7.3,8.1-16.1,14.6-25.7,19.5l-0.9,0.5l-0.9,0.4l-1.8,0.9
	l-3.7,1.6c-1.2,0.5-2.4,1.1-3.6,1.7c-0.6,0.3-1.2,0.6-1.7,0.9l-1.7,1c-4.5,2.7-8.6,6-12.1,10c-3.5,3.9-6.2,8.5-8.2,13.4
	c-1,2.5-1.8,5-2.3,7.6c-0.3,1.3-0.5,2.6-0.7,3.9C178.1,329.8,178,331.1,178,332.5z"/>
<path class="st0" d="M181.2,327.3c0.4-1.3,0.9-2.6,1.5-3.9c0.5-1.3,1.1-2.5,1.7-3.8c1.2-2.5,2.6-4.9,4.2-7.2
	c3.1-4.6,6.9-8.8,11.5-11.9c4.6-3,9.6-5.5,14.6-7.8c2.5-1.2,4.9-2.4,7.3-3.9c2.3-1.4,4.5-3.2,6.4-5.2c-1.8,2.1-3.9,3.9-6.2,5.5
	c-2.3,1.6-4.7,2.8-7.2,4.1c-2.5,1.3-4.9,2.4-7.3,3.7c-2.4,1.3-4.8,2.7-7.1,4.2c-0.6,0.4-1.1,0.8-1.7,1.2c-0.6,0.4-1.1,0.8-1.6,1.2
	l-1.5,1.3l-1.4,1.4c-1.9,2-3.6,4.1-5.2,6.3c-1.6,2.2-3,4.6-4.3,7C183.4,322.2,182.2,324.7,181.2,327.3z"/>
<path class="st0" d="M181.2,330.1c3.8-0.1,7.6-0.6,11.3-1.3c3.7-0.7,7.4-1.7,11-2.9c3.5-1.3,7-2.9,10.2-4.9c3.2-2,6.1-4.4,8.6-7.2
	c0.3-0.3,0.6-0.7,0.9-1.1c0.3-0.4,0.6-0.7,0.9-1.1l0.8-1.1l0.4-0.6l0.4-0.6c1-1.6,2.1-3.2,3.1-4.8c2.1-3.2,4-6.5,5.9-9.8
	c1.9-3.3,3.7-6.6,5.4-10c1.7-3.4,3.4-6.8,4.9-10.3c-2.7,7.1-6.1,14-9.7,20.6c-1.8,3.3-3.8,6.6-5.8,9.8c-1,1.6-2,3.2-3.1,4.8
	l-0.4,0.6l-0.4,0.6l-0.8,1.2c-0.3,0.4-0.6,0.8-0.9,1.1c-0.3,0.4-0.6,0.8-0.9,1.1c-2.6,2.9-5.6,5.3-8.9,7.3c-3.3,2-6.8,3.6-10.4,4.9
	C196.4,328.9,188.8,330.2,181.2,330.1z"/>
<path class="st0" d="M186.5,327.3c1.7-0.4,3.4-0.7,5-1.2c1.7-0.4,3.3-0.9,4.9-1.4c1.6-0.5,3.3-1.1,4.9-1.7c1.6-0.6,3.2-1.2,4.8-1.9
	c3.1-1.4,6.1-3,9-4.9c1.4-1,2.8-2,4-3.1c1.3-1.1,2.5-2.4,3.6-3.7c-1,1.4-2.1,2.8-3.3,4c-1.2,1.2-2.6,2.3-3.9,3.4
	c-1.4,1-2.9,1.9-4.4,2.8c-1.5,0.9-3.1,1.6-4.6,2.3c-3.2,1.4-6.4,2.6-9.8,3.5C193.3,326.2,190,326.9,186.5,327.3z"/>
<path class="st0" d="M162.5,309.3c0-1.3-0.1-2.7-0.3-4c-0.2-1.3-0.4-2.6-0.7-3.9c-0.6-2.6-1.3-5.1-2.3-7.6c-2-4.9-4.7-9.5-8.2-13.4
	c-3.5-3.9-7.6-7.3-12.1-10l-1.7-1c-0.6-0.3-1.2-0.6-1.7-0.9c-1.2-0.6-2.4-1.1-3.6-1.7l-3.7-1.6l-1.8-0.9l-0.9-0.4l-0.9-0.5
	c-9.6-4.9-18.4-11.4-25.7-19.5c-3.6-4-6.8-8.5-9.4-13.3c-1.3-2.4-2.4-4.9-3.2-7.6c-0.8-2.6-1.4-5.4-1.5-8.3l3,0
	c0,1.3,0.1,2.8,0.2,4.2c0.1,1.4,0.2,2.8,0.3,4.2c0.3,2.8,0.6,5.6,1,8.4c0.8,5.6,1.9,11.1,3.4,16.5c2.9,10.8,7,21.4,13.1,30.8
	c1.5,2.3,3.1,4.6,4.9,6.8c1.8,2.2,3.7,4.2,5.7,6.1c4,3.9,8.6,7.2,13.5,9.9c2.5,1.3,5,2.5,7.7,3.5c2.6,1,5.3,1.7,8.1,2.4
	c1.4,0.3,2.7,0.6,4.1,0.8c0.7,0.1,1.4,0.2,2.1,0.3l2.1,0.3c0.7,0.1,1.4,0.2,2.1,0.2c0.7,0.1,1.4,0.1,2.1,0.2L162.5,309.3z
	 M162.5,309.3l-4.2,0.1c-0.7,0-1.4,0-2.1-0.1c-0.7,0-1.4,0-2.1-0.1l-2.1-0.2c-0.7-0.1-1.4-0.2-2.1-0.2c-1.4-0.1-2.8-0.4-4.2-0.6
	c-2.8-0.5-5.6-1.2-8.3-2.1c-2.7-0.9-5.4-2-8-3.2c-5.1-2.6-9.9-5.8-14.2-9.7c-2.1-1.9-4.1-4-6-6.2c-1.9-2.2-3.6-4.5-5.2-6.9
	c-1.6-2.4-3.1-4.8-4.5-7.4c-1.4-2.5-2.6-5.1-3.7-7.7c-2.3-5.3-4.2-10.7-5.7-16.2c-1.5-5.5-2.7-11.1-3.5-16.8
	c-0.4-2.8-0.8-5.7-1.1-8.5c-0.3-2.9-0.5-5.7-0.5-8.6l3,0c0,1.2,0.1,2.5,0.4,3.7c0.2,1.2,0.6,2.5,0.9,3.7c0.8,2.4,1.8,4.8,3,7.1
	c2.4,4.6,5.4,8.9,8.9,12.8c3.4,3.9,7.3,7.5,11.4,10.7l1.6,1.2c0.5,0.4,1.1,0.8,1.6,1.1l0.8,0.6l0.8,0.6l1.6,1.1
	c1.1,0.7,2.2,1.4,3.4,2.1l1.7,1l1.7,0.9l0.9,0.5l0.9,0.4l1.8,0.9l3.6,1.7c1.2,0.6,2.5,1.1,3.6,1.8c0.6,0.3,1.2,0.6,1.8,1l1.7,1.1
	c2.3,1.5,4.5,3.1,6.5,4.9c2,1.8,4,3.7,5.6,5.8c3.4,4.2,6.1,9,7.8,14.1c0.9,2.5,1.6,5.1,2,7.8c0.2,1.3,0.4,2.6,0.5,4
	C162.5,306.6,162.6,307.9,162.5,309.3z"/>
<path class="st0" d="M159.3,304.1c-1.1-2.5-2.3-5-3.6-7.4c-1.3-2.4-2.8-4.8-4.3-7c-1.6-2.2-3.3-4.4-5.2-6.3l-1.4-1.4l-1.5-1.3
	c-0.5-0.5-1.1-0.8-1.6-1.2c-0.6-0.4-1.1-0.8-1.7-1.2c-2.3-1.5-4.7-2.9-7.1-4.2c-2.4-1.3-4.9-2.5-7.3-3.7c-2.5-1.3-4.9-2.5-7.2-4.1
	c-2.3-1.6-4.4-3.4-6.2-5.5c1.9,2,4.1,3.7,6.4,5.2c2.3,1.5,4.8,2.7,7.3,3.9c5,2.3,10,4.8,14.6,7.8c4.7,3.1,8.5,7.3,11.5,11.9
	c1.5,2.3,2.9,4.7,4.2,7.2c0.6,1.2,1.2,2.5,1.7,3.8C158.3,301.5,158.8,302.8,159.3,304.1z"/>
<path class="st0" d="M159.3,306.9c-7.6,0.1-15.2-1.2-22.5-3.6c-3.6-1.2-7.1-2.8-10.4-4.9c-3.3-2-6.3-4.5-8.9-7.3
	c-0.3-0.3-0.6-0.7-0.9-1.1c-0.3-0.4-0.6-0.7-0.9-1.1l-0.8-1.2l-0.4-0.6l-0.4-0.6c-1-1.6-2.1-3.2-3.1-4.8c-2-3.2-4-6.5-5.8-9.8
	c-3.7-6.7-7.1-13.5-9.7-20.6c1.5,3.5,3.1,6.9,4.9,10.3c1.7,3.4,3.5,6.7,5.4,10c1.9,3.3,3.8,6.6,5.9,9.8c1,1.6,2.1,3.2,3.1,4.8
	l0.4,0.6l0.4,0.6l0.8,1.1c0.3,0.4,0.6,0.7,0.9,1.1c0.3,0.4,0.6,0.7,0.9,1.1c2.5,2.8,5.4,5.2,8.6,7.2c3.2,2,6.7,3.6,10.2,4.9
	c3.6,1.3,7.2,2.3,11,2.9C151.7,306.3,155.5,306.8,159.3,306.9z"/>
<path class="st0" d="M153.9,304.1c-3.4-0.4-6.8-1.1-10.1-2c-3.3-0.9-6.6-2.1-9.8-3.5c-1.6-0.7-3.1-1.5-4.6-2.3
	c-1.5-0.9-3-1.8-4.4-2.8c-1.4-1-2.7-2.2-3.9-3.4c-1.2-1.2-2.3-2.6-3.3-4c1.1,1.3,2.3,2.6,3.6,3.7c1.3,1.1,2.6,2.2,4,3.1
	c2.8,1.9,5.8,3.5,9,4.9c1.6,0.7,3.1,1.3,4.8,1.9c1.6,0.6,3.2,1.1,4.9,1.7c1.6,0.5,3.3,1,4.9,1.4
	C150.6,303.3,152.2,303.7,153.9,304.1z"/>
<path class="st0" d="M101.6,260.6c1.9,2.8,3.9,5.7,5.9,8.5c2,2.8,4,5.6,6.1,8.3c2.1,2.7,4.3,5.4,6.6,7.9c1.2,1.2,2.4,2.5,3.7,3.5
	c1.3,1.1,2.7,2.1,4.3,2.7c-0.8-0.2-1.7-0.5-2.4-1c-0.2-0.1-0.4-0.2-0.6-0.3l-0.5-0.4c-0.4-0.2-0.7-0.5-1.1-0.7
	c-1.4-1-2.7-2.2-3.9-3.4c-2.5-2.4-4.7-5.1-6.8-7.8c-2.1-2.7-4.1-5.5-6-8.4C105.1,266.5,103.3,263.6,101.6,260.6z"/>
<path class="st0" d="M130.5,279.1c2.3,0.9,4.5,2,6.7,3.3c2.1,1.3,4.1,2.8,6.1,4.4c1.9,1.6,3.7,3.4,5.2,5.3c1.6,1.9,2.9,4.1,4,6.3
	c-0.4-0.5-0.7-1-1-1.5c-0.2-0.3-0.3-0.5-0.5-0.8l-0.6-0.7c-0.4-0.5-0.7-1-1.1-1.5l-1.2-1.4c-0.4-0.5-0.8-0.9-1.3-1.3
	c-0.4-0.4-0.8-0.9-1.3-1.3l-1.3-1.3l-1.4-1.2c-1.9-1.6-3.8-3.1-5.9-4.5c-1-0.7-2-1.4-3.1-2C132.6,280.3,131.6,279.7,130.5,279.1z"/>
<path class="st0" d="M92.4,238.7c0.5,0.8,1,1.6,1.6,2.5c0.5,0.8,1.1,1.6,1.6,2.4c1.1,1.6,2.2,3.2,3.4,4.8c1.2,1.6,2.4,3.1,3.7,4.5
	c0.7,0.7,1.3,1.4,2.1,2.1c0.7,0.7,1.5,1.2,2.3,1.7c-1.8-0.8-3.3-2.2-4.6-3.6c-1.4-1.4-2.6-2.9-3.8-4.5c-1.2-1.6-2.3-3.2-3.3-4.8
	C94.3,242.1,93.3,240.5,92.4,238.7z"/>
<path class="st0" d="M104.8,260.6c0.3,0.4,0.6,0.8,1,1.1c0.3,0.4,0.7,0.7,1,1.1c0.7,0.7,1.4,1.4,2.1,2.1c0.7,0.7,1.5,1.3,2.2,2
	c0.4,0.3,0.8,0.6,1.2,0.9c0.4,0.3,0.8,0.6,1.2,0.9c-0.9-0.4-1.8-0.9-2.6-1.5c-0.8-0.6-1.6-1.2-2.3-1.9c-0.7-0.7-1.4-1.4-2-2.2
	C105.9,262.3,105.3,261.4,104.8,260.6z"/>
</svg>
